<svg width="242" height="242" viewBox="0 0 242 242" fill="none" xmlns="http://www.w3.org/2000/svg">
<g filter="url(#filter0_b_1308_4479)">
<path d="M180.963 180.964C214.278 147.649 214.278 93.6359 180.963 60.3215C147.649 27.0071 93.6355 27.007 60.3211 60.3215C27.0067 93.6359 27.0067 147.649 60.3211 180.964C93.6356 214.278 147.649 214.278 180.963 180.964Z" fill="white" fill-opacity="0.29"/>
<path d="M180.642 60.6424C213.78 93.7796 213.78 147.506 180.642 180.643C147.505 213.78 93.7793 213.78 60.6421 180.643C27.5049 147.506 27.5049 93.7796 60.6421 60.6424C93.7792 27.5052 147.505 27.5053 180.642 60.6424Z" stroke="url(#paint0_linear_1308_4479)" stroke-width="0.907807"/>
</g>
<path d="M90.7164 98.0652H96.7732C98.8648 98.0652 100.608 98.7988 102.002 100.266C103.411 101.718 104.116 103.527 104.116 105.691C104.116 107.855 103.411 109.663 102.002 111.116C100.608 112.583 98.8648 113.316 96.7732 113.316H90.7164V98.0652ZM93.723 110.44H96.7732C98.095 110.44 99.1699 110.005 99.9978 109.133C100.826 108.233 101.24 107.085 101.24 105.691C101.24 104.282 100.826 103.142 99.9978 102.27C99.1699 101.384 98.095 100.941 96.7732 100.941H93.723V110.44ZM107.076 101.115C106.611 101.115 106.205 100.948 105.856 100.614C105.522 100.266 105.355 99.8591 105.355 99.3943C105.355 98.9295 105.522 98.5228 105.856 98.1742C106.205 97.8256 106.611 97.6513 107.076 97.6513C107.556 97.6513 107.962 97.8256 108.296 98.1742C108.645 98.5228 108.819 98.9295 108.819 99.3943C108.819 99.8591 108.645 100.266 108.296 100.614C107.962 100.948 107.556 101.115 107.076 101.115ZM108.492 113.316H105.682V102.423H108.492V113.316ZM118.974 103.774V102.423H121.719V112.794C121.719 114.464 121.16 115.749 120.041 116.65C118.937 117.536 117.601 117.979 116.032 117.979C113.563 117.979 111.842 117.093 110.869 115.321L113.265 113.948C113.803 114.965 114.754 115.473 116.12 115.473C117.006 115.473 117.703 115.241 118.211 114.776C118.72 114.311 118.974 113.65 118.974 112.794V111.617C118.146 112.721 116.984 113.273 115.488 113.273C113.948 113.273 112.655 112.735 111.61 111.661C110.578 110.557 110.063 109.235 110.063 107.695C110.063 106.156 110.586 104.841 111.631 103.752C112.677 102.662 113.963 102.118 115.488 102.118C116.984 102.118 118.146 102.67 118.974 103.774ZM118.102 109.852C118.683 109.286 118.974 108.567 118.974 107.695C118.974 106.824 118.683 106.119 118.102 105.582C117.536 105.015 116.81 104.732 115.923 104.732C115.052 104.732 114.318 105.015 113.723 105.582C113.156 106.119 112.873 106.824 112.873 107.695C112.873 108.567 113.156 109.286 113.723 109.852C114.304 110.404 115.037 110.68 115.923 110.68C116.81 110.68 117.536 110.404 118.102 109.852ZM125.226 101.115C124.761 101.115 124.355 100.948 124.006 100.614C123.672 100.266 123.505 99.8591 123.505 99.3943C123.505 98.9295 123.672 98.5228 124.006 98.1742C124.355 97.8256 124.761 97.6513 125.226 97.6513C125.706 97.6513 126.112 97.8256 126.446 98.1742C126.795 98.5228 126.969 98.9295 126.969 99.3943C126.969 99.8591 126.795 100.266 126.446 100.614C126.112 100.948 125.706 101.115 125.226 101.115ZM126.642 113.316H123.832V102.423H126.642V113.316ZM135.01 102.423V105.124H132.548V109.656C132.548 110.034 132.643 110.31 132.832 110.484C133.02 110.658 133.296 110.76 133.659 110.789C134.023 110.804 134.473 110.796 135.01 110.767V113.316C133.107 113.534 131.749 113.36 130.936 112.794C130.137 112.213 129.738 111.167 129.738 109.656V105.124H127.842V102.423H129.738V100.222L132.548 99.3725V102.423H135.01ZM144.495 103.708V102.423H147.305V113.316H144.495V112.031C143.652 113.091 142.469 113.621 140.944 113.621C139.491 113.621 138.242 113.069 137.196 111.966C136.165 110.847 135.649 109.482 135.649 107.87C135.649 106.272 136.165 104.914 137.196 103.795C138.242 102.677 139.491 102.118 140.944 102.118C142.469 102.118 143.652 102.648 144.495 103.708ZM139.31 110.092C139.876 110.658 140.595 110.942 141.466 110.942C142.338 110.942 143.057 110.658 143.623 110.092C144.204 109.511 144.495 108.77 144.495 107.87C144.495 106.969 144.204 106.236 143.623 105.669C143.057 105.088 142.338 104.798 141.466 104.798C140.595 104.798 139.876 105.088 139.31 105.669C138.743 106.236 138.46 106.969 138.46 107.87C138.46 108.77 138.743 109.511 139.31 110.092ZM152.229 113.316H149.418V97.4116H152.229V113.316ZM48.0074 124.065H59.2279V126.941H55.1101V139.316H52.1034V126.941H48.0074V124.065ZM61.7675 128.423V130.296C62.0144 129.614 62.4356 129.098 63.0312 128.75C63.6267 128.386 64.3093 128.205 65.0792 128.205V131.342C64.2222 131.226 63.4524 131.4 62.7697 131.865C62.1016 132.315 61.7675 133.063 61.7675 134.109V139.316H58.9569V128.423H61.7675ZM74.1621 129.708V128.423H76.9727V139.316H74.1621V138.031C73.3197 139.091 72.1359 139.621 70.6108 139.621C69.1583 139.621 67.9091 139.069 66.8634 137.966C65.8321 136.847 65.3164 135.482 65.3164 133.87C65.3164 132.272 65.8321 130.914 66.8634 129.795C67.9091 128.677 69.1583 128.118 70.6108 128.118C72.1359 128.118 73.3197 128.648 74.1621 129.708ZM68.9767 136.092C69.5432 136.658 70.2622 136.942 71.1337 136.942C72.0052 136.942 72.7242 136.658 73.2906 136.092C73.8716 135.511 74.1621 134.77 74.1621 133.87C74.1621 132.969 73.8716 132.236 73.2906 131.669C72.7242 131.088 72.0052 130.798 71.1337 130.798C70.2622 130.798 69.5432 131.088 68.9767 131.669C68.4103 132.236 68.127 132.969 68.127 133.87C68.127 134.77 68.4103 135.511 68.9767 136.092ZM85.1424 128.118C86.348 128.118 87.3284 128.517 88.0837 129.316C88.8681 130.129 89.2603 131.233 89.2603 132.628V139.316H86.4497V132.976C86.4497 132.265 86.2536 131.713 85.8614 131.32C85.4838 130.928 84.9609 130.732 84.2927 130.732C83.552 130.732 82.9637 130.965 82.528 131.429C82.1067 131.88 81.8961 132.548 81.8961 133.434V139.316H79.0856V128.423H81.8961V129.643C82.5643 128.626 83.6464 128.118 85.1424 128.118ZM93.8171 131.517C93.8171 131.981 94.4779 132.381 95.7997 132.715C96.2645 132.817 96.6857 132.94 97.0634 133.085C97.441 133.216 97.8187 133.412 98.1963 133.673C98.5885 133.92 98.8935 134.254 99.1114 134.676C99.3293 135.097 99.4382 135.584 99.4382 136.135C99.4382 137.254 99.017 138.118 98.1745 138.728C97.3321 139.324 96.2936 139.621 95.0589 139.621C92.8221 139.621 91.297 138.757 90.4836 137.029L92.9238 135.656C93.2578 136.6 93.9696 137.072 95.0589 137.072C96.0612 137.072 96.5623 136.76 96.5623 136.135C96.5623 135.671 95.9014 135.271 94.5796 134.937C94.0858 134.806 93.6645 134.676 93.3159 134.545C92.9673 134.414 92.5897 134.225 92.183 133.979C91.7763 133.717 91.464 133.39 91.2461 132.998C91.0428 132.591 90.9411 132.119 90.9411 131.582C90.9411 130.507 91.3333 129.665 92.1176 129.055C92.9165 128.43 93.9042 128.118 95.0807 128.118C95.9667 128.118 96.7729 128.321 97.4991 128.728C98.2254 129.12 98.7991 129.686 99.2203 130.427L96.8237 131.734C96.4751 130.994 95.8941 130.623 95.0807 130.623C94.7176 130.623 94.4126 130.71 94.1657 130.885C93.9333 131.044 93.8171 131.255 93.8171 131.517ZM106.543 123.76V126.462C105.003 126.36 104.234 126.977 104.234 128.314V128.423H106.543V131.124H104.234V139.316H101.423V131.124H99.8544V128.423H101.423V128.314C101.423 126.76 101.852 125.59 102.709 124.806C103.58 124.007 104.858 123.659 106.543 123.76ZM116.273 137.966C115.169 139.069 113.803 139.621 112.177 139.621C110.55 139.621 109.185 139.069 108.081 137.966C106.977 136.862 106.425 135.496 106.425 133.87C106.425 132.257 106.977 130.899 108.081 129.795C109.199 128.677 110.564 128.118 112.177 128.118C113.789 128.118 115.154 128.677 116.273 129.795C117.391 130.914 117.95 132.272 117.95 133.87C117.95 135.482 117.391 136.847 116.273 137.966ZM110.063 136.027C110.63 136.593 111.334 136.876 112.177 136.876C113.019 136.876 113.724 136.593 114.29 136.027C114.857 135.46 115.14 134.741 115.14 133.87C115.14 132.998 114.857 132.279 114.29 131.713C113.724 131.146 113.019 130.863 112.177 130.863C111.334 130.863 110.63 131.146 110.063 131.713C109.511 132.294 109.235 133.013 109.235 133.87C109.235 134.727 109.511 135.446 110.063 136.027ZM122.302 128.423V130.296C122.549 129.614 122.97 129.098 123.566 128.75C124.162 128.386 124.844 128.205 125.614 128.205V131.342C124.757 131.226 123.987 131.4 123.305 131.865C122.636 132.315 122.302 133.063 122.302 134.109V139.316H119.492V128.423H122.302ZM138.87 128.118C140.12 128.118 141.115 128.524 141.855 129.338C142.611 130.151 142.988 131.241 142.988 132.606V139.316H140.178V132.802C140.178 132.148 140.018 131.64 139.698 131.277C139.379 130.914 138.929 130.732 138.348 130.732C137.708 130.732 137.207 130.943 136.844 131.364C136.496 131.785 136.321 132.395 136.321 133.194V139.316H133.511V132.802C133.511 132.148 133.351 131.64 133.031 131.277C132.712 130.914 132.262 130.732 131.681 130.732C131.056 130.732 130.555 130.95 130.177 131.386C129.814 131.807 129.633 132.41 129.633 133.194V139.316H126.822V128.423H129.633V129.577C130.286 128.604 131.296 128.118 132.661 128.118C134.012 128.118 135 128.641 135.624 129.686C136.336 128.641 137.418 128.118 138.87 128.118ZM153.219 129.708V128.423H156.029V139.316H153.219V138.031C152.376 139.091 151.193 139.621 149.667 139.621C148.215 139.621 146.966 139.069 145.92 137.966C144.889 136.847 144.373 135.482 144.373 133.87C144.373 132.272 144.889 130.914 145.92 129.795C146.966 128.677 148.215 128.118 149.667 128.118C151.193 128.118 152.376 128.648 153.219 129.708ZM148.033 136.092C148.6 136.658 149.319 136.942 150.19 136.942C151.062 136.942 151.781 136.658 152.347 136.092C152.928 135.511 153.219 134.77 153.219 133.87C153.219 132.969 152.928 132.236 152.347 131.669C151.781 131.088 151.062 130.798 150.19 130.798C149.319 130.798 148.6 131.088 148.033 131.669C147.467 132.236 147.184 132.969 147.184 133.87C147.184 134.77 147.467 135.511 148.033 136.092ZM164.373 128.423V131.124H161.911V135.656C161.911 136.034 162.006 136.31 162.195 136.484C162.383 136.658 162.659 136.76 163.023 136.789C163.386 136.804 163.836 136.796 164.373 136.767V139.316C162.471 139.534 161.113 139.36 160.299 138.794C159.5 138.213 159.101 137.167 159.101 135.656V131.124H157.205V128.423H159.101V126.222L161.911 125.372V128.423H164.373ZM167.314 127.115C166.849 127.115 166.442 126.948 166.094 126.614C165.76 126.266 165.592 125.859 165.592 125.394C165.592 124.929 165.76 124.523 166.094 124.174C166.442 123.826 166.849 123.651 167.314 123.651C167.793 123.651 168.2 123.826 168.534 124.174C168.882 124.523 169.057 124.929 169.057 125.394C169.057 125.859 168.882 126.266 168.534 126.614C168.2 126.948 167.793 127.115 167.314 127.115ZM168.73 139.316H165.919V128.423H168.73V139.316ZM180.148 137.966C179.044 139.069 177.679 139.621 176.052 139.621C174.425 139.621 173.06 139.069 171.956 137.966C170.852 136.862 170.3 135.496 170.3 133.87C170.3 132.257 170.852 130.899 171.956 129.795C173.074 128.677 174.44 128.118 176.052 128.118C177.664 128.118 179.03 128.677 180.148 129.795C181.266 130.914 181.826 132.272 181.826 133.87C181.826 135.482 181.266 136.847 180.148 137.966ZM173.939 136.027C174.505 136.593 175.21 136.876 176.052 136.876C176.894 136.876 177.599 136.593 178.165 136.027C178.732 135.46 179.015 134.741 179.015 133.87C179.015 132.998 178.732 132.279 178.165 131.713C177.599 131.146 176.894 130.863 176.052 130.863C175.21 130.863 174.505 131.146 173.939 131.713C173.387 132.294 173.111 133.013 173.111 133.87C173.111 134.727 173.387 135.446 173.939 136.027ZM189.424 128.118C190.63 128.118 191.61 128.517 192.365 129.316C193.15 130.129 193.542 131.233 193.542 132.628V139.316H190.731V132.976C190.731 132.265 190.535 131.713 190.143 131.32C189.765 130.928 189.242 130.732 188.574 130.732C187.833 130.732 187.245 130.965 186.809 131.429C186.388 131.88 186.178 132.548 186.178 133.434V139.316H183.367V128.423H186.178V129.643C186.846 128.626 187.928 128.118 189.424 128.118Z" fill="white"/>
<defs>
<filter id="filter0_b_1308_4479" x="-40.9208" y="-40.9199" width="323.126" height="323.125" filterUnits="userSpaceOnUse" color-interpolation-filters="sRGB">
<feFlood flood-opacity="0" result="BackgroundImageFix"/>
<feGaussianBlur in="BackgroundImageFix" stdDeviation="38.1279"/>
<feComposite in2="SourceAlpha" operator="in" result="effect1_backgroundBlur_1308_4479"/>
<feBlend mode="normal" in="SourceGraphic" in2="effect1_backgroundBlur_1308_4479" result="shape"/>
</filter>
<linearGradient id="paint0_linear_1308_4479" x1="69.0245" y1="129.174" x2="150.458" y2="150.114" gradientUnits="userSpaceOnUse">
<stop stop-color="white"/>
<stop offset="1" stop-color="white" stop-opacity="0.1"/>
</linearGradient>
</defs>
</svg>
