<svg width="42" height="43" viewBox="0 0 42 43" fill="none" xmlns="http://www.w3.org/2000/svg">
<path d="M32.5425 9.38525L8.62891 9.38525L8.62891 28.6328L32.5425 28.6328L32.5425 9.38525Z" fill="white"/>
<path d="M27.5664 23.0916L27.5664 21.3418L29.3162 21.3418" stroke="white" stroke-width="0.5" stroke-miterlimit="10" stroke-linecap="round" stroke-linejoin="round"/>
<path d="M29.6286 23.4039L27.5664 21.3418" stroke="white" stroke-width="0.5" stroke-miterlimit="10" stroke-linecap="round" stroke-linejoin="round"/>
<path d="M13.8799 12.0098L11.5469 12.0098L11.5469 14.3428L13.8799 14.3428L13.8799 12.0098Z" stroke="#A6A6A6" stroke-width="0.8" stroke-miterlimit="10" stroke-linecap="round" stroke-linejoin="round"/>
<path d="M16.7969 12.0098L29.6286 12.0098" stroke="#A6A6A6" stroke-width="0.8" stroke-miterlimit="10" stroke-linecap="round" stroke-linejoin="round"/>
<path d="M16.7969 14.3423L29.6286 14.3423" stroke="#A6A6A6" stroke-width="0.8" stroke-miterlimit="10" stroke-linecap="round" stroke-linejoin="round"/>
<path d="M13.8799 16.6772L11.5469 16.6772L11.5469 19.0103L13.8799 19.0103L13.8799 16.6772Z" stroke="#A6A6A6" stroke-width="0.8" stroke-miterlimit="10" stroke-linecap="round" stroke-linejoin="round"/>
<path d="M16.7969 16.6772L29.6286 16.6772" stroke="#A6A6A6" stroke-width="0.8" stroke-miterlimit="10" stroke-linecap="round" stroke-linejoin="round"/>
<path d="M16.7969 19.0098L29.6286 19.0098" stroke="#A6A6A6" stroke-width="0.8" stroke-miterlimit="10" stroke-linecap="round" stroke-linejoin="round"/>
<path d="M24.9618 21.3418L11.5469 21.3418L11.5469 26.5912L24.9618 26.5912L24.9618 21.3418Z" stroke="#A6A6A6" stroke-width="0.8" stroke-miterlimit="10" stroke-linecap="round" stroke-linejoin="round"/>
<path d="M33.1339 30.9669L8.03954 30.9669C7.07707 30.9669 6.29687 30.1867 6.29687 29.2242L6.29687 4.12987C6.29687 3.1674 7.07707 2.38721 8.03954 2.38721L33.1339 2.38721C34.0964 2.38721 34.8766 3.1674 34.8766 4.12987L34.8766 29.2242C34.8766 30.1867 34.0964 30.9669 33.1339 30.9669Z" stroke="white" stroke-width="1.8" stroke-miterlimit="10" stroke-linecap="round" stroke-linejoin="round"/>
<path d="M6.29688 9.38672L34.8766 9.38672" stroke="white" stroke-width="1.2" stroke-miterlimit="10" stroke-linecap="round" stroke-linejoin="round"/>
<path d="M19.1275 7.05232C19.7717 7.05232 20.294 6.53004 20.294 5.88578C20.294 5.24152 19.7717 4.71924 19.1275 4.71924C18.4832 4.71924 17.9609 5.24152 17.9609 5.88578C17.9609 6.53004 18.4832 7.05232 19.1275 7.05232Z" stroke="white" stroke-width="1.2" stroke-miterlimit="10" stroke-linecap="round" stroke-linejoin="round"/>
<path d="M14.4634 7.05232C15.1077 7.05232 15.63 6.53004 15.63 5.88578C15.63 5.24152 15.1077 4.71924 14.4634 4.71924C13.8192 4.71924 13.2969 5.24152 13.2969 5.88578C13.2969 6.53004 13.8192 7.05232 14.4634 7.05232Z" stroke="white" stroke-width="1.2" stroke-miterlimit="10" stroke-linecap="round" stroke-linejoin="round"/>
<path d="M9.79545 7.05232C10.4397 7.05232 10.962 6.53004 10.962 5.88578C10.962 5.24152 10.4397 4.71924 9.79545 4.71924C9.15118 4.71924 8.62891 5.24152 8.62891 5.88578C8.62891 6.53004 9.15118 7.05232 9.79545 7.05232Z" stroke="white" stroke-width="1.2" stroke-miterlimit="10" stroke-linecap="round" stroke-linejoin="round"/>
<path d="M22.6289 5.88721L32.5443 5.88721" stroke="white" stroke-width="1.2" stroke-miterlimit="10" stroke-linecap="round" stroke-linejoin="round"/>
<path d="M29.1328 30.8192L29.1328 25.4437C29.1328 24.7216 29.7182 24.1362 30.4403 24.1362C31.1625 24.1362 31.7478 24.7216 31.7478 25.4437L31.7478 30.8192" fill="white"/>
<path d="M29.1328 30.8192L29.1328 25.4437C29.1328 24.7216 29.7182 24.1362 30.4403 24.1362C31.1625 24.1362 31.7478 24.7216 31.7478 25.4437L31.7478 30.8192" stroke="#A6A6A6" stroke-width="0.4" stroke-miterlimit="10" stroke-linecap="round" stroke-linejoin="round"/>
<path d="M31.7461 30.8171L31.7461 26.4877C31.7461 25.7655 32.3315 25.1802 33.0536 25.1802C33.7757 25.1802 34.3612 25.7656 34.3612 26.4877L34.3612 30.8171" fill="white"/>
<path d="M31.7461 30.8171L31.7461 26.4877C31.7461 25.7655 32.3315 25.1802 33.0536 25.1802C33.7757 25.1802 34.3612 25.7656 34.3612 26.4877L34.3612 30.8171" stroke="#A6A6A6" stroke-width="0.4" stroke-miterlimit="10" stroke-linecap="round" stroke-linejoin="round"/>
<path d="M29.1322 30.7522L29.1322 21.7743C29.1322 21.0522 28.5468 20.4668 27.8247 20.4668C27.1025 20.4668 26.5172 21.0522 26.5172 21.7743L26.5172 31.1168L24.5094 29.109C23.9988 28.5984 23.1709 28.5984 22.6603 29.109C22.1497 29.6197 22.1497 30.4475 22.6603 30.9582L26.5172 34.815L26.5172 39.0015L36.9773 39.0015L36.9773 27.5265C36.9773 26.8043 36.3919 26.219 35.6698 26.219C34.9477 26.219 34.3624 26.8044 34.3624 27.5265L34.3624 30.8181" fill="white"/>
<path d="M29.1322 30.7522L29.1322 21.7743C29.1322 21.0522 28.5468 20.4668 27.8247 20.4668C27.1025 20.4668 26.5172 21.0522 26.5172 21.7743L26.5172 31.1168L24.5094 29.109C23.9988 28.5984 23.1709 28.5984 22.6603 29.109C22.1497 29.6197 22.1497 30.4475 22.6603 30.9582L26.5172 34.815L26.5172 39.0015L36.9773 39.0015L36.9773 27.5265C36.9773 26.8043 36.3919 26.219 35.6698 26.219C34.9477 26.219 34.3624 26.8044 34.3624 27.5265L34.3624 30.8181" stroke="#A6A6A6" stroke-width="0.4" stroke-miterlimit="10" stroke-linecap="round" stroke-linejoin="round"/>
</svg>
