<svg width="134" height="107" viewBox="0 0 134 107" fill="none" xmlns="http://www.w3.org/2000/svg">
<path d="M67.2146 103.366C76.5103 103.366 85.5272 104.402 94.1723 106.382C99.3779 107.513 104.491 104.591 106.35 99.5956L133.214 24.3848C135.352 18.5413 132.099 12.0381 126.15 10.4359C107.372 5.25219 87.6652 2.42472 67.2146 2.42472C46.8569 2.42472 27.057 5.2522 8.27955 10.4359C2.33027 12.0381 -0.923256 18.5413 1.21478 24.3848L28.0795 99.5957C29.8457 104.591 35.0513 107.607 40.2569 106.382C48.902 104.402 57.9189 103.366 67.2146 103.366Z" fill="white" fill-opacity="0.3"/>
<path d="M66.0018 103.289C75.1285 103.289 83.9814 104.35 92.4693 106.375C97.5803 107.533 102.6 104.543 104.425 99.4315L130.802 22.4715C132.901 16.4922 129.706 9.83775 123.865 8.19826C105.429 2.894 86.0806 0.000766906 66.0018 0.000768661C46.0142 0.000770408 26.5743 2.89401 8.13825 8.19827C2.29714 9.83776 -0.897225 16.4922 1.20193 22.4715L27.5782 99.4315C29.3123 104.543 34.4233 107.629 39.5342 106.375C48.0221 104.35 56.875 103.289 66.0018 103.289Z" fill="white" fill-opacity="0.3"/>
</svg>
