<svg width="171" height="168" viewBox="0 0 171 168" fill="none" xmlns="http://www.w3.org/2000/svg">
<path d="M53.1084 122.003C60.2192 127.991 66.4489 134.591 71.7871 141.674C75.0407 145.892 80.8334 146.95 85.473 144.326L154.466 104.097C159.865 101.004 161.565 93.934 158.046 88.8765C147.021 72.8168 133.767 57.9608 118.124 44.7887C102.551 31.6765 85.584 21.0864 67.8815 12.9573C62.2986 10.351 55.6212 13.2301 53.493 19.0771L25.6003 93.9128C23.734 98.8715 25.7735 104.531 30.5447 106.947C38.4325 111.001 45.9977 116.016 53.1084 122.003Z" fill="white" fill-opacity="0.3"/>
<path d="M52.2303 121.163C59.2118 127.041 65.3005 133.555 70.4889 140.571C73.6531 144.748 79.4185 145.695 84.107 142.96L153.853 101.079C159.31 97.8568 161.152 90.7091 157.74 85.6927C147.054 69.7608 134.117 55.0853 118.758 42.1527C103.468 29.2788 86.734 18.9709 69.215 11.1539C63.6909 8.64581 56.9613 11.6786 54.7158 17.6046L25.323 93.4637C23.3572 98.4905 25.2791 104.143 29.9963 106.476C37.7935 110.394 45.2488 115.284 52.2303 121.163Z" fill="white" fill-opacity="0.3"/>
</svg>
