<svg width="129" height="151" viewBox="0 0 129 151" fill="none" xmlns="http://www.w3.org/2000/svg">
<path d="M15.2837 84.0097C16.94 93.1567 17.5265 102.214 17.1193 111.073C16.9339 116.397 20.7199 120.908 25.9664 121.847L104.761 134.881C110.891 135.943 116.711 131.583 117.227 125.444C118.982 106.043 118.253 86.1476 114.609 66.0242C110.982 45.9922 104.672 27.0129 96.2253 9.45961C93.5887 3.89102 86.6099 1.84829 81.2409 4.99329L12.0203 44.8291C7.4197 47.4571 5.37953 53.1168 7.51269 58.0208C11.0006 66.1749 13.6274 74.8627 15.2837 84.0097Z" fill="white" fill-opacity="0.3"/>
<path d="M15.1433 82.8039C16.7695 91.7846 17.303 100.685 16.8225 109.398C16.5944 114.633 20.4306 119.04 25.7855 119.925L106.214 132.167C112.471 133.167 118.45 128.838 119.023 122.798C120.957 103.712 120.356 84.1576 116.779 64.4001C113.217 44.7324 106.907 26.119 98.4024 8.92312C95.7484 3.46761 88.6313 1.51004 83.1217 4.641L12.0929 44.3079C7.37229 46.9249 5.24623 52.504 7.39058 57.3098C10.8958 65.301 13.5171 73.8232 15.1433 82.8039Z" fill="white" fill-opacity="0.3"/>
</svg>
