<svg width="159" height="169" viewBox="0 0 159 169" fill="none" xmlns="http://www.w3.org/2000/svg">
<path d="M35.4209 60.3156C30.9458 68.4633 25.6963 75.8675 19.7997 82.492C16.3023 86.5102 16.4019 92.398 19.8852 96.4323L72.8741 156.186C76.9666 160.873 84.2329 161.153 88.5013 156.709C102.084 142.747 114.05 126.835 123.895 108.91C133.695 91.0664 140.749 72.3506 145.245 53.3968C146.705 47.411 142.571 41.4286 136.42 40.4895L57.5654 27.8288C52.3368 26.9721 47.1873 30.0829 45.7552 35.2355C43.3281 43.7656 39.896 52.168 35.4209 60.3156Z" fill="white" fill-opacity="0.3"/>
<path d="M36.0705 59.2897C31.6768 67.2893 26.4851 74.5381 20.6238 81.0027C17.1489 84.9253 17.3528 90.7643 20.9542 94.8249L75.7113 154.993C79.9416 159.711 87.312 160.115 91.561 155.785C105.085 142.179 116.936 126.613 126.602 109.014C136.224 91.495 143.047 73.0632 147.273 54.3506C148.648 48.4416 144.354 42.4382 138.102 41.3996L57.9493 27.4688C52.6344 26.5281 47.4689 29.5221 46.1073 34.6054C43.7963 43.02 40.4642 51.2902 36.0705 59.2897Z" fill="white" fill-opacity="0.3"/>
</svg>
