<svg width="163" height="149" viewBox="0 0 163 149" fill="none" xmlns="http://www.w3.org/2000/svg">
<path d="M63.6351 27.7811C72.3195 24.4658 80.3737 20.2815 87.7444 15.3492C92.2044 12.4361 98.0229 13.3423 101.541 17.346L153.463 78.0301C157.544 82.7268 156.824 89.9627 151.837 93.5813C136.143 105.121 118.741 114.791 99.6347 122.084C80.6156 129.345 61.1093 133.765 41.718 135.619C35.5885 136.243 30.2296 131.328 30.143 125.106L28.4179 45.2603C28.2865 39.9636 32.0742 35.2895 37.3745 34.5776C46.1569 33.3435 54.9506 31.0963 63.6351 27.7811Z" fill="white" fill-opacity="0.3"/>
<path d="M62.53 28.2855C71.0565 25.0305 78.949 20.8821 86.1564 15.9629C90.5186 13.059 96.2744 14.0618 99.8027 18.1861L151.891 80.6785C155.985 85.516 155.374 92.8721 150.502 96.4869C135.17 108.017 118.125 117.621 99.3668 124.782C80.6936 131.91 61.5001 136.14 42.3847 137.76C36.343 138.311 30.9854 133.234 30.8141 126.899L28.0089 45.5929C27.806 40.1992 31.4802 35.4932 36.7023 34.8417C45.3543 33.7067 54.0034 31.5405 62.53 28.2855Z" fill="white" fill-opacity="0.3"/>
</svg>
