<svg width="164" height="149" viewBox="0 0 164 149" fill="none" xmlns="http://www.w3.org/2000/svg">
<path d="M100.241 27.5222C91.5852 24.1316 83.5677 19.8774 76.2402 14.8812C71.8057 11.9294 65.9796 12.785 62.4265 16.758L9.97954 76.9884C5.85742 81.6494 6.51476 88.8913 11.4698 92.5531C27.0628 104.229 44.3807 114.05 63.4225 121.509C82.3776 128.934 101.845 133.524 121.219 135.546C127.343 136.224 132.745 131.356 132.885 125.135L135.304 45.3069C135.482 40.0117 131.735 35.3047 126.441 34.5468C117.67 33.2364 108.896 30.9128 100.241 27.5222Z" fill="white" fill-opacity="0.3"/>
<path d="M101.344 28.0361C92.846 24.7071 84.9899 20.4903 77.8255 15.5086C73.4888 12.5668 67.7244 13.5196 64.1605 17.613L11.5303 79.6502C7.39481 84.4519 7.94191 91.8131 12.7826 95.4701C28.0137 107.133 44.9741 116.885 63.6696 124.209C82.2801 131.499 101.436 135.896 120.537 137.681C126.573 138.285 131.975 133.255 132.201 126.922L135.713 45.6429C135.963 40.2512 132.33 35.5135 127.114 34.8166C118.472 33.6064 109.842 31.3651 101.344 28.0361Z" fill="white" fill-opacity="0.3"/>
</svg>
