<svg width="158" height="169" viewBox="0 0 158 169" fill="none" xmlns="http://www.w3.org/2000/svg">
<path d="M123.258 60.9508C118.842 52.771 115.47 44.3441 113.105 35.7966C111.627 30.6786 106.627 27.5678 101.349 28.3049L22.4043 40.3957C16.2467 41.2904 12.0699 47.2428 13.4863 53.239C17.8455 72.2248 24.7196 90.9092 34.4351 108.905C44.1064 126.818 56.0008 142.898 69.4828 156.959C73.719 161.432 80.9871 161.206 85.1133 156.549L138.532 97.1786C142.089 93.2514 142.27 87.2379 138.719 83.2393C132.87 76.5724 127.674 69.1305 123.258 60.9508Z" fill="white" fill-opacity="0.3"/>
<path d="M123.767 62.0515C119.431 54.0204 116.159 45.7263 113.909 37.2953C112.499 32.2481 107.484 29.2513 102.119 30.0734L21.8674 43.4249C15.6087 44.4184 11.2707 50.3906 12.6029 56.3093C16.6938 75.052 23.3399 93.4523 32.8787 111.121C42.3742 128.709 54.1554 144.44 67.5812 158.143C71.7989 162.504 79.1719 162.154 83.4362 157.466L138.626 97.6949C142.3 93.7407 142.588 87.7772 139.057 83.8754C133.242 77.3687 128.103 70.0825 123.767 62.0515Z" fill="white" fill-opacity="0.3"/>
</svg>
