<svg width="128" height="151" viewBox="0 0 128 151" fill="none" xmlns="http://www.w3.org/2000/svg">
<path d="M112.954 83.7429C114.49 74.5748 117.001 65.8529 120.381 57.6535C122.356 52.7062 120.319 47.1812 115.7 44.5225L45.9585 5.60514C40.5484 2.53139 33.5972 4.66618 31.0344 10.2691C22.8207 27.9326 16.7773 46.9019 13.3997 67.0717C10.0375 87.1499 9.55602 107.145 11.5673 126.521C12.165 132.653 18.0415 136.936 24.1578 135.792L102.773 121.718C107.991 120.801 111.825 116.165 111.477 110.828C110.952 101.975 111.419 92.9109 112.954 83.7429Z" fill="white" fill-opacity="0.3"/>
<path d="M112.679 84.9236C114.186 75.9222 116.694 67.366 120.094 59.3292C122.079 54.4796 119.96 49.035 115.22 46.3906L43.6731 7.66601C38.1226 4.60816 31.032 6.65963 28.4503 12.1497C20.174 29.4565 14.125 48.0617 10.8088 67.8647C7.50771 87.5778 7.15057 107.229 9.33714 126.287C9.98942 132.319 16.0249 136.569 22.2688 135.486L102.528 122.182C107.856 121.316 111.744 116.785 111.351 111.537C110.756 102.832 111.171 93.925 112.679 84.9236Z" fill="white" fill-opacity="0.3"/>
</svg>
