<svg width="171" height="169" viewBox="0 0 171 169" fill="none" xmlns="http://www.w3.org/2000/svg">
<path d="M117.937 122.387C125.01 116.355 132.543 111.292 140.405 107.188C145.099 104.671 147.093 99.1299 145.266 94.1229L116.9 19.4654C114.735 13.632 108.039 10.7954 102.473 13.437C84.8223 21.6781 67.9934 32.3152 52.4335 45.5862C36.9444 58.7969 23.7144 73.7969 12.7915 89.9261C9.30471 95.0058 11.0494 102.065 16.4681 105.124L85.7145 144.915C90.2998 147.569 96.2177 146.486 99.3833 142.175C104.676 135.059 110.864 128.419 117.937 122.387Z" fill="white" fill-opacity="0.3"/>
<path d="M116.967 123.119C123.911 117.196 131.335 112.258 139.107 108.291C143.747 105.855 145.626 100.323 143.698 95.2494L113.825 19.5781C111.542 13.6666 104.793 10.6764 99.285 13.2195C81.8158 21.1474 65.2169 31.5019 49.9399 44.5316C34.7324 57.5021 21.819 72.3185 11.2341 88.3179C7.85377 93.3558 9.74159 100.492 15.2189 103.679L85.2287 145.118C89.865 147.881 95.7563 146.913 98.8314 142.642C103.975 135.593 110.023 129.041 116.967 123.119Z" fill="white" fill-opacity="0.3"/>
</svg>
