<svg width="42" height="42" viewBox="0 0 42 42" fill="none" xmlns="http://www.w3.org/2000/svg">
<g clip-path="url(#clip0_1323_6257)">
<path d="M41.1797 10.3084L0.820313 10.3084L0.820313 7.565C0.820313 5.2897 2.66479 3.44531 4.94 3.44531L37.0599 3.44531C39.3352 3.44531 41.1796 5.28978 41.1796 7.565L41.1796 10.3084L41.1797 10.3084Z" stroke="white" stroke-width="2" stroke-miterlimit="10" stroke-linecap="round" stroke-linejoin="round"/>
<path d="M37.06 38.5232L4.94 38.5232C2.66479 38.5232 0.820313 36.6787 0.820313 34.4034L0.820312 10.3086L41.1797 10.3086L41.1797 34.4035C41.1797 36.6787 39.3352 38.5232 37.06 38.5232Z" stroke="white" stroke-width="2" stroke-miterlimit="10" stroke-linecap="round" stroke-linejoin="round"/>
<path d="M6.20215 6.87695L7.25215 6.87695" stroke="white" stroke-width="2" stroke-miterlimit="10" stroke-linecap="round" stroke-linejoin="round"/>
<path d="M10.6279 6.87695L11.6779 6.87695" stroke="white" stroke-width="2" stroke-miterlimit="10" stroke-linecap="round" stroke-linejoin="round"/>
<path d="M15.0537 6.87695L16.1037 6.87695" stroke="white" stroke-width="2" stroke-miterlimit="10" stroke-linecap="round" stroke-linejoin="round"/>
<path d="M22.8164 6.87695L36.9961 6.87695" stroke="white" stroke-width="2" stroke-miterlimit="10" stroke-linecap="round" stroke-linejoin="round"/>
<path d="M19.3358 14.252L4.76367 14.252L4.76367 34.4029C4.76367 34.5001 4.84267 34.579 4.93979 34.579L19.3358 34.579L19.3358 14.252Z" fill="white"/>
<path d="M37.2363 14.252L22.6641 14.252" stroke="white" stroke-width="2" stroke-miterlimit="10" stroke-linecap="round" stroke-linejoin="round"/>
<path d="M37.2365 17.6172L29.9062 17.6172" stroke="white" stroke-width="2" stroke-miterlimit="10" stroke-linecap="round" stroke-linejoin="round"/>
<path d="M9.06055 19.668L15.0387 19.668" stroke="white" stroke-width="2" stroke-miterlimit="10" stroke-linecap="round" stroke-linejoin="round"/>
<path d="M9.06055 24.4707L15.0387 24.4707" stroke="white" stroke-width="2" stroke-miterlimit="10" stroke-linecap="round" stroke-linejoin="round"/>
<path d="M9.06055 29.2715L15.0387 29.2715" stroke="white" stroke-width="2" stroke-miterlimit="10" stroke-linecap="round" stroke-linejoin="round"/>
<path d="M29.9069 29.0953C31.1855 29.0953 32.222 28.0588 32.222 26.7801C32.222 25.5014 31.1855 24.4648 29.9069 24.4648C28.6283 24.4648 27.5918 25.5014 27.5918 26.7801C27.5918 28.0588 28.6283 29.0953 29.9069 29.0953Z" stroke="white" stroke-width="1.3" stroke-miterlimit="10" stroke-linecap="round" stroke-linejoin="round"/>
<path d="M27.5859 30.2465C28.8677 28.9647 30.9458 28.9647 32.2275 30.2465" stroke="white" stroke-width="1.3" stroke-miterlimit="10" stroke-linecap="round" stroke-linejoin="round"/>
<path d="M29.9064 34.6165C33.6705 34.6165 36.722 31.5648 36.722 27.8004C36.722 24.036 33.6705 20.9844 29.9064 20.9844C26.1423 20.9844 23.0908 24.036 23.0908 27.8004C23.0908 31.5648 26.1423 34.6165 29.9064 34.6165Z" stroke="white" stroke-width="2" stroke-miterlimit="10" stroke-linecap="round" stroke-linejoin="round"/>
</g>
<defs>
<clipPath id="clip0_1323_6257">
<rect width="42" height="42" fill="white"/>
</clipPath>
</defs>
</svg>
