<svg width="42" height="42" viewBox="0 0 42 42" fill="none" xmlns="http://www.w3.org/2000/svg">
<g clip-path="url(#clip0_1323_5896)">
<mask id="path-1-inside-1_1323_5896" fill="white">
<path d="M18 15.7036L18 1L24.7009 1L28.4997 5.3311L41 5.3311L41 20L31.3284 20L31.3284 15.7036"/>
</mask>
<path d="M18 15.7036L18 1L24.7009 1L28.4997 5.3311L41 5.3311L41 20L31.3284 20L31.3284 15.7036" fill="white"/>
<path d="M18 1L18 -1L16 -1L16 1L18 1ZM24.7009 1L26.2045 -0.3188L25.607 -1L24.7009 -1L24.7009 1ZM28.4997 5.3311L26.9962 6.6499L27.5936 7.3311L28.4997 7.3311L28.4997 5.3311ZM41 5.3311L43 5.3311L43 3.3311L41 3.3311L41 5.3311ZM41 20L41 22L43 22L43 20L41 20ZM31.3284 20L29.3284 20L29.3284 22L31.3284 22L31.3284 20ZM20 15.7036L20 1L16 1L16 15.7036L20 15.7036ZM18 3L24.7009 3L24.7009 -1L18 -1L18 3ZM23.1973 2.3188L26.9962 6.6499L30.0033 4.0123L26.2045 -0.3188L23.1973 2.3188ZM28.4997 7.3311L41 7.3311L41 3.3311L28.4997 3.3311L28.4997 7.3311ZM39 5.3311L39 20L43 20L43 5.3311L39 5.3311ZM41 18L31.3284 18L31.3284 22L41 22L41 18ZM33.3284 20L33.3284 15.7036L29.3284 15.7036L29.3284 20L33.3284 20Z" fill="white" mask="url(#path-1-inside-1_1323_5896)"/>
<path d="M21.2124 34.3498L20.697 34.3498L20.4362 34.7943L19.6762 36.0891L15.2317 36.0891L14.474 34.7951L14.2133 34.3499L13.6973 34.3499L3.71543 34.3499L3.71543 16.1415C3.71543 15.9991 3.83797 15.8766 3.98033 15.8766L10.7374 15.8766L18.1617 15.8766L30.927 15.8766C31.0705 15.8766 31.1919 15.9979 31.1919 16.1415L31.1919 20.0617L31.1919 34.3498L21.2124 34.3498Z" stroke="white" stroke-width="1.8"/>
<path d="M14.4999 37.1156L14.5723 37.2393L14.7156 37.2393L20.1915 37.2393L20.3347 37.2393L20.4071 37.1158L21.3554 35.5L33.8392 35.5L33.8392 38.1263C33.8392 39.5691 32.6562 40.7502 31.2129 40.7502L3.69429 40.7502C2.25124 40.7502 1.07031 39.5694 1.07031 38.1263L1.07031 35.5L13.5539 35.5L14.4999 37.1156Z" fill="white" stroke="white" stroke-width="0.5"/>
<path d="M24 2L40 2L40 6" stroke="white" stroke-width="1.8" stroke-miterlimit="10" stroke-linecap="round" stroke-linejoin="round"/>
<path d="M7.43555 18L10.7374 21.3018L14.0391 18" stroke="white" stroke-width="1.8" stroke-miterlimit="10" stroke-linecap="round" stroke-linejoin="round"/>
<path d="M11 20L11 10.1115C11 8.95006 11.7783 8 12.7276 8L18 8" stroke="white" stroke-width="1.8" stroke-miterlimit="10" stroke-linecap="round" stroke-linejoin="round"/>
</g>
<defs>
<clipPath id="clip0_1323_5896">
<rect width="42" height="42" fill="white"/>
</clipPath>
</defs>
</svg>
