<svg width="42" height="43" viewBox="0 0 42 43" fill="none" xmlns="http://www.w3.org/2000/svg">
<g clip-path="url(#clip0_5106_2622)">
<path d="M5.76172 38.1719L5.76172 41.4665" stroke="white" stroke-width="2" stroke-miterlimit="10" stroke-linecap="round" stroke-linejoin="round"/>
<path d="M9.05859 38.1719L9.05859 41.4665" stroke="white" stroke-width="2" stroke-miterlimit="10" stroke-linecap="round" stroke-linejoin="round"/>
<path d="M4.11328 41.4663L10.7026 41.4663" stroke="white" stroke-width="2" stroke-miterlimit="10" stroke-linecap="round" stroke-linejoin="round"/>
<path d="M32.9414 38.1719L32.9414 41.4665" stroke="white" stroke-width="2" stroke-miterlimit="10" stroke-linecap="round" stroke-linejoin="round"/>
<path d="M36.2383 38.1719L36.2383 41.4665" stroke="white" stroke-width="2" stroke-miterlimit="10" stroke-linecap="round" stroke-linejoin="round"/>
<path d="M31.2969 41.4663L37.8862 41.4663" stroke="white" stroke-width="2" stroke-miterlimit="10" stroke-linecap="round" stroke-linejoin="round"/>
<path d="M41.1783 29.1115L41.1783 34.8767L28 34.8767L28 29.1115C28 28.2018 28.7375 27.4644 29.6472 27.4644L39.5311 27.4644C40.4409 27.4644 41.1783 28.2018 41.1783 29.1115Z" fill="white"/>
<path d="M13.9986 29.1115L13.9986 34.8767L0.820313 34.8767L0.820313 29.1115C0.820313 28.2018 1.55777 27.4644 2.4675 27.4644L12.3514 27.4644C13.2612 27.4644 13.9986 28.2018 13.9986 29.1115Z" fill="white"/>
<path d="M31.2946 2.75412L31.2946 13.4617L10.7031 13.4617L10.7031 2.75412C10.7031 1.84439 11.4406 1.10693 12.3503 1.10693L29.6474 1.10693C30.5571 1.10693 31.2946 1.84439 31.2946 2.75412Z" fill="white"/>
<path d="M13.9986 36.5239C13.9986 37.4344 13.2612 38.1719 12.3514 38.1719L2.4675 38.1719C1.55777 38.1719 0.820313 37.4344 0.820313 36.5239C0.820313 35.5952 0.820313 29.9068 0.820313 29.1115C0.820313 28.2018 1.55777 27.4644 2.4675 27.4644L12.3514 27.4644C13.2612 27.4644 13.9986 28.2018 13.9986 29.1115C13.9986 29.8695 13.9986 35.5495 13.9986 36.5239Z" stroke="white" stroke-width="2" stroke-miterlimit="10" stroke-linecap="round" stroke-linejoin="round"/>
<path d="M41.1783 36.5239C41.1783 37.4344 40.4409 38.1719 39.5311 38.1719L29.6472 38.1719C28.7375 38.1719 28 37.4344 28 36.5239C28 35.5952 28 29.9068 28 29.1115C28 28.2018 28.7375 27.4644 29.6472 27.4644L39.5311 27.4644C40.4409 27.4644 41.1783 28.2018 41.1783 29.1115C41.1783 29.8695 41.1783 35.5495 41.1783 36.5239Z" stroke="white" stroke-width="2" stroke-miterlimit="10" stroke-linecap="round" stroke-linejoin="round"/>
<path d="M31.2946 15.9324C31.2946 16.843 30.5571 17.5804 29.6474 17.5804C26.5422 17.5804 16.3657 17.5804 12.3503 17.5804C11.4406 17.5804 10.7031 16.843 10.7031 15.9324C10.7031 14.0681 10.7031 4.38146 10.7031 2.75412C10.7031 1.84439 11.4406 1.10693 12.3503 1.10693L29.6474 1.10693C30.5571 1.10693 31.2946 1.84439 31.2946 2.75412C31.2946 4.35168 31.2946 14.6818 31.2946 15.9324Z" stroke="white" stroke-width="2" stroke-miterlimit="10" stroke-linecap="round" stroke-linejoin="round"/>
<path d="M18.1172 17.5806L18.1172 22.5221" stroke="white" stroke-width="2" stroke-miterlimit="10" stroke-linecap="round" stroke-linejoin="round"/>
<path d="M23.8828 17.5806L23.8828 22.5221" stroke="white" stroke-width="2" stroke-miterlimit="10" stroke-linecap="round" stroke-linejoin="round"/>
<path d="M15.6445 22.522C16.9614 22.522 25.0368 22.522 26.3529 22.522" stroke="white" stroke-width="2" stroke-miterlimit="10" stroke-linecap="round" stroke-linejoin="round"/>
<path d="M34.5898 13.7363C35.8285 13.7363 36.8326 14.7404 36.8326 15.9782L36.8326 24.1592" stroke="white" stroke-width="2" stroke-miterlimit="10" stroke-linecap="round" stroke-linejoin="round"/>
<path d="M38.7541 22.2373L36.8322 24.1593L34.9102 22.2373" stroke="white" stroke-width="2" stroke-miterlimit="10" stroke-linecap="round" stroke-linejoin="round"/>
<path d="M7.4107 13.7363C6.17203 13.7363 5.16797 14.7404 5.16797 15.9782L5.16797 24.1592" stroke="white" stroke-width="2" stroke-miterlimit="10" stroke-linecap="round" stroke-linejoin="round"/>
<path d="M3.24609 22.2373L5.16809 24.1593L7.09008 22.2373" stroke="white" stroke-width="2" stroke-miterlimit="10" stroke-linecap="round" stroke-linejoin="round"/>
</g>
<defs>
<clipPath id="clip0_5106_2622">
<rect width="42" height="42" fill="white" transform="translate(0 0.286621)"/>
</clipPath>
</defs>
</svg>
