<svg width="42" height="43" viewBox="0 0 42 43" fill="none" xmlns="http://www.w3.org/2000/svg">
<g clip-path="url(#clip0_5106_2682)">
<mask id="path-1-inside-1_5106_2682" fill="white">
<path d="M18 15.9907L18 1.28711L24.7009 1.28711L28.4997 5.61821L41 5.61821L41 20.2871L31.3284 20.2871L31.3284 15.9907"/>
</mask>
<path d="M18 15.9907L18 1.28711L24.7009 1.28711L28.4997 5.61821L41 5.61821L41 20.2871L31.3284 20.2871L31.3284 15.9907" fill="white"/>
<path d="M18 1.28711L18 -0.712891L16 -0.712891L16 1.28711L18 1.28711ZM24.7009 1.28711L26.2045 -0.0316908L25.607 -0.712891L24.7009 -0.712891L24.7009 1.28711ZM28.4997 5.61821L26.9962 6.93701L27.5936 7.61821L28.4997 7.61821L28.4997 5.61821ZM41 5.61821L43 5.61821L43 3.61821L41 3.61821L41 5.61821ZM41 20.2871L41 22.2871L43 22.2871L43 20.2871L41 20.2871ZM31.3284 20.2871L29.3284 20.2871L29.3284 22.2871L31.3284 22.2871L31.3284 20.2871ZM20 15.9907L20 1.28711L16 1.28711L16 15.9907L20 15.9907ZM18 3.28711L24.7009 3.28711L24.7009 -0.712891L18 -0.712891L18 3.28711ZM23.1973 2.60591L26.9962 6.93701L30.0033 4.29941L26.2045 -0.0316908L23.1973 2.60591ZM28.4997 7.61821L41 7.61821L41 3.61821L28.4997 3.61821L28.4997 7.61821ZM39 5.61821L39 20.2871L43 20.2871L43 5.61821L39 5.61821ZM41 18.2871L31.3284 18.2871L31.3284 22.2871L41 22.2871L41 18.2871ZM33.3284 20.2871L33.3284 15.9907L29.3284 15.9907L29.3284 20.2871L33.3284 20.2871Z" fill="white" mask="url(#path-1-inside-1_5106_2682)"/>
<path d="M21.2133 34.6374L20.698 34.6374L20.4371 35.0819L19.6772 36.3767L15.2326 36.3767L14.475 35.0827L14.2143 34.6375L13.6983 34.6375L3.71641 34.6375L3.71641 16.4291C3.71641 16.2867 3.83894 16.1642 3.9813 16.1642L10.7384 16.1642L18.1627 16.1642L30.928 16.1642C31.0715 16.1642 31.1929 16.2855 31.1929 16.4291L31.1929 20.3493L31.1929 34.6374L21.2133 34.6374Z" stroke="white" stroke-width="1.8"/>
<path d="M14.4999 37.4032L14.5723 37.5269L14.7156 37.5269L20.1915 37.5269L20.3347 37.5269L20.4071 37.4034L21.3554 35.7876L33.8392 35.7876L33.8392 38.4139C33.8392 39.8566 32.6562 41.0378 31.2129 41.0378L3.69429 41.0378C2.25124 41.0378 1.07031 39.857 1.07031 38.4139L1.07031 35.7876L13.5539 35.7876L14.4999 37.4032Z" fill="white" stroke="white" stroke-width="0.5"/>
<path d="M24 2.28711L40 2.28711L40 6.28711" stroke="white" stroke-width="1.8" stroke-miterlimit="10" stroke-linecap="round" stroke-linejoin="round"/>
<path d="M7.4375 18.2871L10.7393 21.5889L14.0411 18.2871" stroke="white" stroke-width="1.8" stroke-miterlimit="10" stroke-linecap="round" stroke-linejoin="round"/>
<path d="M11 20.2871L11 10.3986C11 9.23717 11.7783 8.28711 12.7276 8.28711L18 8.28711" stroke="white" stroke-width="1.8" stroke-miterlimit="10" stroke-linecap="round" stroke-linejoin="round"/>
</g>
<defs>
<clipPath id="clip0_5106_2682">
<rect width="42" height="42" fill="white" transform="translate(0 0.286621)"/>
</clipPath>
</defs>
</svg>
