<svg width="42" height="43" viewBox="0 0 42 43" fill="none" xmlns="http://www.w3.org/2000/svg">
<path d="M3.58984 31.5816L6.4479 32.5587L7.42503 29.7007" stroke="white" stroke-width="1.93818" stroke-miterlimit="10" stroke-linecap="round" stroke-linejoin="round"/>
<path d="M6.45766 32.559C4.2814 29.5249 3 25.806 3 21.7873C3 11.5699 11.2828 3.28711 21.5002 3.28711C25.5189 3.28711 29.2378 4.56851 32.2719 6.74477" stroke="white" stroke-width="1.93818" stroke-miterlimit="10" stroke-linecap="round" stroke-linejoin="round"/>
<path d="M39.4094 11.9922L36.5513 11.0151L35.5742 13.8731" stroke="white" stroke-width="1.93818" stroke-miterlimit="10" stroke-linecap="round" stroke-linejoin="round"/>
<path d="M36.5447 11.0156C38.7209 14.0497 40.0023 17.7686 40.0023 21.7873C40.0023 32.0047 31.7195 40.2875 21.5021 40.2875C17.4834 40.2875 13.7645 39.0061 10.7305 36.8298" stroke="white" stroke-width="1.93818" stroke-miterlimit="10" stroke-linecap="round" stroke-linejoin="round"/>
<path fill-rule="evenodd" clip-rule="evenodd" d="M32.0293 15.2633C32.63 16.2762 33.0839 17.3695 33.3759 18.5104L35.7553 18.6425V24.564L33.3758 24.6962C33.0838 25.837 32.63 26.9304 32.0293 27.9433L33.6195 29.7205L29.4324 33.9075L27.6549 32.3172C26.6421 32.9177 25.5488 33.3716 24.4081 33.6635L24.2759 36.0434H18.3545L18.2223 33.6639C17.0814 33.3719 15.988 32.9181 14.9752 32.3174L13.198 33.9075L9.01089 29.7205L10.6012 27.943C10.0007 26.9301 9.54682 25.8369 9.25493 24.6962L6.875 24.564V18.6425L9.25455 18.5104C9.54653 17.3695 10.0003 16.2761 10.601 15.2633L9.01099 13.4861L13.1981 9.29898L14.9756 10.8893C15.9884 10.2888 17.0816 9.8349 18.2224 9.54302L18.3546 7.16309H24.276L24.4082 9.54302C25.5489 9.8349 26.6423 10.2887 27.655 10.8892L29.4325 9.29888L33.6196 13.486L32.0293 15.2633ZM21.3151 16.1259C18.2899 16.1259 15.8377 18.578 15.8377 21.6033C15.8377 24.6285 18.2899 27.0806 21.3151 27.0806C24.3403 27.0806 26.7924 24.6284 26.7924 21.6033C26.7924 18.5781 24.3403 16.1259 21.3151 16.1259Z" fill="white"/>
<circle cx="20.3964" cy="21.7475" r="7.12299" fill="white"/>
</svg>
