<svg width="42" height="43" viewBox="0 0 42 43" fill="none" xmlns="http://www.w3.org/2000/svg">
<g clip-path="url(#clip0_5106_2650)">
<mask id="mask0_5106_2650" style="mask-type:luminance" maskUnits="userSpaceOnUse" x="4" y="4" width="34" height="39">
<path d="M4.19922 4.48711L37.7992 4.48711L37.7992 42.2871L4.19922 42.2871L4.19922 4.48711Z" fill="white"/>
</mask>
<g mask="url(#mask0_5106_2650)">
<path d="M10.6565 35.9912C12.6561 35.9912 14.2857 34.3617 14.2857 32.362C14.2857 30.3641 12.6561 28.7345 10.6565 28.7345C8.65872 28.7345 7.02734 30.3641 7.02734 32.362C7.02734 34.3617 8.65872 35.9912 10.6565 35.9912Z" stroke="white" stroke-width="1.3" stroke-miterlimit="10" stroke-linecap="round" stroke-linejoin="round"/>
<path d="M30.801 35.9902C32.8007 35.9902 34.4302 34.3607 34.4302 32.361C34.4302 30.3631 32.8007 28.7336 30.801 28.7336C28.8032 28.7336 27.1719 30.3631 27.1719 32.361C27.1719 34.3607 28.8032 35.9902 30.801 35.9902Z" stroke="white" stroke-width="1.3" stroke-miterlimit="10" stroke-linecap="round" stroke-linejoin="round"/>
<path d="M8.24277 35.0681C6.33242 35.3583 4.85547 37.0176 4.85547 39.0061L4.85547 41.6309L16.4628 41.6309L16.4628 39.0061C16.4628 37.0176 14.9877 35.3583 13.0755 35.0681" stroke="white" stroke-width="1.3" stroke-miterlimit="10" stroke-linecap="round" stroke-linejoin="round"/>
<path d="M28.3873 35.0681C26.477 35.3583 25 37.0176 25 39.0061L25 41.6309L36.6073 41.6309L36.6073 39.0061C36.6073 37.0176 35.1322 35.3583 33.22 35.0681" stroke="white" stroke-width="1.3" stroke-miterlimit="10" stroke-linecap="round" stroke-linejoin="round"/>
<path d="M31.4662 16.3465L21.9441 16.3465C20.1249 16.3465 18.6367 17.8347 18.6367 19.654C18.6367 21.4733 20.1249 22.9614 21.9441 22.9614L27.785 22.9614L31.708 25.4727L31.7564 22.9484C33.4417 22.8014 34.7736 21.3765 34.7736 19.654C34.7736 17.8347 33.2855 16.3465 31.4662 16.3465Z" stroke="white" stroke-width="1.8" stroke-miterlimit="10" stroke-linecap="round" stroke-linejoin="round"/>
<path d="M31.3806 14.9503C31.602 14.2641 31.7247 13.5202 31.7247 12.7429C31.7247 9.35625 29.4051 6.58701 26.5684 6.58701L25.198 6.58701L11.7207 6.58701C8.88398 6.58701 6.5625 9.35625 6.5625 12.7429C6.5625 15.9474 8.64209 18.6013 11.2687 18.8744L11.3449 23.5757L16.2706 18.8988L18.6348 18.8988" stroke="white" stroke-width="1.8" stroke-miterlimit="10" stroke-linecap="round" stroke-linejoin="round"/>
<path d="M22.9805 19.6515L22.9805 19.6538" stroke="white" stroke-width="1.8" stroke-miterlimit="10" stroke-linecap="round" stroke-linejoin="round"/>
<path d="M26.707 19.652L26.707 19.6543" stroke="white" stroke-width="1.8" stroke-miterlimit="10" stroke-linecap="round" stroke-linejoin="round"/>
<path d="M30.4297 19.6515L30.4297 19.6538" stroke="white" stroke-width="1.8" stroke-miterlimit="10" stroke-linecap="round" stroke-linejoin="round"/>
</g>
</g>
<defs>
<clipPath id="clip0_5106_2650">
<rect width="42" height="42" fill="white" transform="translate(0 0.287109)"/>
</clipPath>
</defs>
</svg>
