<svg width="42" height="43" viewBox="0 0 42 43" fill="none" xmlns="http://www.w3.org/2000/svg">
<g clip-path="url(#clip0_5106_2508)">
<path d="M41.1797 10.5948L0.820313 10.5948L0.820313 7.85138C0.820313 5.57608 2.66479 3.73169 4.94 3.73169L37.0599 3.73169C39.3352 3.73169 41.1796 5.57616 41.1796 7.85138L41.1796 10.5948L41.1797 10.5948Z" stroke="white" stroke-width="2" stroke-miterlimit="10" stroke-linecap="round" stroke-linejoin="round"/>
<path d="M37.06 38.8093L4.94 38.8093C2.66479 38.8093 0.820313 36.9648 0.820313 34.6895L0.820312 10.5947L41.1797 10.5947L41.1797 34.6896C41.1797 36.9648 39.3352 38.8093 37.06 38.8093Z" stroke="white" stroke-width="2" stroke-miterlimit="10" stroke-linecap="round" stroke-linejoin="round"/>
<path d="M6.20312 7.16309L7.25312 7.16309" stroke="white" stroke-width="2" stroke-miterlimit="10" stroke-linecap="round" stroke-linejoin="round"/>
<path d="M10.6289 7.16309L11.6789 7.16309" stroke="white" stroke-width="2" stroke-miterlimit="10" stroke-linecap="round" stroke-linejoin="round"/>
<path d="M15.0547 7.16309L16.1047 7.16309" stroke="white" stroke-width="2" stroke-miterlimit="10" stroke-linecap="round" stroke-linejoin="round"/>
<path d="M22.8164 7.16309L36.9961 7.16309" stroke="white" stroke-width="2" stroke-miterlimit="10" stroke-linecap="round" stroke-linejoin="round"/>
<path d="M19.3377 14.5386L4.76562 14.5386L4.76563 34.6896C4.76563 34.7867 4.84462 34.8657 4.94175 34.8657L19.3377 34.8657L19.3377 14.5386Z" fill="white"/>
<path d="M37.2363 14.5386L22.6641 14.5386" stroke="white" stroke-width="2" stroke-miterlimit="10" stroke-linecap="round" stroke-linejoin="round"/>
<path d="M37.2365 17.9045L29.9062 17.9045" stroke="white" stroke-width="2" stroke-miterlimit="10" stroke-linecap="round" stroke-linejoin="round"/>
<path d="M9.0625 19.9548L15.0407 19.9548" stroke="white" stroke-width="2" stroke-miterlimit="10" stroke-linecap="round" stroke-linejoin="round"/>
<path d="M9.0625 24.7566L15.0407 24.7566" stroke="white" stroke-width="2" stroke-miterlimit="10" stroke-linecap="round" stroke-linejoin="round"/>
<path d="M9.0625 29.5586L15.0407 29.5586" stroke="white" stroke-width="2" stroke-miterlimit="10" stroke-linecap="round" stroke-linejoin="round"/>
<path d="M29.9049 29.382C31.1835 29.382 32.22 28.3454 32.22 27.0667C32.22 25.788 31.1835 24.7515 29.9049 24.7515C28.6263 24.7515 27.5898 25.788 27.5898 27.0667C27.5898 28.3454 28.6263 29.382 29.9049 29.382Z" stroke="white" stroke-width="1.3" stroke-miterlimit="10" stroke-linecap="round" stroke-linejoin="round"/>
<path d="M27.5859 30.5327C28.8677 29.2508 30.9458 29.2508 32.2275 30.5327" stroke="white" stroke-width="1.3" stroke-miterlimit="10" stroke-linecap="round" stroke-linejoin="round"/>
<path d="M29.9054 34.9026C33.6695 34.9026 36.721 31.851 36.721 28.0866C36.721 24.3222 33.6695 21.2705 29.9054 21.2705C26.1413 21.2705 23.0898 24.3222 23.0898 28.0866C23.0898 31.851 26.1413 34.9026 29.9054 34.9026Z" stroke="white" stroke-width="2" stroke-miterlimit="10" stroke-linecap="round" stroke-linejoin="round"/>
</g>
<defs>
<clipPath id="clip0_5106_2508">
<rect width="42" height="42" fill="white" transform="translate(0 0.286377)"/>
</clipPath>
</defs>
</svg>
