<svg width="594" height="443" viewBox="0 0 594 443" fill="none" xmlns="http://www.w3.org/2000/svg">
<g clip-path="url(#clip0_3603_3565)">
<path d="M594 389.309H0V389.606H594V389.309Z" fill="#EBEBEB"/>
<path d="M534.48 408.438H508.725V408.736H534.48V408.438Z" fill="#EBEBEB"/>
<path d="M409.468 402.268H368.945V402.565H409.468V402.268Z" fill="#EBEBEB"/>
<path d="M524.05 397.405H471.148V397.703H524.05V397.405Z" fill="#EBEBEB"/>
<path d="M205.547 403.397H192.312V403.695H205.547V403.397Z" fill="#EBEBEB"/>
<path d="M181.728 403.397H136.121V403.695H181.728V403.397Z" fill="#EBEBEB"/>
<path d="M111.683 398.38H78.7754V398.677H111.683V398.38Z" fill="#EBEBEB"/>
<path d="M281.567 336.283H52.1643C48.4221 336.283 45.3809 333.24 45.3809 329.495V6.78868C45.3809 3.04361 48.4221 0 52.1643 0H281.567C285.309 0 288.351 3.04361 288.351 6.78868V329.495C288.351 333.24 285.309 336.283 281.567 336.283ZM52.1643 0.297228C48.5885 0.297228 45.6779 3.21006 45.6779 6.78868V329.495C45.6779 333.073 48.5885 335.986 52.1643 335.986H281.567C285.143 335.986 288.054 333.073 288.054 329.495V6.78868C288.054 3.21006 285.143 0.297228 281.567 0.297228H52.1643Z" fill="#EBEBEB"/>
<path d="M538.532 336.283H309.129C305.387 336.283 302.346 333.24 302.346 329.495V6.78868C302.346 3.04361 305.387 0 309.129 0H538.532C542.274 0 545.315 3.04361 545.315 6.78868V329.495C545.315 333.24 542.274 336.283 538.532 336.283ZM309.129 0.297228C305.553 0.297228 302.643 3.21006 302.643 6.78868V329.495C302.643 333.073 305.553 335.986 309.129 335.986H538.532C542.108 335.986 545.018 333.073 545.018 329.495V6.78868C545.018 3.21006 542.108 0.297228 538.532 0.297228H309.129Z" fill="#EBEBEB"/>
<path d="M256.691 173.498L257.226 157.876L247.639 154.737C247.246 149.399 246.355 144.132 245.084 139.043L253.21 133.051L247.698 118.38L237.647 119.188C235.248 114.445 232.432 109.927 229.284 105.694L234.487 97.0033L223.783 85.5779L214.802 90.179C210.751 86.7431 206.486 83.6162 201.924 80.8698L203.374 70.8949L189.118 64.4153L182.584 72.0719C177.606 70.455 172.45 69.2423 167.116 68.4457L164.692 58.661L149.035 58.126L145.946 67.7205C140.564 68.1604 135.349 69.0045 130.264 70.2766L124.229 62.1921L109.569 67.6729L110.377 77.7311C105.637 80.1684 101.122 82.9861 96.8932 86.1367L88.2446 80.9293L76.7804 91.5938L81.3779 100.63C77.9446 104.636 74.8202 108.952 72.1115 113.517L62.1442 112.019L55.634 126.286L63.3322 132.825C61.7165 137.807 60.4691 143.002 59.7088 148.305L49.8959 150.778L49.3613 166.4L58.9841 169.539C59.3762 174.913 60.2672 180.144 61.5383 185.221L53.4124 191.213L58.9247 205.884L68.9752 205.075C71.375 209.819 74.1905 214.337 77.3387 218.569L72.1353 227.26L82.8392 238.686L91.8204 234.085C95.824 237.521 100.136 240.648 104.698 243.406L103.201 253.381L117.457 259.86L124.027 252.204C129.005 253.821 134.161 255.033 139.495 255.83L141.918 265.615L157.576 266.15L160.665 256.555C166.035 256.115 171.262 255.271 176.335 253.999L182.322 262.084L196.982 256.603L196.21 246.545C200.95 244.107 205.417 241.29 209.694 238.127L218.342 243.334L229.807 232.67L225.209 223.634C228.642 219.628 231.767 215.312 234.475 210.746L244.443 212.244L250.953 197.978L243.255 191.439C244.87 186.457 246.118 181.297 246.878 175.959L256.655 173.486L256.691 173.498ZM151.197 224.11C117.006 222.933 90.2404 194.244 91.4047 160.028C92.5808 125.775 121.247 98.9769 155.438 100.154C189.628 101.331 216.394 130.019 215.23 164.272C214.054 198.489 185.387 225.275 151.197 224.11Z" fill="#EBEBEB"/>
<path d="M523.861 121.828L527.793 118.154L526.225 115.051C527.425 113.648 528.494 112.15 529.421 110.604L532.866 111.128L535.1 106.205L532.45 103.947C533.021 102.211 533.436 100.415 533.698 98.6202L537.084 97.7761L537.262 92.3784L533.947 91.3084C533.805 89.4775 533.52 87.6822 533.08 85.8989L535.872 83.8183L533.971 78.7654L530.514 79.0388C529.694 77.4338 528.732 75.8763 527.627 74.3783L529.421 71.406L525.738 67.4588L522.649 69.0401C521.236 67.8393 519.751 66.7693 518.206 65.8419L518.705 62.3941L513.799 60.147L511.542 62.7983C509.795 62.2395 508.001 61.8234 506.207 61.5618L505.364 58.1853L499.97 57.9951L498.889 61.3241C497.072 61.4667 495.266 61.7521 493.484 62.2039L491.417 59.4099L486.356 61.3003L486.641 64.7719C485.037 65.5923 483.457 66.5553 481.984 67.661L478.99 65.8657L475.058 69.5394L476.638 72.6544C475.426 74.0573 474.369 75.5553 473.442 77.1009L469.997 76.5778L467.764 81.4999L470.413 83.7588C469.843 85.4946 469.427 87.2899 469.166 89.0851L465.78 89.9293L465.602 95.3269L468.916 96.3969C469.059 98.216 469.344 100.023 469.783 101.806L466.992 103.875L468.892 108.928L472.361 108.666C473.181 110.272 474.143 111.829 475.248 113.327L473.454 116.299L477.137 120.246L480.226 118.665C481.64 119.866 483.125 120.936 484.669 121.863L484.158 125.299L489.065 127.546L491.322 124.907C493.068 125.466 494.85 125.87 496.656 126.143L497.499 129.52L502.893 129.71L503.974 126.381C505.792 126.239 507.597 125.953 509.379 125.501L511.446 128.295L516.507 126.405L516.222 122.933C517.826 122.113 519.394 121.162 520.879 120.044L523.861 121.828ZM495.801 99.0839C492.902 95.9808 493.068 91.1063 496.169 88.2172C499.269 85.3163 504.14 85.4827 507.039 88.5858C509.938 91.6889 509.771 96.5634 506.659 99.4643C503.558 102.365 498.687 102.199 495.801 99.0958V99.0839Z" fill="#EBEBEB"/>
<path d="M380.148 282.224L367.864 273.735V273.711C366.653 269.241 364.978 264.949 362.922 260.906L366.071 248.542L348.251 229.448L335.705 231.742C331.82 229.424 327.651 227.45 323.291 225.941C323.291 225.941 323.267 225.941 323.255 225.941L315.628 213.088L289.54 212.197L281.057 224.49C281.057 224.49 281.022 224.49 281.01 224.49C276.555 225.703 272.254 227.379 268.227 229.424L255.884 226.273L236.804 244.107L239.097 256.638C236.733 260.574 234.808 264.747 233.3 269.11L220.457 276.743L219.566 302.863L231.862 311.364C233.074 315.858 234.702 320.15 236.792 324.228L233.656 336.557L251.476 355.651L263.938 353.368C267.87 355.698 272.052 357.66 276.472 359.182L284.087 372.01L310.175 372.902L318.657 360.62C323.172 359.408 327.472 357.731 331.547 355.675L343.843 358.813L362.922 340.98L360.63 328.448C362.994 324.513 364.918 320.34 366.427 315.965L379.269 308.332L380.16 282.212L380.148 282.224ZM298.83 321.921C282.614 321.363 269.938 307.738 270.496 291.545C271.054 275.316 284.621 262.63 300.849 263.189C317.066 263.748 329.742 277.325 329.183 293.566C328.625 309.747 315.058 322.48 298.83 321.921Z" fill="#EBEBEB"/>
<path d="M408.137 208.059C408.137 208.059 408.077 208.059 408.053 208.059L387.477 207.358C386.622 207.334 385.838 206.871 385.41 206.133L379.874 196.8C376.928 195.73 374.029 194.387 371.225 192.782L362.304 194.411C361.46 194.565 360.605 194.28 360.023 193.65L345.969 178.598C345.386 177.968 345.161 177.088 345.375 176.268L347.62 167.458C346.254 164.664 345.113 161.692 344.222 158.577L335.277 152.395C334.576 151.907 334.16 151.099 334.195 150.243L334.896 129.651C334.92 128.795 335.383 128.01 336.12 127.582L345.47 122.03C346.574 118.998 347.917 116.097 349.473 113.41L347.834 104.458C347.679 103.614 347.964 102.758 348.594 102.175L363.646 88.1102C364.276 87.5277 365.155 87.3018 365.974 87.5158L374.801 89.7747C377.664 88.3837 380.623 87.2423 383.652 86.3625L389.83 77.41C390.317 76.7086 391.113 76.2687 391.98 76.3281L412.556 77.0296C413.411 77.0534 414.195 77.517 414.623 78.2542L420.171 87.6109C423.117 88.6928 426.004 90.0363 428.76 91.6175L437.73 89.9768C438.573 89.8223 439.429 90.1076 440.011 90.7377L454.065 105.801C454.647 106.431 454.873 107.311 454.659 108.131L452.401 116.977C453.791 119.842 454.932 122.803 455.811 125.834L464.745 132.017C465.446 132.504 465.85 133.313 465.826 134.169L465.125 154.761C465.101 155.617 464.638 156.401 463.901 156.829L454.552 162.381C453.447 165.413 452.104 168.302 450.548 170.989L452.188 179.954C452.342 180.798 452.057 181.654 451.427 182.236L436.387 196.289C435.758 196.872 434.89 197.098 434.059 196.884L425.268 194.637C422.369 196.04 419.387 197.181 416.369 198.049L410.204 206.989C409.729 207.667 408.968 208.071 408.137 208.071V208.059ZM389.022 202.376L406.854 202.983L412.758 194.423C413.091 193.935 413.601 193.579 414.172 193.424C417.451 192.544 420.718 191.296 423.854 189.703C423.854 189.703 423.854 189.703 423.866 189.703C424.388 189.441 425.006 189.37 425.6 189.524L433.964 191.652L447.008 179.466L445.452 170.942C445.345 170.335 445.452 169.717 445.772 169.194C447.495 166.341 448.956 163.202 450.109 159.885C450.299 159.29 450.703 158.803 451.225 158.494L460.159 153.179L460.765 135.334L452.211 129.425C451.76 129.116 451.427 128.664 451.261 128.153C451.237 128.093 451.225 128.022 451.202 127.951C450.311 124.669 449.063 121.447 447.507 118.38C447.234 117.833 447.162 117.215 447.317 116.62L449.455 108.203L437.278 95.1486L428.737 96.7179C428.143 96.8249 427.525 96.7179 427.002 96.4088C424.032 94.6373 420.896 93.175 417.676 92.0455C417.498 91.9861 417.308 91.9028 417.154 91.7958C416.809 91.5818 416.524 91.2846 416.31 90.9398L411 81.9873L393.168 81.381L387.263 89.9411C386.907 90.4524 386.384 90.8091 385.79 90.9517C382.488 91.8553 379.28 93.0918 376.227 94.6492C375.68 94.9227 375.063 94.994 374.469 94.8395L366.058 92.6994L353.013 104.886L354.57 113.41C354.665 113.945 354.593 114.504 354.344 114.98C354.308 115.051 354.273 115.11 354.225 115.182C352.503 118.047 351.041 121.198 349.889 124.527C349.699 125.085 349.307 125.561 348.796 125.858L339.85 131.173L339.244 149.018L347.81 154.939C348.297 155.272 348.653 155.771 348.808 156.354C349.735 159.778 350.97 163.024 352.503 166.008C352.586 166.174 352.657 166.364 352.705 166.543C352.8 166.947 352.8 167.363 352.705 167.767L350.566 176.149L362.743 189.203L371.225 187.646C371.819 187.539 372.437 187.646 372.948 187.955C375.977 189.738 379.126 191.213 382.321 192.318C382.903 192.497 383.402 192.889 383.711 193.424L389.01 202.365L389.022 202.376ZM400.034 179.835C399.595 179.835 399.155 179.835 398.716 179.811C377.985 179.098 361.71 161.644 362.41 140.91C363.123 120.163 380.587 103.875 401.282 104.577C422.012 105.29 438.288 122.743 437.587 143.478C437.243 153.512 433.013 162.821 425.671 169.681C418.65 176.256 409.586 179.823 400.023 179.823L400.034 179.835ZM399.987 109.582C382.523 109.582 368.03 123.492 367.424 141.088C366.806 159.064 380.92 174.187 398.882 174.806C407.59 175.103 415.882 171.988 422.25 166.031C428.606 160.087 432.277 152.014 432.574 143.323C433.192 125.347 419.078 110.224 401.116 109.606C400.735 109.594 400.355 109.582 399.987 109.582Z" fill="#EBEBEB"/>
<path d="M455.528 59.8855L447.01 57.5909L444.717 49.0664L448.055 45.7256L451.572 53.0255L458.866 56.5447L455.528 59.8855Z" fill="#E0E0E0"/>
<path d="M456.051 54.1787C457.607 52.6213 457.607 50.0889 456.051 48.5433C454.495 46.9858 451.976 46.9977 450.432 48.5433L454.673 42.1826L460.363 45.0598L461.611 51.04L456.063 54.1787H456.051Z" fill="#E0E0E0"/>
<path d="M447.377 46.4031L453.626 40.1494L462.144 42.444L464.437 50.9685L458.188 57.2222L449.67 54.9276L447.377 46.4031ZM458.722 51.5154C460.279 49.9579 460.279 47.4255 458.722 45.88C457.166 44.3225 454.648 44.3344 453.103 45.88C451.547 47.4374 451.547 49.946 453.103 51.4916C454.659 53.0491 457.178 53.061 458.722 51.4916V51.5154Z" fill="#F0F0F0"/>
<path d="M107.183 287.431L111.756 286.195L112.98 281.617L111.198 279.834L109.309 283.746L105.389 285.636L107.183 287.431Z" fill="#E0E0E0"/>
<path d="M106.898 284.364C106.066 283.531 106.066 282.176 106.898 281.332C107.729 280.488 109.084 280.5 109.915 281.332L107.646 277.92L104.593 279.465L103.928 282.675L106.898 284.364Z" fill="#E0E0E0"/>
<path d="M111.554 280.191L108.204 276.838L103.63 278.062L102.406 282.64L105.756 285.992L110.33 284.768L111.554 280.191ZM105.471 282.937C104.64 282.105 104.64 280.749 105.471 279.905C106.303 279.061 107.657 279.073 108.489 279.905C109.32 280.738 109.32 282.081 108.489 282.925C107.657 283.769 106.303 283.769 105.471 282.925V282.937Z" fill="#F0F0F0"/>
<path d="M90.7141 36.5118L94.5039 40.3044C95.4899 41.2912 97.1056 41.2912 98.0916 40.3044C99.0777 39.3176 99.0777 37.7007 98.0916 36.7139L94.3019 32.9212C93.3159 31.9345 91.7002 31.9345 90.7141 32.9212C89.7281 33.908 89.7281 35.525 90.7141 36.5118Z" fill="#F0F0F0"/>
<path d="M88.0416 27.0478C90.964 26.0015 94.136 27.3688 95.122 30.1152C96.1081 32.8616 94.5399 35.9408 91.6174 36.999C88.695 38.0452 85.523 36.678 84.537 33.9316C83.5509 31.1852 85.1191 28.1059 88.0416 27.0478Z" fill="#E0E0E0"/>
<path d="M83.9029 33.2923L84.4531 34.8252L95.7454 30.7655L95.1952 29.2326L83.9029 33.2923Z" fill="#F0F0F0"/>
<path d="M297 443C424.214 443 527.341 436.974 527.341 429.541C527.341 422.109 424.214 416.083 297 416.083C169.786 416.083 66.6582 422.109 66.6582 429.541C66.6582 436.974 169.786 443 297 443Z" fill="#F5F5F5"/>
<path d="M103.023 78.0996C101.835 72.8684 102.37 68.4576 104.615 64.8789C106.872 61.3003 110.591 58.9225 115.794 57.7336C121.128 56.5209 125.56 57.0202 129.1 59.2316C132.64 61.443 134.992 65.1286 136.168 70.2885C137.024 74.0336 137.083 77.2555 136.37 79.9424C135.658 82.6294 134.256 84.9121 132.177 86.7906C130.098 88.6691 127.282 90.0125 123.718 90.821C120.107 91.6413 116.982 91.7483 114.357 91.1301C111.731 90.5119 109.391 89.1327 107.359 86.9689C105.316 84.8051 103.879 81.8566 103.023 78.1115V78.0996ZM112.931 75.8883C113.668 79.1221 114.796 81.3216 116.317 82.451C117.838 83.5924 119.631 83.9253 121.71 83.4497C123.837 82.9623 125.322 81.9042 126.177 80.2516C127.033 78.599 127.045 75.9834 126.237 72.3929C125.548 69.373 124.443 67.3043 122.91 66.1867C121.378 65.0692 119.572 64.7482 117.481 65.2237C115.485 65.6755 114.036 66.7455 113.157 68.4338C112.266 70.122 112.195 72.6069 112.943 75.8645L112.931 75.8883Z" fill="#263238"/>
<path d="M140.884 74.176C140.077 70.6331 140.611 67.4349 142.476 64.5934C144.342 61.7519 147.312 59.8735 151.374 58.9461C156.02 57.888 159.845 58.4349 162.827 60.5987C165.227 62.3345 166.795 64.7955 167.519 67.9818C168.327 71.5604 167.816 74.7586 165.963 77.5763C164.11 80.394 161.092 82.2844 156.911 83.2355C153.18 84.0797 149.949 83.83 147.216 82.4509C143.854 80.7507 141.74 77.9925 140.873 74.1879L140.884 74.176ZM149.794 72.1311C150.27 74.1998 151.03 75.6384 152.099 76.435C153.156 77.2315 154.333 77.4931 155.592 77.2078C156.875 76.9105 157.813 76.1853 158.419 75.0202C159.025 73.855 159.073 72.1906 158.586 70.0386C158.122 68.0294 157.374 66.6146 156.317 65.8299C155.259 65.0333 154.119 64.7718 152.895 65.0571C151.6 65.3543 150.638 66.0915 150.02 67.2923C149.402 68.4812 149.319 70.0981 149.794 72.143V72.1311Z" fill="#263238"/>
<path d="M176.513 87.5154L169.23 55.4386L177.558 53.5482L178.342 56.9842C179.162 55.2841 180.006 54.0595 180.849 53.3342C181.99 52.3593 183.344 51.6817 184.924 51.325C188.025 50.6235 190.698 51.2655 192.931 53.251C195.165 55.2365 196.685 57.9829 197.481 61.4902C198.36 65.3541 198.099 68.5166 196.721 70.9658C195.331 73.4268 193.228 74.9724 190.401 75.6144C189.034 75.9235 187.728 75.9711 186.492 75.769C185.257 75.555 184.092 75.0913 182.988 74.378L185.506 85.4705L176.525 87.5154H176.513ZM180.802 65.0926C181.217 66.9354 181.918 68.2075 182.892 68.9209C183.867 69.6342 184.948 69.8601 186.124 69.5866C187.157 69.3489 187.93 68.7306 188.44 67.7201C188.951 66.7095 188.963 65.1758 188.5 63.1428C188.072 61.2643 187.395 59.9684 186.468 59.2431C185.542 58.5298 184.556 58.292 183.498 58.5298C182.358 58.7913 181.514 59.4452 180.956 60.5153C180.398 61.5734 180.35 63.1071 180.802 65.1045V65.0926Z" fill="#263238"/>
<path d="M201.282 65.8062L209.919 62.9647C210.525 63.9277 211.202 64.5697 211.962 64.867C212.722 65.1642 213.649 65.1999 214.742 64.9502C215.942 64.6767 216.809 64.2131 217.344 63.5592C217.771 63.0598 217.914 62.5367 217.783 61.966C217.641 61.324 217.189 60.9079 216.441 60.7058C215.906 60.5631 214.564 60.5512 212.402 60.6582C209.194 60.8247 206.925 60.8128 205.618 60.6226C204.311 60.4323 203.123 59.8854 202.054 58.9819C200.985 58.0783 200.284 56.925 199.975 55.5221C199.631 53.9884 199.773 52.5736 200.415 51.2658C201.056 49.958 202.09 48.8523 203.527 47.9488C204.965 47.0452 206.996 46.2962 209.61 45.7017C212.378 45.0716 214.469 44.8219 215.883 44.9408C217.296 45.0597 218.544 45.4758 219.625 46.1535C220.706 46.8431 221.716 47.8774 222.642 49.2685L214.398 52.0148C214.005 51.3253 213.518 50.8616 212.936 50.6238C212.128 50.3147 211.237 50.279 210.24 50.5049C209.23 50.7308 208.541 51.0756 208.161 51.5393C207.78 52.003 207.65 52.4904 207.768 53.0016C207.899 53.5723 208.291 53.929 208.933 54.0954C209.586 54.25 210.905 54.2262 212.913 54.0122C215.942 53.6793 218.259 53.6437 219.827 53.9052C221.407 54.1787 222.702 54.7731 223.723 55.7124C224.745 56.6516 225.398 57.7811 225.695 59.1007C226.004 60.4442 225.885 61.8352 225.375 63.2857C224.852 64.7362 223.806 66.0321 222.238 67.1853C220.67 68.3267 218.377 69.2422 215.384 69.9317C211.142 70.8947 207.982 70.978 205.915 70.1814C203.836 69.3848 202.292 67.9225 201.282 65.8062Z" fill="#263238"/>
<path d="M230.293 36.3925L240.046 36.333L240.094 43.8231L238.3 58.8866L232.265 58.9223L230.34 43.8826L230.293 36.3925ZM230.768 61.2288L239.868 61.1812L239.916 69.2302L230.816 69.2777L230.768 61.2288Z" fill="#263238"/>
<path d="M152.872 138.663C152.801 138.663 152.73 138.651 152.658 138.627C147.312 136.558 144.117 134.525 142.454 132.1C141.242 132.338 139.899 132.183 138.616 131.577C137.369 130.982 136.169 129.948 135.314 128.462C134.506 129.08 133.52 129.246 132.427 128.913C131.215 128.533 129.968 127.522 128.922 126.048C128.257 126.524 127.58 126.595 127.081 126.559C123.552 126.274 118.765 119.236 118.42 111.734C118.408 111.401 118.658 111.127 118.991 111.116C119.311 111.092 119.596 111.353 119.608 111.686C119.929 118.808 124.491 125.157 127.176 125.371C127.615 125.418 127.972 125.275 128.281 125.038C126.665 122.208 125.833 118.166 127.069 113.85C128.091 110.283 128.994 108.88 130.075 109.142C132.118 109.653 131.857 117.429 130.764 122.565C130.514 123.73 130.158 124.562 129.754 125.157C130.692 126.548 131.797 127.475 132.771 127.784C133.639 128.057 134.28 127.832 134.755 127.368C133.817 125.061 133.627 121.935 134.898 117.928C136.561 112.661 137.238 112.518 137.642 112.435C137.927 112.376 138.212 112.471 138.402 112.697C139.495 113.933 138.189 122.113 136.811 126.155C136.632 126.678 136.407 127.142 136.145 127.534C136.882 128.985 137.975 129.972 139.103 130.507C140.018 130.947 140.957 131.101 141.8 131.018C141.693 130.792 141.598 130.566 141.515 130.328C140.577 127.772 141.028 124.824 142.917 121.316C144.176 118.986 145.198 117.904 146.136 117.904C146.421 117.904 146.932 118.011 147.312 118.689C148.346 120.603 147.598 126.916 145.554 130.043C145.067 130.78 144.402 131.339 143.63 131.707C145.222 133.8 148.239 135.643 153.074 137.521C153.383 137.64 153.538 137.985 153.419 138.294C153.324 138.532 153.098 138.674 152.86 138.674L152.872 138.663ZM146.16 119.081C146.16 119.081 145.483 119.081 143.986 121.875C142.263 125.061 141.836 127.689 142.644 129.912C142.739 130.186 142.857 130.447 143 130.709C143.63 130.435 144.176 129.995 144.568 129.401C146.231 126.857 147.027 121.625 146.41 119.581C146.279 119.164 146.148 119.093 146.148 119.093L146.16 119.081ZM137.642 114.076C137.333 114.658 136.822 115.835 136.05 118.273C135.029 121.495 135.029 124.075 135.599 126.06C135.634 125.965 135.67 125.858 135.706 125.763C137.108 121.673 137.785 116.049 137.642 114.076ZM129.813 110.331C129.611 110.521 129.041 111.27 128.209 114.159C127.116 117.976 127.794 121.459 129.077 123.968C129.326 123.456 129.492 122.862 129.611 122.303C130.847 116.466 130.49 111.187 129.813 110.343V110.331Z" fill="#263238"/>
<path d="M198.041 200.973C196.235 200.973 194.323 200.557 192.624 199.559C192.339 199.392 192.244 199.024 192.41 198.75C192.576 198.465 192.945 198.37 193.218 198.536C197.459 201.021 202.936 199.285 204.064 197.478C204.195 197.264 204.314 196.991 204.242 196.681C202.567 196.86 200.5 196.42 198.148 194.934C195.13 193.043 194.893 192.485 194.905 192.033C194.905 191.771 195.071 191.533 195.309 191.415C196.497 190.82 201.855 193.281 204.088 194.755C204.385 194.946 204.623 195.16 204.825 195.374C205.811 195.136 206.583 194.625 207.082 194.006C207.426 193.59 207.664 193.127 207.783 192.675C207.7 192.675 207.628 192.699 207.545 192.699C205.644 192.889 203.743 192.068 201.712 190.202C200.322 188.906 199.776 188.026 199.954 187.313C200.013 187.087 200.203 186.683 200.809 186.54C202.449 186.136 206.512 187.86 208.163 189.679C208.531 190.083 208.792 190.57 208.923 191.082C210.468 190.356 212.119 188.716 214.055 186.005C214.245 185.743 214.614 185.672 214.887 185.862C215.148 186.053 215.22 186.421 215.029 186.695C212.784 189.833 210.919 191.617 209.03 192.342C208.959 193.174 208.614 194.03 207.997 194.767C207.391 195.493 206.512 196.111 205.407 196.444C205.525 196.979 205.407 197.549 205.074 198.096C204.076 199.713 201.201 200.973 198.041 200.973ZM196.984 192.722C197.388 193.02 197.958 193.412 198.778 193.923C200.393 194.934 201.831 195.397 203.054 195.493C201.082 194.268 198.516 193.186 196.984 192.722ZM201.13 187.67C201.201 187.86 201.463 188.347 202.52 189.322C204.29 190.951 205.894 191.688 207.426 191.51C207.557 191.498 207.676 191.474 207.806 191.45C207.723 191.094 207.545 190.761 207.296 190.463C205.621 188.633 201.95 187.467 201.142 187.658L201.13 187.67Z" fill="#263238"/>
<path d="M213.77 199.345L195.261 202.709L178.45 110.914L142.739 117.405L84.5391 220.84L90.7879 254.974L165.442 241.408L170.55 269.324L206.262 262.833L201.153 234.917L219.662 231.552L213.77 199.357V199.345ZM120.096 216.37L150.936 162.191L159.537 209.201L120.096 216.37Z" fill="url(#paint0_linear_3603_3565)"/>
<path d="M362.853 104.672C362.164 98.3348 360.892 92.6993 359.051 87.7653C357.21 82.8432 354.442 78.0044 350.747 73.2725C347.052 68.5406 342.015 64.427 335.659 60.9435C329.292 57.46 320.892 55.0346 310.45 53.6793C288.721 50.8497 271.781 54.7017 259.627 65.2593C247.474 75.8168 239.479 96.0283 235.63 125.906C234.062 138.056 233.681 149.291 234.465 159.599C235.25 169.919 237.15 178.206 240.144 184.483C244.243 193.305 250.04 200.343 257.548 205.61C265.045 210.877 275.321 214.361 288.377 216.061C311.662 219.092 328.911 214.622 340.138 202.638C351.365 190.654 358.813 170.407 362.484 141.885C364.124 129.163 364.243 116.751 362.865 104.648L362.853 104.672Z" fill="url(#paint1_linear_3603_3565)"/>
<path d="M299.104 203.874C296.253 203.779 293.212 203.518 290.063 203.113C279.193 201.699 270.77 198.94 265.056 194.922C259.413 190.963 255.136 185.743 252 178.979L251.94 178.86C249.66 174.08 248.163 167.268 247.509 158.612C246.785 149.232 247.153 138.793 248.602 127.582C252.843 94.6253 261.599 80.8696 268.204 75.1391C275.902 68.4574 286.286 65.4375 299.959 65.9012C302.763 65.9963 305.733 66.246 308.774 66.6502C317.554 67.7916 324.492 69.7414 329.41 72.4283C334.174 75.032 337.892 78.0281 340.47 81.3333C343.321 84.9951 345.46 88.6926 346.826 92.3545C348.275 96.2422 349.309 100.867 349.879 106.098C351.15 117.167 351.02 128.628 349.535 140.244C346.244 165.853 339.876 183.841 330.622 193.721C323.755 201.057 313.455 204.374 299.128 203.886L299.104 203.874Z" fill="#263238"/>
<path d="M322.354 105.016L322.509 100.51L319.74 99.6068C319.622 98.0731 319.372 96.5513 319.004 95.089L321.344 93.365L319.752 89.1325L316.854 89.3703C316.165 88.003 315.357 86.7071 314.442 85.4826L315.939 82.974L312.85 79.6807L310.26 81.0123C309.096 80.0255 307.86 79.1219 306.554 78.3253L306.969 75.4481L302.859 73.5816L300.982 75.7929C299.544 75.3293 298.059 74.9845 296.527 74.7467L295.826 71.929L291.312 71.7744L290.421 74.5446C288.876 74.6754 287.367 74.9131 285.906 75.2817L284.172 72.9514L279.942 74.5327L280.18 77.4336C278.814 78.1351 277.519 78.9435 276.295 79.859L273.801 78.361L270.498 81.4403L271.828 84.044C270.842 85.1972 269.94 86.4456 269.155 87.7534L266.28 87.3254L264.403 91.439L266.625 93.3175C266.162 94.7561 265.793 96.2541 265.58 97.7759L262.752 98.4892L262.598 102.995L265.378 103.899C265.496 105.444 265.746 106.954 266.114 108.417L263.774 110.141L265.366 114.373L268.264 114.135C268.953 115.503 269.761 116.798 270.676 118.023L269.179 120.532L272.268 123.825L274.858 122.493C276.01 123.48 277.258 124.384 278.564 125.18L278.137 128.057L282.247 129.924L284.136 127.713C285.574 128.176 287.059 128.521 288.591 128.759L289.292 131.577L293.806 131.731L294.697 128.961C296.242 128.83 297.751 128.592 299.212 128.224L300.934 130.554L305.164 128.973L304.938 126.072C306.304 125.371 307.599 124.562 308.823 123.647L311.318 125.145L314.62 122.065L313.29 119.462C314.276 118.308 315.179 117.06 315.963 115.752L318.838 116.18L320.715 112.067L318.493 110.188C318.956 108.75 319.313 107.263 319.539 105.73L322.354 105.016ZM291.941 119.604C282.081 119.271 274.371 110.997 274.703 101.129C275.036 91.2488 283.305 83.5327 293.165 83.8656C303.025 84.1985 310.735 92.4733 310.403 102.353C310.07 112.221 301.802 119.937 291.941 119.604Z" fill="url(#paint2_linear_3603_3565)"/>
<path opacity="0.3" d="M341.101 187.741L341.421 184.709L339.604 183.96C339.604 182.914 339.509 181.88 339.33 180.881L340.994 179.823L340.15 176.886H338.178C337.774 175.947 337.311 175.02 336.752 174.152L337.881 172.535L335.968 170.157L334.151 170.918C333.426 170.193 332.642 169.527 331.787 168.932L332.226 166.994L329.553 165.52L328.151 166.935C327.189 166.531 326.203 166.234 325.205 165.996L324.872 164.046L321.843 163.701L321.095 165.52C320.049 165.52 319.027 165.627 318.018 165.806L316.96 164.129L314.026 164.985V166.959C313.099 167.363 312.173 167.827 311.294 168.385L309.678 167.244L307.302 169.158L308.062 170.977C307.361 171.703 306.672 172.487 306.078 173.343L304.166 172.915L302.692 175.59L304.094 176.969C303.702 177.944 303.393 178.919 303.156 179.93L301.207 180.251L300.887 183.283L302.704 184.043C302.704 185.078 302.799 186.1 302.978 187.111L301.303 188.169L302.158 191.106H304.13C304.534 192.045 304.997 192.972 305.556 193.84L304.415 195.457L306.316 197.847L308.145 197.074C308.87 197.799 309.654 198.465 310.51 199.059L310.07 200.997L312.743 202.472L314.145 201.069C315.107 201.461 316.093 201.758 317.091 201.996L317.424 203.946L320.453 204.291L321.202 202.46C322.235 202.46 323.269 202.353 324.278 202.174L325.336 203.851L328.258 202.995V201.021C329.197 200.617 330.123 200.153 331.003 199.594L332.606 200.736L334.994 198.833L334.222 197.014C334.947 196.289 335.612 195.505 336.218 194.649L338.131 195.077L339.604 192.401L338.202 191.022C338.594 190.047 338.891 189.073 339.128 188.074L341.089 187.741H341.101ZM325.811 186.564C324.397 189.132 321.178 190.083 318.612 188.668C316.046 187.253 315.119 184.032 316.521 181.463C317.935 178.895 321.142 177.968 323.708 179.371C326.274 180.786 327.225 183.996 325.811 186.564Z" fill="url(#paint3_linear_3603_3565)"/>
<path d="M357.935 136.368L354.395 133.919C354.05 132.635 353.563 131.386 352.969 130.233L353.872 126.666L348.74 121.162L345.128 121.828C344.012 121.162 342.812 120.591 341.552 120.151L339.355 116.442L331.835 116.18L329.387 119.723C329.387 119.723 329.387 119.723 329.375 119.723C328.092 120.068 326.857 120.555 325.693 121.15L322.129 120.246L316.628 125.382L317.293 128.997C316.616 130.126 316.058 131.339 315.618 132.587L311.912 134.787L311.65 142.312L315.191 144.762C315.535 146.058 316.01 147.294 316.616 148.471L315.713 152.026L320.846 157.53L324.433 156.877C325.562 157.542 326.774 158.113 328.045 158.553L330.243 162.25L337.763 162.512L340.21 158.969C341.505 158.624 342.752 158.137 343.928 157.542L347.469 158.446L352.969 153.31L352.304 149.696C352.981 148.566 353.539 147.353 353.979 146.093L357.685 143.894L357.947 136.368H357.935ZM334.496 147.805C329.815 147.651 326.168 143.715 326.322 139.055C326.477 134.371 330.397 130.721 335.066 130.875C339.747 131.03 343.394 134.953 343.239 139.625C343.085 144.286 339.164 147.96 334.496 147.805Z" fill="white"/>
<path d="M383.774 76.2923L384.391 74.7943C384.831 74.5684 385.259 74.283 385.639 73.9858L387.017 74.0334L388.633 71.715L388.11 70.4429C388.264 69.9792 388.383 69.4917 388.442 68.9924L389.63 67.8986L389.131 65.1165L387.635 64.4983C387.409 64.0584 387.136 63.6423 386.827 63.2618L386.874 61.8827L384.558 60.2658L383.287 60.7889C382.811 60.6225 382.336 60.5154 381.837 60.456L380.744 59.2671L377.964 59.7664L377.347 61.2645C376.895 61.4904 376.479 61.7638 376.099 62.0729L374.721 62.0254L373.105 64.3437L373.628 65.6159C373.474 66.0795 373.355 66.567 373.295 67.0782L372.107 68.172L372.606 70.9541L374.103 71.5723C374.329 72.0241 374.614 72.4402 374.923 72.8207L374.875 74.1879L377.192 75.8048L378.463 75.2817C378.938 75.4482 379.414 75.5552 379.913 75.6146L381.017 76.8035L383.797 76.3042L383.774 76.2923ZM377.727 68.5763C377.418 66.8405 378.57 65.1998 380.293 64.8906C382.027 64.5815 383.667 65.7348 383.976 67.4587C384.284 69.1826 383.132 70.8352 381.409 71.1443C379.687 71.4534 378.036 70.3002 377.727 68.5763Z" fill="url(#paint4_linear_3603_3565)"/>
<path d="M351.186 68.4101L350.283 67.6492C351.863 65.7826 354.097 63.4166 357.423 61.6689L357.97 62.7271C354.429 64.5818 352.16 67.2687 351.186 68.422V68.4101Z" fill="url(#paint5_linear_3603_3565)"/>
<path d="M360.666 61.6449L360.203 60.5511C364.694 58.6251 369.386 57.8761 374.15 58.316L374.043 59.5049C369.481 59.065 364.991 59.8021 360.678 61.6449H360.666Z" fill="url(#paint6_linear_3603_3565)"/>
<path d="M358.422 69.8723L357.436 69.2065C359.871 65.616 364.694 62.5011 369.161 61.6094L369.387 62.7745C365.205 63.6067 360.691 66.5196 358.41 69.8723H358.422Z" fill="url(#paint7_linear_3603_3565)"/>
<path d="M279.586 184.281C279.432 184.281 279.278 184.222 279.159 184.103L276.664 181.535C275.393 181.416 274.145 181.178 272.922 180.833L269.037 182.545C268.847 182.628 268.633 182.605 268.467 182.498L261.957 178.182C261.79 178.075 261.683 177.885 261.695 177.683L261.755 173.45C260.959 172.463 260.258 171.393 259.652 170.264L256.314 168.968C256.123 168.896 255.981 168.73 255.945 168.528L254.389 160.871C254.353 160.669 254.413 160.467 254.555 160.324L257.121 157.828C257.24 156.567 257.478 155.307 257.81 154.083L256.1 150.207C256.017 150.017 256.04 149.803 256.147 149.636L260.46 143.121C260.567 142.954 260.733 142.847 260.959 142.859L265.188 142.919C266.186 142.122 267.255 141.421 268.372 140.826L269.667 137.485C269.738 137.295 269.904 137.153 270.106 137.117L277.757 135.559C277.959 135.524 278.161 135.583 278.303 135.726L280.786 138.294C282.046 138.413 283.305 138.651 284.529 138.983L288.401 137.271C288.592 137.188 288.805 137.212 288.972 137.319L295.482 141.635C295.648 141.742 295.755 141.932 295.743 142.134L295.684 146.379C296.48 147.365 297.181 148.435 297.775 149.553L301.113 150.849C301.303 150.92 301.446 151.087 301.481 151.289L303.038 158.945C303.073 159.147 303.014 159.35 302.871 159.492L300.305 161.989C300.186 163.237 299.949 164.498 299.604 165.722L301.315 169.61C301.398 169.8 301.374 170.014 301.267 170.181L296.955 176.684C296.848 176.85 296.67 176.934 296.456 176.945L292.227 176.886C291.241 177.671 290.172 178.372 289.043 178.978L287.748 182.319C287.677 182.51 287.51 182.652 287.308 182.688L279.658 184.245C279.658 184.245 279.575 184.245 279.539 184.245L279.586 184.281ZM272.886 179.609C272.886 179.609 272.993 179.609 273.052 179.632C274.324 180.001 275.642 180.251 276.985 180.369C277.127 180.369 277.258 180.441 277.365 180.548L279.788 183.045L286.798 181.618L288.057 178.372C288.104 178.241 288.211 178.122 288.342 178.063C289.53 177.445 290.659 176.708 291.692 175.864C291.799 175.78 291.918 175.721 292.072 175.733L296.195 175.792L300.151 169.824L298.488 166.043C298.428 165.912 298.428 165.77 298.464 165.639C298.844 164.343 299.082 163.011 299.2 161.704C299.2 161.561 299.272 161.43 299.379 161.323L301.873 158.898L300.448 151.883L297.205 150.623C297.062 150.575 296.955 150.468 296.884 150.338C296.266 149.149 295.529 148.031 294.686 146.997C294.591 146.89 294.543 146.747 294.555 146.604L294.615 142.479L288.651 138.52L284.873 140.184C284.742 140.244 284.6 140.244 284.469 140.208C283.186 139.828 281.856 139.59 280.525 139.471C280.382 139.471 280.252 139.4 280.145 139.293L277.733 136.796L270.724 138.223L269.465 141.468C269.417 141.599 269.31 141.718 269.18 141.777C267.992 142.396 266.875 143.133 265.829 143.977C265.723 144.06 265.58 144.131 265.437 144.108L261.315 144.048L257.359 150.017L259.022 153.797C259.093 153.964 259.093 154.142 259.01 154.309C258.678 155.497 258.428 156.817 258.321 158.149C258.321 158.291 258.25 158.422 258.143 158.529L255.648 160.955L257.074 167.969L260.317 169.229C260.46 169.289 260.578 169.396 260.638 169.539C261.256 170.716 261.992 171.833 262.824 172.856C262.919 172.963 262.966 173.105 262.966 173.248L262.907 177.373L268.871 181.332L272.649 179.668C272.72 179.632 272.803 179.62 272.886 179.62V179.609ZM278.731 175.757C275.725 175.757 272.696 174.9 270.011 173.129C266.483 170.787 264.083 167.22 263.24 163.071C262.396 158.922 263.216 154.701 265.556 151.17C270.391 143.894 280.228 141.884 287.499 146.711C294.769 151.538 296.765 161.394 291.942 168.671C288.9 173.26 283.863 175.757 278.731 175.757ZM266.542 151.824C264.38 155.081 263.62 158.993 264.404 162.833C265.188 166.673 267.409 169.967 270.665 172.13C277.401 176.589 286.501 174.746 290.956 168.017C295.411 161.287 293.569 152.169 286.845 147.698C280.121 143.24 271.009 145.083 266.542 151.824Z" fill="white"/>
<path d="M505.887 210.08L487.247 207.56L499.579 115.051L463.606 110.188L376.347 190.594L371.762 224.989L446.95 235.143L443.196 263.272L479.169 268.135L482.923 240.005L501.563 242.526L505.887 210.08ZM411.536 197.335L457.583 155.331L451.263 202.697L411.536 197.335Z" fill="url(#paint8_linear_3603_3565)"/>
<path d="M468.227 267.255C468.227 267.255 468.156 267.255 468.12 267.255C467.799 267.195 467.585 266.886 467.645 266.565L495.361 114.468C495.42 114.147 495.729 113.945 496.05 113.992C496.37 114.052 496.584 114.361 496.525 114.682L468.809 266.779C468.761 267.065 468.512 267.267 468.227 267.267V267.255Z" fill="#263238"/>
<path d="M492.82 117.013C492.797 117.548 492.357 117.976 491.811 117.952C491.264 117.928 490.848 117.488 490.872 116.941C490.896 116.394 491.335 115.978 491.882 116.002C492.416 116.026 492.844 116.466 492.82 117.013Z" fill="#263238"/>
<path d="M488.863 137.581C488.84 138.116 488.4 138.544 487.854 138.52C487.307 138.496 486.891 138.056 486.915 137.51C486.939 136.963 487.378 136.547 487.925 136.57C488.459 136.594 488.887 137.034 488.863 137.581Z" fill="#263238"/>
<path d="M484.908 158.149C484.885 158.684 484.445 159.112 483.898 159.088C483.352 159.064 482.936 158.624 482.96 158.077C482.984 157.531 483.423 157.114 483.97 157.138C484.504 157.162 484.932 157.602 484.908 158.149Z" fill="#263238"/>
<path d="M477.113 179.561C477.09 180.096 476.65 180.524 476.104 180.5C475.557 180.477 475.141 180.037 475.165 179.49C475.189 178.943 475.628 178.527 476.175 178.551C476.721 178.574 477.137 179.014 477.113 179.561Z" fill="#263238"/>
<path d="M476.984 199.285C476.961 199.82 476.521 200.248 475.975 200.224C475.428 200.201 475.012 199.761 475.036 199.214C475.06 198.667 475.499 198.251 476.046 198.275C476.592 198.298 477.008 198.738 476.984 199.285Z" fill="#263238"/>
<path d="M473.027 219.853C473.004 220.388 472.564 220.816 472.018 220.793C471.471 220.769 471.055 220.329 471.079 219.782C471.103 219.247 471.542 218.819 472.089 218.843C472.635 218.867 473.051 219.306 473.027 219.853Z" fill="#263238"/>
<path d="M469.072 240.421C469.049 240.956 468.609 241.384 468.063 241.361C467.516 241.337 467.1 240.897 467.124 240.35C467.148 239.803 467.587 239.387 468.134 239.411C468.68 239.435 469.096 239.875 469.072 240.421Z" fill="#263238"/>
<path d="M465.104 260.99C465.08 261.525 464.64 261.953 464.094 261.929C463.547 261.905 463.132 261.465 463.155 260.918C463.179 260.371 463.619 259.955 464.165 259.979C464.712 260.003 465.127 260.443 465.104 260.99Z" fill="#263238"/>
<path d="M476.139 180.12C475.866 180.12 475.617 179.93 475.557 179.644C475.486 179.323 475.688 179.002 476.009 178.943L478.955 178.313C479.276 178.253 479.596 178.443 479.656 178.764C479.727 179.085 479.525 179.406 479.204 179.466L476.258 180.096C476.258 180.096 476.175 180.108 476.128 180.108L476.139 180.12Z" fill="#263238"/>
<path d="M485.987 169.17C485.987 169.17 483.326 176.101 482.435 180.298C481.544 184.495 481.484 193.876 481.484 193.876" fill="#263238"/>
<path d="M481.485 194.47C481.152 194.47 480.891 194.196 480.891 193.875C480.891 193.495 480.95 184.388 481.853 180.167C482.744 175.97 485.322 169.229 485.429 168.944C485.548 168.635 485.892 168.492 486.201 168.599C486.51 168.718 486.664 169.063 486.545 169.372C486.522 169.443 483.896 176.303 483.017 180.417C482.15 184.507 482.079 193.792 482.079 193.875C482.079 194.208 481.805 194.47 481.485 194.47Z" fill="#263238"/>
<path d="M264.27 297.097C265.921 270.465 262.88 222.041 312.906 228.449C366.533 235.321 351.184 298.072 351.184 298.072L264.258 297.097H264.27Z" fill="#263238"/>
<path d="M298.792 281.094C310.852 281.094 320.628 271.31 320.628 259.242C320.628 247.173 310.852 237.39 298.792 237.39C286.733 237.39 276.957 247.173 276.957 259.242C276.957 271.31 286.733 281.094 298.792 281.094Z" fill="white"/>
<path d="M301.669 237.425C291.333 235.654 280.273 243.287 279.18 251.015L320.178 254.783C318.728 245.974 309.878 238.828 301.669 237.425Z" fill="#263238"/>
<path d="M315.508 258.695C315.211 264.402 312.11 268.884 308.558 268.706C305.006 268.527 302.38 263.748 302.677 258.029C302.974 252.322 306.075 247.84 309.627 248.019C313.179 248.197 315.805 252.976 315.508 258.695Z" fill="#263238"/>
<path d="M298.793 282.271C286.105 282.271 275.77 271.939 275.77 259.23C275.77 246.521 286.093 236.189 298.793 236.189C311.493 236.189 321.816 246.521 321.816 259.23C321.816 271.939 311.493 282.271 298.793 282.271ZM298.793 238.579C287.412 238.579 278.146 247.84 278.146 259.242C278.146 270.644 287.4 279.905 298.793 279.905C310.186 279.905 319.44 270.644 319.44 259.242C319.44 247.84 310.186 238.579 298.793 238.579Z" fill="url(#paint9_linear_3603_3565)"/>
<path opacity="0.3" d="M345.1 296.419C345.1 296.419 345.005 296.419 344.958 296.407C344.637 296.336 344.447 296.015 344.518 295.694C344.554 295.539 348.344 279.418 344.411 263.118C344.34 262.797 344.53 262.476 344.851 262.404C345.16 262.333 345.492 262.523 345.564 262.844C349.567 279.43 345.706 295.813 345.671 295.979C345.599 296.253 345.362 296.431 345.089 296.431L345.1 296.419Z" fill="white"/>
<path opacity="0.3" d="M341.787 254.201C341.561 254.201 341.347 254.07 341.252 253.856C339.719 250.515 337.831 247.46 335.621 244.749C335.419 244.5 335.455 244.119 335.704 243.917C335.953 243.703 336.334 243.751 336.536 244C338.805 246.782 340.765 249.933 342.333 253.357C342.476 253.654 342.333 254.011 342.036 254.142C341.953 254.177 341.87 254.201 341.787 254.201Z" fill="white"/>
<path d="M152.931 422.027C152.788 422.027 152.634 422.027 152.491 422.027C149.212 421.932 146.622 419.198 146.717 415.916C146.812 412.635 149.509 410.103 152.824 410.138C152.859 410.138 152.895 410.138 152.943 410.138C156.376 410.138 164.632 405.965 181.906 378.715C182.833 377.253 184.353 376.266 186.064 376.017C187.775 375.767 189.521 376.278 190.816 377.42C212.129 396.014 234.713 407.594 234.938 407.713C237.861 409.199 239.025 412.778 237.54 415.702C236.055 418.627 232.479 419.804 229.557 418.318C228.654 417.866 208.921 407.761 188.214 390.795C173.732 412.576 162.993 422.027 152.931 422.027Z" fill="#263238"/>
<path d="M189.687 376.349C189.52 376.349 189.354 376.349 189.176 376.314C187.227 376.04 185.873 374.233 186.146 372.283C186.99 366.363 185.944 344.189 178.46 326.95C177.783 325.381 178.306 323.55 179.719 322.575C195.995 311.483 230.661 310.151 232.122 310.103C234.082 310.056 235.733 311.578 235.805 313.539C235.876 315.513 234.332 317.154 232.371 317.225C232.051 317.225 201.745 318.402 186.17 326.974C192.799 344.142 194.308 365.542 193.203 373.282C192.954 375.065 191.421 376.349 189.675 376.349H189.687Z" fill="#263238"/>
<path d="M195.674 371.725C193.298 366.125 182.618 366.767 176.345 371.558C172.995 374.126 168.457 381.831 167.981 384.625C167.506 387.418 169.443 389.951 172.757 389.666C176.856 389.309 182.475 383.352 182.475 383.352C178.733 387.026 183.556 389.618 190.767 384.304C194.759 381.355 198.323 377.99 195.674 371.725Z" fill="url(#paint10_linear_3603_3565)"/>
<path d="M400.01 298.666C400.01 298.666 399.903 298.666 399.844 298.642C399.523 298.547 399.345 298.226 399.44 297.905C401.02 292.389 402.754 289.024 405.023 287.146C404.679 285.957 404.714 284.601 405.201 283.27C405.677 281.974 406.603 280.69 408.005 279.703C407.316 278.954 407.067 277.979 407.304 276.874C407.577 275.637 408.468 274.294 409.846 273.117C409.312 272.498 409.181 271.821 409.169 271.321C409.134 267.778 415.715 262.369 423.14 261.358C423.461 261.299 423.77 261.537 423.805 261.869C423.853 262.19 423.627 262.5 423.295 262.535C416.238 263.498 410.322 268.611 410.345 271.309C410.345 271.749 410.512 272.094 410.773 272.379C413.446 270.513 417.39 269.312 421.798 270.168C425.445 270.87 426.93 271.642 426.752 272.748C426.431 274.829 418.661 275.269 413.458 274.638C412.282 274.496 411.415 274.222 410.785 273.866C409.49 274.924 408.658 276.113 408.445 277.111C408.255 278.003 408.54 278.621 409.039 279.061C411.248 277.92 414.349 277.444 418.448 278.36C423.841 279.549 424.043 280.202 424.162 280.595C424.245 280.88 424.174 281.165 423.972 281.38C422.831 282.58 414.575 282.01 410.429 280.999C409.894 280.868 409.407 280.69 409.003 280.464C407.625 281.332 406.746 282.497 406.306 283.686C405.962 284.637 405.879 285.576 406.033 286.42C406.247 286.29 406.461 286.171 406.686 286.076C409.146 284.911 412.116 285.101 415.775 286.67C418.198 287.716 419.374 288.632 419.457 289.571C419.481 289.845 419.434 290.38 418.78 290.808C416.974 292.008 410.619 291.83 407.316 290.07C406.532 289.654 405.926 289.036 405.487 288.299C403.55 290.07 401.982 293.257 400.544 298.238C400.473 298.5 400.236 298.666 399.974 298.666H400.01ZM406.461 287.574C406.793 288.18 407.28 288.679 407.91 289.024C410.595 290.451 415.87 290.784 417.842 289.975C418.246 289.809 418.305 289.678 418.305 289.678C418.305 289.678 418.246 289.012 415.335 287.764C412.009 286.337 409.347 286.135 407.221 287.146C406.96 287.265 406.71 287.407 406.461 287.574ZM410.417 279.763C410.524 279.798 410.619 279.822 410.726 279.846C414.919 280.868 420.586 281.047 422.522 280.726C421.917 280.476 420.693 280.06 418.198 279.513C414.907 278.788 412.329 279.014 410.405 279.751L410.417 279.763ZM411.914 273.081C412.448 273.283 413.054 273.402 413.624 273.461C419.541 274.163 424.768 273.331 425.552 272.593C425.35 272.415 424.554 271.904 421.596 271.333C417.699 270.596 414.29 271.571 411.914 273.069V273.081Z" fill="#263238"/>
<path d="M245.357 420.042C246.141 419.792 245.88 419.032 245.001 419.032H228.915C198.288 415.786 176.892 420.137 190.376 421.16C203.86 422.182 189.426 421.968 179.577 425.701C169.729 429.435 252.818 430.374 260.385 425.701C267.359 421.397 234.51 423.526 245.357 420.042Z" fill="#263238"/>
<path d="M360.521 424.786L220.575 420.137L214.766 284.34L380.028 288.037L360.521 424.786Z" fill="url(#paint11_linear_3603_3565)"/>
<path d="M264.269 422.182C263.96 422.182 263.699 421.944 263.675 421.635L252.461 285.243C252.437 284.911 252.674 284.625 253.007 284.601C253.34 284.578 253.625 284.815 253.649 285.148L264.863 421.54C264.887 421.873 264.65 422.158 264.317 422.182C264.305 422.182 264.281 422.182 264.269 422.182Z" fill="#263238"/>
<path d="M360.521 424.786L398.134 419.055L409.978 292.781L380.028 288.037L360.521 424.786Z" fill="url(#paint12_linear_3603_3565)"/>
<path opacity="0.2" d="M360.521 424.786L398.134 419.055L409.978 292.781L380.028 288.037L360.521 424.786Z" fill="black"/>
<path d="M232.527 393.957L229.082 313.278C228.725 304.86 235.544 297.881 243.967 298.072L348.583 300.414C357.314 300.604 363.92 308.403 362.684 317.059L351.089 398.368C350.044 405.739 343.617 411.137 336.18 410.887L246.617 407.915C239.002 407.665 232.86 401.578 232.539 393.957H232.527Z" fill="#263238"/>
<path d="M340.391 362.323C339.963 362.323 339.547 362.157 339.238 361.812L329.069 350.672L318.092 360.706C317.45 361.289 316.464 361.241 315.894 360.611L305.725 349.471L294.748 359.506C294.106 360.088 293.12 360.041 292.55 359.41L282.381 348.27L271.404 358.305C271.095 358.59 270.691 358.733 270.287 358.709C269.871 358.685 269.479 358.507 269.206 358.198L259.037 347.058L248.059 357.092C247.43 357.675 246.432 357.627 245.862 356.997C245.279 356.355 245.327 355.368 245.957 354.797L258.086 343.705C258.716 343.122 259.714 343.17 260.284 343.8L270.453 354.94L281.43 344.906C281.739 344.62 282.143 344.478 282.547 344.501C282.963 344.525 283.355 344.704 283.628 345.013L293.797 356.153L304.775 346.118C305.404 345.536 306.402 345.583 306.972 346.214L317.142 357.354L328.119 347.319C328.748 346.737 329.734 346.784 330.316 347.414L341.543 359.708C342.125 360.35 342.078 361.336 341.448 361.907C341.151 362.181 340.771 362.311 340.403 362.311L340.391 362.323Z" fill="white"/>
<path d="M149.39 427.663L141.953 424.12L135.324 391.817L138.924 387.858L149.39 427.663Z" fill="url(#paint13_linear_3603_3565)"/>
<path d="M149.39 427.663L159.251 421.897L150.804 395.289L138.924 387.858L149.39 427.663Z" fill="url(#paint14_linear_3603_3565)"/>
<path opacity="0.2" d="M149.39 427.663L159.251 421.897L150.804 395.289L138.924 387.858L149.39 427.663Z" fill="black"/>
<path d="M311.196 433.536C310.91 433.536 310.637 433.536 310.376 433.536C307.097 433.441 304.507 430.707 304.602 427.425C304.697 424.144 307.406 421.564 310.708 421.647C319.856 421.944 339.232 416.321 350.293 405.573C350.982 404.907 351.813 404.42 352.728 404.146C371.487 398.511 378.46 409.889 378.757 410.376L368.528 416.428C368.528 416.428 368.564 416.511 368.671 416.642C368.552 416.487 365.903 413.028 357.444 415.168C343.557 427.853 322.244 433.536 311.219 433.536H311.196Z" fill="#263238"/>
<path d="M310.53 441.443L288.896 440.075L287.197 400.164L316.268 401.245L310.53 441.443Z" fill="url(#paint15_linear_3603_3565)"/>
<path d="M310.529 441.442L315.59 436.401L318.726 411.518L316.267 401.245L310.529 441.442Z" fill="url(#paint16_linear_3603_3565)"/>
<path opacity="0.2" d="M310.529 441.442L315.59 436.401L318.726 411.518L316.267 401.245L310.529 441.442Z" fill="black"/>
<path d="M435.888 426.319C435.14 426.319 434.379 426.082 433.738 425.594C421.395 416.202 404.691 399.521 398.288 383.435C398.193 383.198 398.122 382.96 398.086 382.71C394.962 364.128 391.98 325.001 391.849 323.348C391.695 321.386 393.168 319.674 395.128 319.52C397.088 319.377 398.799 320.839 398.953 322.801C398.989 323.205 401.995 362.713 405.048 381.141C411.439 396.787 428.76 412.849 438.05 419.911C439.619 421.1 439.927 423.335 438.727 424.905C438.027 425.832 436.957 426.308 435.888 426.308V426.319Z" fill="#263238"/>
<path d="M452.366 428.127C449.61 428.127 446.485 426.878 443.087 424.417C441.495 423.264 441.139 421.029 442.291 419.436C443.444 417.843 445.677 417.486 447.269 418.639C450.215 420.767 451.819 421.005 452.378 421.005C454.35 421.005 455.942 422.598 455.942 424.572C455.942 426.545 454.35 428.138 452.378 428.138L452.366 428.127Z" fill="#263238"/>
<path d="M444.073 424.31C447.887 412.968 463.521 415.215 468.902 416.891C474.284 418.58 479.131 420.696 482.054 422.598C484.964 424.501 485.012 427.699 481.127 429.518C476.327 431.765 464.305 429.767 464.305 429.767C470.53 432.49 464.293 436.865 453.363 432.573C449.811 431.17 442.719 428.46 444.061 424.298L444.073 424.31Z" fill="url(#paint17_linear_3603_3565)"/>
<path d="M406.13 328.234C404.716 337.865 396.744 344.974 390.258 344.011C383.771 343.06 383.51 334.452 384.924 324.822C386.338 315.192 388.904 308.177 395.39 309.129C401.877 310.08 407.555 318.592 406.13 328.222V328.234Z" fill="#263238"/>
<path d="M249.337 289.785C249.875 289.785 250.312 289.349 250.312 288.81C250.312 288.272 249.875 287.835 249.337 287.835C248.799 287.835 248.363 288.272 248.363 288.81C248.363 289.349 248.799 289.785 249.337 289.785Z" fill="#263238"/>
<path d="M259.233 295.836C259.233 296.371 258.794 296.811 258.259 296.811C257.725 296.811 257.285 296.371 257.285 295.836C257.285 295.301 257.725 294.862 258.259 294.862C258.794 294.862 259.233 295.301 259.233 295.836Z" fill="#263238"/>
<path d="M260.314 411.042C260.314 411.577 259.874 412.017 259.339 412.017C258.805 412.017 258.365 411.577 258.365 411.042C258.365 410.507 258.805 410.067 259.339 410.067C259.874 410.067 260.314 410.507 260.314 411.042Z" fill="#263238"/>
<path d="M269.247 418.057C269.247 418.592 268.808 419.032 268.273 419.032C267.738 419.032 267.299 418.592 267.299 418.057C267.299 417.522 267.738 417.082 268.273 417.082C268.808 417.082 269.247 417.522 269.247 418.057Z" fill="#263238"/>
<path d="M98.0218 429.756C95.1944 429.756 91.369 428.044 89.3138 425.059C89.1237 424.786 89.195 424.417 89.4682 424.227C89.7414 424.037 90.1097 424.108 90.2998 424.382C92.5214 427.58 97.404 429.292 99.5781 428.281C99.8038 428.174 99.9939 428.044 100.136 427.877C98.2 426.985 96.4299 425.226 95.9428 422.551C95.6696 421.041 95.4557 419.008 96.7031 418.723C98.402 418.342 100.635 422.468 101.491 425.594C101.645 426.177 101.705 426.712 101.645 427.188C102.394 427.39 103.13 427.449 103.772 427.354C104.283 427.283 105.019 427.069 105.399 426.462C103.962 425.487 102.988 423.764 102.667 421.481C102.204 418.235 102.548 417.664 102.916 417.391C103.154 417.213 103.451 417.177 103.736 417.296C105.007 417.843 106.552 422.444 106.837 425.059C106.872 425.345 106.872 425.618 106.837 425.88C107.324 426.07 107.858 426.177 108.441 426.189C109.474 426.248 110.484 425.915 111.304 425.44C111.137 425.333 110.971 425.214 110.828 425.083C109.593 424.025 109.094 422.349 109.308 419.935C109.474 418.069 109.89 417.058 110.638 416.737C110.9 416.618 111.434 416.511 112.076 417.022C113.359 418.045 114.559 421.302 114.131 423.633C114.036 424.12 113.834 424.572 113.537 425C115.711 425.38 118.788 424.762 121.425 424.108C121.746 424.025 122.067 424.227 122.15 424.548C122.233 424.869 122.031 425.19 121.711 425.273C118.491 426.07 115.022 426.712 112.575 426.011C111.482 426.878 109.949 427.402 108.417 427.39C107.716 427.378 107.062 427.247 106.468 427.021C106.005 427.818 105.126 428.353 103.95 428.531C103.166 428.65 102.227 428.579 101.289 428.305C101.016 428.757 100.624 429.114 100.089 429.363C99.5187 429.625 98.8178 429.756 98.0456 429.756H98.0218ZM97.0001 419.911C96.9288 420.09 96.81 420.696 97.0952 422.337C97.4872 424.524 98.9009 425.975 100.469 426.748C100.469 426.498 100.41 426.213 100.327 425.904C99.388 422.503 97.6179 420.161 96.9882 419.911H97.0001ZM103.617 418.877C103.617 419.329 103.653 420.078 103.831 421.326C104.069 423.026 104.698 424.322 105.637 425.155C105.364 422.765 104.306 420.007 103.617 418.877ZM111.09 417.843C111.09 417.843 110.638 418.069 110.472 420.054C110.294 422.051 110.662 423.407 111.577 424.192C111.791 424.37 112.028 424.524 112.29 424.643C112.622 424.275 112.86 423.859 112.931 423.419C113.252 421.695 112.432 419.174 111.506 418.152C111.268 417.89 111.114 417.831 111.078 417.831L111.09 417.843Z" fill="#263238"/>
<path d="M271.896 438.744L275.116 433.156L271.896 427.568H268.451L270.399 433.156L268.451 438.744H271.896Z" fill="#263238"/>
<path d="M268.678 436.068C267.074 436.068 265.767 434.761 265.767 433.156C265.767 431.551 267.074 430.255 268.678 430.255L263.201 429.161L261.752 433.584L264.199 437.317L268.678 436.068Z" fill="#263238"/>
<path d="M269.153 427.568H262.702L259.482 433.156L262.702 438.744H269.153L272.372 433.156L269.153 427.568ZM265.933 436.069C264.329 436.069 263.023 434.761 263.023 433.156C263.023 431.551 264.329 430.255 265.933 430.255C267.537 430.255 268.832 431.551 268.832 433.156C268.832 434.761 267.537 436.069 265.933 436.069Z" fill="url(#paint18_linear_3603_3565)"/>
<path d="M496.452 427.188L494.064 423.038L496.452 418.889H499.007L497.569 423.038L499.007 427.188H496.452Z" fill="url(#paint19_linear_3603_3565)"/>
<path d="M498.84 425.202C500.028 425.202 501.002 424.227 501.002 423.038C501.002 421.849 500.028 420.886 498.84 420.886L502.903 420.078L503.984 423.359L502.166 426.129L498.84 425.202Z" fill="url(#paint20_linear_3603_3565)"/>
<path d="M498.495 418.889H503.283L505.671 423.038L503.283 427.188H498.495L496.107 423.038L498.495 418.889ZM500.883 425.202C502.071 425.202 503.045 424.227 503.045 423.038C503.045 421.849 502.071 420.886 500.883 420.886C499.695 420.886 498.733 421.849 498.733 423.038C498.733 424.227 499.695 425.202 500.883 425.202Z" fill="#263238"/>
<path d="M407.425 432.704H412.795C414.197 432.704 415.337 431.563 415.337 430.16C415.337 428.757 414.197 427.616 412.795 427.616H407.425C406.023 427.616 404.883 428.757 404.883 430.16C404.883 431.563 406.023 432.704 407.425 432.704Z" fill="#263238"/>
<path d="M398.848 427.901C400.178 425.083 403.386 423.811 406.023 425.06C408.661 426.308 409.73 429.589 408.399 432.407C407.069 435.225 403.861 436.497 401.224 435.249C398.586 434 397.517 430.719 398.848 427.901Z" fill="url(#paint21_linear_3603_3565)"/>
<path d="M400.307 435.24L401.779 435.934L406.896 425.073L405.424 424.378L400.307 435.24Z" fill="#263238"/>
</g>
<defs>
<linearGradient id="paint0_linear_3603_3565" x1="152.101" y1="110.914" x2="152.101" y2="269.324" gradientUnits="userSpaceOnUse">
<stop stop-color="#B197FD"/>
<stop offset="1" stop-color="#FF96B1"/>
</linearGradient>
<linearGradient id="paint1_linear_3603_3565" x1="298.942" y1="52.7808" x2="298.942" y2="216.979" gradientUnits="userSpaceOnUse">
<stop stop-color="#B197FD"/>
<stop offset="1" stop-color="#FF96B1"/>
</linearGradient>
<linearGradient id="paint2_linear_3603_3565" x1="292.553" y1="71.7744" x2="292.553" y2="131.731" gradientUnits="userSpaceOnUse">
<stop stop-color="#B197FD"/>
<stop offset="1" stop-color="#FF96B1"/>
</linearGradient>
<linearGradient id="paint3_linear_3603_3565" x1="321.154" y1="163.701" x2="321.154" y2="204.291" gradientUnits="userSpaceOnUse">
<stop stop-color="#B197FD"/>
<stop offset="1" stop-color="#FF96B1"/>
</linearGradient>
<linearGradient id="paint4_linear_3603_3565" x1="380.869" y1="59.2671" x2="380.869" y2="76.8035" gradientUnits="userSpaceOnUse">
<stop stop-color="#B197FD"/>
<stop offset="1" stop-color="#FF96B1"/>
</linearGradient>
<linearGradient id="paint5_linear_3603_3565" x1="354.126" y1="61.6689" x2="354.126" y2="68.422" gradientUnits="userSpaceOnUse">
<stop stop-color="#B197FD"/>
<stop offset="1" stop-color="#FF96B1"/>
</linearGradient>
<linearGradient id="paint6_linear_3603_3565" x1="367.177" y1="58.1938" x2="367.177" y2="61.6449" gradientUnits="userSpaceOnUse">
<stop stop-color="#B197FD"/>
<stop offset="1" stop-color="#FF96B1"/>
</linearGradient>
<linearGradient id="paint7_linear_3603_3565" x1="363.411" y1="61.6094" x2="363.411" y2="69.8723" gradientUnits="userSpaceOnUse">
<stop stop-color="#B197FD"/>
<stop offset="1" stop-color="#FF96B1"/>
</linearGradient>
<linearGradient id="paint8_linear_3603_3565" x1="438.824" y1="110.188" x2="438.824" y2="268.135" gradientUnits="userSpaceOnUse">
<stop stop-color="#B197FD"/>
<stop offset="1" stop-color="#FF96B1"/>
</linearGradient>
<linearGradient id="paint9_linear_3603_3565" x1="298.793" y1="236.189" x2="298.793" y2="282.271" gradientUnits="userSpaceOnUse">
<stop stop-color="#B197FD"/>
<stop offset="1" stop-color="#FF96B1"/>
</linearGradient>
<linearGradient id="paint10_linear_3603_3565" x1="182.249" y1="367.743" x2="182.249" y2="389.688" gradientUnits="userSpaceOnUse">
<stop stop-color="#B197FD"/>
<stop offset="1" stop-color="#FF96B1"/>
</linearGradient>
<linearGradient id="paint11_linear_3603_3565" x1="297.397" y1="284.34" x2="297.397" y2="424.786" gradientUnits="userSpaceOnUse">
<stop stop-color="#B197FD"/>
<stop offset="1" stop-color="#FF96B1"/>
</linearGradient>
<linearGradient id="paint12_linear_3603_3565" x1="385.25" y1="288.037" x2="385.25" y2="424.786" gradientUnits="userSpaceOnUse">
<stop stop-color="#B197FD"/>
<stop offset="1" stop-color="#FF96B1"/>
</linearGradient>
<linearGradient id="paint13_linear_3603_3565" x1="142.357" y1="387.858" x2="142.357" y2="427.663" gradientUnits="userSpaceOnUse">
<stop stop-color="#B197FD"/>
<stop offset="1" stop-color="#FF96B1"/>
</linearGradient>
<linearGradient id="paint14_linear_3603_3565" x1="149.087" y1="387.858" x2="149.087" y2="427.663" gradientUnits="userSpaceOnUse">
<stop stop-color="#B197FD"/>
<stop offset="1" stop-color="#FF96B1"/>
</linearGradient>
<linearGradient id="paint15_linear_3603_3565" x1="301.732" y1="400.164" x2="301.732" y2="441.443" gradientUnits="userSpaceOnUse">
<stop stop-color="#B197FD"/>
<stop offset="1" stop-color="#FF96B1"/>
</linearGradient>
<linearGradient id="paint16_linear_3603_3565" x1="314.628" y1="401.245" x2="314.628" y2="441.442" gradientUnits="userSpaceOnUse">
<stop stop-color="#B197FD"/>
<stop offset="1" stop-color="#FF96B1"/>
</linearGradient>
<linearGradient id="paint17_linear_3603_3565" x1="464.022" y1="415.51" x2="464.022" y2="434.375" gradientUnits="userSpaceOnUse">
<stop stop-color="#B197FD"/>
<stop offset="1" stop-color="#FF96B1"/>
</linearGradient>
<linearGradient id="paint18_linear_3603_3565" x1="265.927" y1="427.568" x2="265.927" y2="438.744" gradientUnits="userSpaceOnUse">
<stop stop-color="#B197FD"/>
<stop offset="1" stop-color="#FF96B1"/>
</linearGradient>
<linearGradient id="paint19_linear_3603_3565" x1="496.535" y1="418.889" x2="496.535" y2="427.188" gradientUnits="userSpaceOnUse">
<stop stop-color="#B197FD"/>
<stop offset="1" stop-color="#FF96B1"/>
</linearGradient>
<linearGradient id="paint20_linear_3603_3565" x1="501.412" y1="420.078" x2="501.412" y2="426.129" gradientUnits="userSpaceOnUse">
<stop stop-color="#B197FD"/>
<stop offset="1" stop-color="#FF96B1"/>
</linearGradient>
<linearGradient id="paint21_linear_3603_3565" x1="403.624" y1="424.58" x2="403.624" y2="435.728" gradientUnits="userSpaceOnUse">
<stop stop-color="#B197FD"/>
<stop offset="1" stop-color="#FF96B1"/>
</linearGradient>
<clipPath id="clip0_3603_3565">
<rect width="594" height="443" fill="white"/>
</clipPath>
</defs>
</svg>
