<svg width="60" height="60" viewBox="0 0 60 60" fill="none" xmlns="http://www.w3.org/2000/svg">
<g clip-path="url(#clip0_2810_7437)">
<path fill-rule="evenodd" clip-rule="evenodd" d="M30.0003 0.577881L32.6342 2.57483L35.8318 1.73789L37.5011 4.59066L40.7756 5.04113L41.226 8.31566L44.0789 9.98487L43.242 13.1826L45.2388 15.8164L43.242 18.4503L44.0789 21.648L41.226 23.3173L40.7756 26.5917L37.501 27.0422L35.8318 29.8951L32.6342 29.0581L30.0003 31.055L27.3663 29.0581L24.1687 29.8951L22.4995 27.0422L19.225 26.5917L18.7745 23.3172L15.9217 21.648L16.7586 18.4503L14.7617 15.8164L16.7586 13.1825L15.9217 9.98487L18.7745 8.31566L19.225 5.04113L22.4995 4.59066L24.1687 1.73789L27.3663 2.57483L30.0003 0.577881Z" fill="url(#paint0_linear_2810_7437)" fill-opacity="0.5"/>
<path d="M58.3314 18.8328C57.0418 18.1239 55.0776 18.267 53.8125 20.2556C53.8087 20.2616 53.805 20.2676 53.8012 20.2736L49.0979 27.971C48.5315 27.6447 47.882 27.4992 47.2211 27.5588C46.3925 27.6328 45.6469 28.0215 45.1217 28.6536C44.786 29.0576 43.677 30.4432 42.5028 31.9099C41.3876 33.3031 40.2344 34.7437 39.9126 35.131C36.9064 38.6401 32.261 40.0717 30.0002 44.6183C28.6124 41.8503 26.2736 40.1531 24.135 38.6013C22.6276 37.5075 21.204 36.4745 20.0877 35.1311C19.7658 34.7436 18.6127 33.3031 17.4975 31.9101C16.3233 30.4432 15.2143 29.0578 14.8785 28.6537C14.3535 28.0218 13.6081 27.6329 12.7793 27.5589C12.1185 27.4999 11.4688 27.6447 10.9023 27.9711L6.19896 20.2737C6.19533 20.2676 6.19158 20.2616 6.18771 20.2557C4.92256 18.267 2.95854 18.124 1.66889 18.8328C0.140938 19.6727 -0.429101 21.5469 0.342673 23.1924C0.344431 23.1961 0.34619 23.1997 0.347948 23.2035C2.00836 26.9135 4.79514 33.8688 6.69328 37.9851C8.47794 41.911 9.27843 43.0143 12.4035 45.8547L16.6193 49.6868V50.0447H15.9337C15.2863 50.0447 14.7615 50.5697 14.7615 51.2169V58.2501C14.7615 58.8974 15.2863 59.4223 15.9337 59.4223H44.0664C44.7137 59.4223 45.2386 58.8974 45.2386 58.2501V51.2169C45.2386 50.5697 44.7137 50.0447 44.0664 50.0447H43.3808V49.6868L47.5967 45.8547C50.7216 43.0144 51.522 41.911 53.3069 37.9851C54.677 34.9715 56.2936 31.1141 57.5927 28.0146C58.521 25.7998 59.3226 23.8871 59.652 23.2033C59.6538 23.1997 59.6555 23.1961 59.6573 23.1923C60.4295 21.5468 59.8593 19.6726 58.3314 18.8328ZM18.5803 48.3006L13.9807 44.1198C11.1018 41.5031 10.4757 40.6398 8.82784 37.0147C7.47232 34.033 5.86313 30.1936 4.57008 27.1084C3.59329 24.7777 2.82105 22.9354 2.46353 22.1923C2.13566 21.4878 2.51944 21.0406 2.79854 20.8872C3.2666 20.6301 3.79162 20.8613 4.2047 21.5055L9.43293 30.062C9.33693 30.6895 9.4157 31.4688 9.79678 32.4318C10.8908 35.1965 12.247 37.9582 13.5176 40.0088C13.8586 40.5591 14.581 40.7288 15.1314 40.3876C15.6817 40.0467 15.8514 39.3242 15.5104 38.7737C14.3099 36.8363 13.0218 34.2103 11.9767 31.5691C11.53 30.4401 11.8267 30.1908 11.9385 30.0969C12.1187 29.9455 12.3436 29.874 12.5709 29.8936C12.7733 29.9117 12.9526 30.0035 13.0758 30.1516C13.7399 30.9517 17.6471 35.8628 18.2849 36.6292C19.5892 38.1991 21.2004 39.368 22.7584 40.4987C25.7783 42.6899 28.3878 44.5835 28.8283 48.9813V50.0445H18.9643V49.1679C18.9639 48.8379 18.8247 48.5229 18.5803 48.3006ZM17.1061 52.389H28.8281V57.0778H17.1061V52.389ZM42.8944 57.0778H31.1725V52.389H42.8944V57.0778ZM57.5374 22.1919C57.1801 22.9346 56.4078 24.7772 55.4307 27.1083C54.1378 30.1934 52.5285 34.0329 51.1729 37.0147C49.5249 40.6399 48.899 41.5031 46.02 44.1199L41.4204 48.3006C41.176 48.5229 41.0367 48.8379 41.0367 49.1681V50.0446H31.1725V48.9809C31.6132 44.5835 34.2228 42.6899 37.2423 40.4987C38.8004 39.3682 40.4116 38.1991 41.716 36.6292C42.0514 36.2254 43.1597 34.8408 44.3331 33.3748C45.4491 31.9807 46.6029 30.5393 46.9248 30.1518C47.0481 30.0034 47.2274 29.9117 47.43 29.8936C47.6563 29.874 47.882 29.9453 48.0624 30.0969C48.1741 30.1908 48.4707 30.4401 48.0239 31.5691C46.9789 34.2103 45.691 36.8363 44.4902 38.7737C44.1493 39.324 44.3189 40.0465 44.8691 40.3876C45.4192 40.7285 46.1418 40.5589 46.483 40.0088C47.7538 37.9582 49.1099 35.1965 50.2038 32.4318C50.585 31.4688 50.6637 30.6893 50.5677 30.062L55.7957 21.5058C56.2088 20.8614 56.7341 20.63 57.2021 20.8872C57.4811 21.0406 57.8649 21.4877 57.5374 22.1919Z" fill="#040F0F"/>
<path d="M22.967 23.1426H37.0333C37.6806 23.1426 38.2055 22.6177 38.2055 21.9704C38.2055 18.5353 36.0836 15.5864 33.0818 14.3655C36.3143 11.5722 34.3248 6.14458 30.0002 6.14575C25.6756 6.14458 23.6861 11.573 26.9187 14.3655C23.9168 15.5864 21.7949 18.5353 21.7949 21.9704C21.7948 22.6178 22.3196 23.1426 22.967 23.1426ZM30.0002 8.49014C31.2929 8.49014 32.3446 9.54184 32.3446 10.8345C32.2268 13.9404 27.7732 13.9396 27.6558 10.8345C27.6558 9.54184 28.7075 8.49014 30.0002 8.49014ZM30.0002 16.1094C32.8306 16.1094 35.1989 18.1263 35.7433 20.7982H24.2569C24.8016 18.1263 27.1698 16.1094 30.0002 16.1094Z" fill="#040F0F"/>
</g>
<defs>
<linearGradient id="paint0_linear_2810_7437" x1="30.0003" y1="0.577881" x2="30.0003" y2="31.055" gradientUnits="userSpaceOnUse">
<stop stop-color="#643CD7"/>
<stop offset="1" stop-color="#D03059"/>
</linearGradient>
<clipPath id="clip0_2810_7437">
<rect width="60" height="60" fill="white"/>
</clipPath>
</defs>
</svg>
