<svg width="39" height="38" viewBox="0 0 39 38" fill="none" xmlns="http://www.w3.org/2000/svg">
<rect x="0.25" width="38" height="38" rx="19" fill="url(#paint0_linear_4920_2431)"/>
<path d="M23.5262 23.1613C23.7224 23.3582 23.8558 23.6088 23.9097 23.8814C23.9635 24.1541 23.9354 24.4366 23.8288 24.6932C23.7222 24.9499 23.542 25.1693 23.3108 25.3236C23.0797 25.4779 22.808 25.5602 22.5301 25.5602C22.2522 25.5602 21.9805 25.4779 21.7493 25.3236C21.5182 25.1693 21.3379 24.9499 21.2313 24.6932C21.1248 24.4366 21.0966 24.1541 21.1505 23.8814C21.2044 23.6088 21.3378 23.3582 21.534 23.1613C21.6646 23.0302 21.8199 22.9262 21.9908 22.8552C22.1617 22.7843 22.345 22.7477 22.5301 22.7477C22.7152 22.7477 22.8984 22.7843 23.0694 22.8552C23.2403 22.9262 23.3955 23.0302 23.5262 23.1613ZM14.034 22.2238C13.8378 22.4207 13.7044 22.6713 13.6505 22.9439C13.5966 23.2166 13.6248 23.4991 13.7313 23.7557C13.8379 24.0124 14.0182 24.2318 14.2493 24.3861C14.4805 24.5404 14.7522 24.6227 15.0301 24.6227C15.308 24.6227 15.5797 24.5404 15.8108 24.3861C16.042 24.2318 16.2222 24.0124 16.3288 23.7557C16.4354 23.4991 16.4635 23.2166 16.4097 22.9439C16.3558 22.6713 16.2224 22.4207 16.0262 22.2238C15.8956 22.0931 15.7405 21.9894 15.5698 21.9186C15.399 21.8478 15.2161 21.8114 15.0313 21.8114C14.8465 21.8114 14.6635 21.8478 14.4927 21.9186C14.322 21.9894 14.1669 22.0931 14.0363 22.2238H14.034ZM15.0887 17.6535C15.2849 17.4567 15.4183 17.2061 15.4722 16.9334C15.526 16.6608 15.4979 16.3783 15.3913 16.1216C15.2847 15.8649 15.1045 15.6456 14.8733 15.4913C14.6422 15.337 14.3705 15.2546 14.0926 15.2546C13.8147 15.2546 13.543 15.337 13.3118 15.4913C13.0807 15.6456 12.9004 15.8649 12.7938 16.1216C12.6873 16.3783 12.6591 16.6608 12.713 16.9334C12.7669 17.2061 12.9003 17.4567 13.0965 17.6535C13.2273 17.7845 13.3827 17.8883 13.5537 17.9591C13.7247 18.0299 13.908 18.0662 14.0931 18.066C14.2782 18.0657 14.4614 18.029 14.6322 17.9578C14.8031 17.8866 14.9582 17.7824 15.0887 17.6512V17.6535ZM20.7137 17.5363C20.5168 17.3401 20.2662 17.2067 19.9936 17.1528C19.7209 17.099 19.4384 17.1271 19.1818 17.2337C18.9251 17.3403 18.7057 17.5205 18.5514 17.7517C18.3971 17.9828 18.3148 18.2545 18.3148 18.5324C18.3148 18.8103 18.3971 19.082 18.5514 19.3132C18.7057 19.5443 18.9251 19.7246 19.1818 19.8312C19.4384 19.9377 19.7209 19.9659 19.9936 19.912C20.2662 19.8581 20.5168 19.7247 20.7137 19.5285C20.8448 19.3979 20.9488 19.2426 21.0198 19.0717C21.0907 18.9008 21.1273 18.7175 21.1273 18.5324C21.1273 18.3473 21.0907 18.1641 21.0198 17.9931C20.9488 17.8222 20.8448 17.667 20.7137 17.5363ZM31.4375 19C31.4375 21.4105 30.7227 23.7668 29.3835 25.771C28.0444 27.7752 26.1409 29.3373 23.914 30.2598C21.687 31.1822 19.2365 31.4236 16.8723 30.9533C14.5082 30.4831 12.3366 29.3223 10.6321 27.6179C8.92769 25.9134 7.76694 23.7418 7.29668 21.3777C6.82643 19.0135 7.06778 16.563 7.99022 14.336C8.91267 12.1091 10.4748 10.2056 12.479 8.86646C14.4832 7.52728 16.8395 6.8125 19.25 6.8125C19.4986 6.8125 19.7371 6.91127 19.9129 7.08709C20.0887 7.2629 20.1875 7.50136 20.1875 7.75C20.1875 8.9932 20.6814 10.1855 21.5604 11.0646C22.4395 11.9436 23.6318 12.4375 24.875 12.4375C25.1236 12.4375 25.3621 12.5363 25.5379 12.7121C25.7137 12.8879 25.8125 13.1264 25.8125 13.375C25.8125 14.6182 26.3064 15.8105 27.1854 16.6896C28.0645 17.5686 29.2568 18.0625 30.5 18.0625C30.7486 18.0625 30.9871 18.1613 31.1629 18.3371C31.3387 18.5129 31.4375 18.7514 31.4375 19ZM29.5262 19.866C28.1221 19.6529 26.8247 18.9911 25.8279 17.9795C24.8311 16.968 24.1885 15.661 23.9961 14.2539C22.589 14.0615 21.282 13.4189 20.2705 12.4221C19.2589 11.4253 18.5971 10.1279 18.384 8.72383C16.4251 8.88893 14.5542 9.61049 12.9918 10.8035C11.4293 11.9965 10.2404 13.6112 9.56515 15.4574C8.88987 17.3036 8.75633 19.3044 9.18029 21.2239C9.60425 23.1435 10.568 24.9019 11.9581 26.2919C13.3481 27.682 15.1065 28.6458 17.0261 29.0697C18.9456 29.4937 20.9464 29.3601 22.7926 28.6849C24.6388 28.0096 26.2535 26.8207 27.4465 25.2582C28.6395 23.6958 29.3611 21.8249 29.5262 19.866Z" fill="white"/>
<defs>
<linearGradient id="paint0_linear_4920_2431" x1="-4.75" y1="-3.85077e-07" x2="55.25" y2="44" gradientUnits="userSpaceOnUse">
<stop stop-color="#F67798"/>
<stop offset="1" stop-color="#B197FD"/>
</linearGradient>
</defs>
</svg>
