<svg width="32" height="32" viewBox="0 0 32 32" fill="none" xmlns="http://www.w3.org/2000/svg">
<path d="M6.66663 29.3334V18.6667M6.66663 18.6667L9.95996 18.008C12.161 17.5676 14.4426 17.777 16.5266 18.6107C18.7847 19.5137 21.27 19.6821 23.6293 19.092L23.9146 19.0214C24.3198 18.9202 24.6795 18.6866 24.9365 18.3575C25.1936 18.0285 25.3332 17.6229 25.3333 17.2054V7.38269C25.3332 7.13971 25.2778 6.89994 25.1712 6.68157C25.0647 6.46321 24.9098 6.27198 24.7183 6.1224C24.5268 5.97281 24.3038 5.8688 24.0661 5.81826C23.8285 5.76772 23.5824 5.77197 23.3466 5.83069C21.1714 6.3742 18.8802 6.21838 16.7986 5.38535L16.5266 5.27735C14.443 4.44396 12.1619 4.23457 9.96129 4.67469L6.66663 5.33335M6.66663 18.6667V14.6667M6.66663 5.33335V2.66669M6.66663 5.33335V9.33335" stroke="black" stroke-width="2" stroke-linecap="round"/>
<ellipse cx="6.5" cy="29.5" rx="5.5" ry="1.5" fill="black"/>
</svg>
