<svg width="17" height="10" viewBox="0 0 17 10" fill="none" xmlns="http://www.w3.org/2000/svg">
<path d="M0.724253 2.02564H15.6011C15.9683 2.02564 16.2653 1.72177 16.2653 1.34607C16.2653 0.970376 15.9683 0.666504 15.6011 0.666504H0.724253C0.357056 0.666504 0.0600586 0.970376 0.0600586 1.34607C0.0600586 1.72177 0.357056 2.02564 0.724253 2.02564Z" fill="black"/>
<path d="M1.68282 5.55152H14.3192C14.6311 5.55152 14.8834 5.24765 14.8834 4.87195C14.8834 4.49625 14.6311 4.19238 14.3192 4.19238H1.68282C1.37092 4.19238 1.11865 4.49625 1.11865 4.87195C1.11865 5.24765 1.37092 5.55152 1.68282 5.55152Z" fill="black"/>
<path d="M3.62642 9.0774H12.3747C12.5906 9.0774 12.7653 8.77353 12.7653 8.39783C12.7653 8.02213 12.5906 7.71826 12.3747 7.71826H3.62642C3.41049 7.71826 3.23584 8.02213 3.23584 8.39783C3.23584 8.77353 3.41049 9.0774 3.62642 9.0774Z" fill="black"/>
</svg>
