<?xml version="1.0" encoding="UTF-8"?>
<svg xmlns="http://www.w3.org/2000/svg" width="22" height="22" viewBox="0 0 22 22" fill="none">
  <g clip-path="url(#clip0_892_9508)">
    <path fill-rule="evenodd" clip-rule="evenodd" d="M11 0C17.0751 0 22 4.92486 22 11C22 17.0751 17.0751 22 11 22C4.92486 22 0 17.0751 0 11C0 4.92486 4.92486 0 11 0ZM17.9824 15.2643V7.0889L13.8945 11.1766L17.9824 15.2643ZM4.89087 15.4308H17.1094L13.3751 11.6965L11.9518 13.1195C11.8828 13.1883 11.7893 13.227 11.6918 13.2269H10.3082C10.26 13.227 10.2122 13.2175 10.1676 13.1991C10.1229 13.1807 10.0824 13.1536 10.0482 13.1195L8.62503 11.6965L4.8907 15.4308H4.89087ZM4.01758 7.08864V15.2645L8.1055 11.1766L4.01758 7.08864ZM17.4628 6.56919H4.5375L10.4605 12.4922H11.5397L17.4628 6.56919Z" fill="black"></path>
  </g>
  <defs>
    <clipPath id="clip0_892_9508">
      <rect width="22" height="22" fill="white"></rect>
    </clipPath>
  </defs>
</svg>
