<?xml version="1.0" encoding="UTF-8"?>
<svg xmlns="http://www.w3.org/2000/svg" width="22" height="22" viewBox="0 0 22 22" fill="none">
  <g clip-path="url(#clip0_892_9510)">
    <path d="M18.7768 3.22065C14.4804 -1.07446 7.51552 -1.07343 3.22041 3.22302C-1.0747 7.51946 -1.07367 14.4843 3.22277 18.7794C7.51922 23.0745 14.484 23.0735 18.7791 18.777C20.8419 16.7136 22.0004 13.9153 21.9998 10.9977C21.9992 8.08051 20.8398 5.28307 18.7768 3.22065ZM16.6589 15.3229C16.6584 15.3234 16.6579 15.3239 16.6574 15.3243V15.3207L16.1001 15.8743C15.3793 16.6043 14.3295 16.9046 13.3317 16.6663C12.3265 16.3973 11.3709 15.969 10.5011 15.3977C9.69301 14.8813 8.94415 14.2775 8.26808 13.5973C7.64602 12.9798 7.08717 12.3018 6.59973 11.5733C6.06657 10.7895 5.64458 9.93564 5.34573 9.036C5.00314 7.97914 5.28703 6.81946 6.07908 6.04035L6.73173 5.3877C6.91319 5.20542 7.20804 5.20478 7.39027 5.38623C7.39074 5.38671 7.39126 5.38718 7.39173 5.3877L9.45238 7.44835C9.63466 7.62981 9.6353 7.92466 9.45384 8.10689C9.45337 8.10736 9.4529 8.10783 9.45238 8.10835L8.24238 9.31835C7.89519 9.66175 7.85154 10.2075 8.13973 10.6017C8.57737 11.2023 9.06167 11.7675 9.58808 12.292C10.175 12.8815 10.813 13.4177 11.4947 13.8944C11.8886 14.1691 12.4226 14.1228 12.7634 13.7844L13.933 12.5964C14.1145 12.4141 14.4093 12.4135 14.5916 12.5949C14.592 12.5954 14.5925 12.5959 14.593 12.5964L16.6574 14.6644C16.8397 14.8458 16.8403 15.1406 16.6589 15.3229Z" fill="black"></path>
  </g>
  <defs>
    <clipPath id="clip0_892_9510">
      <rect width="22" height="22" fill="white"></rect>
    </clipPath>
  </defs>
</svg>
