<svg width="32" height="32" viewBox="0 0 32 32" fill="none" xmlns="http://www.w3.org/2000/svg">
<path fill-rule="evenodd" clip-rule="evenodd" d="M9.66675 13.3333C9.66675 11.6536 10.334 10.0427 11.5217 8.85499C12.7095 7.66726 14.3204 7 16.0001 7C17.6798 7 19.2907 7.66726 20.4784 8.85499C21.6662 10.0427 22.3334 11.6536 22.3334 13.3333C22.3334 15.013 21.6662 16.6239 20.4784 17.8117C19.2907 18.9994 17.6798 19.6667 16.0001 19.6667C14.3204 19.6667 12.7095 18.9994 11.5217 17.8117C10.334 16.6239 9.66675 15.013 9.66675 13.3333ZM16.0001 9C14.8508 9 13.7486 9.45655 12.936 10.2692C12.1233 11.0819 11.6667 12.1841 11.6667 13.3333C11.6667 14.4826 12.1233 15.5848 12.936 16.3975C13.7486 17.2101 14.8508 17.6667 16.0001 17.6667C17.1494 17.6667 18.2516 17.2101 19.0642 16.3975C19.8769 15.5848 20.3334 14.4826 20.3334 13.3333C20.3334 12.1841 19.8769 11.0819 19.0642 10.2692C18.2516 9.45655 17.1494 9 16.0001 9Z" fill="#2F2F2F"/>
<path fill-rule="evenodd" clip-rule="evenodd" d="M4.69876 11.8093C4.92666 9.04503 6.18573 6.46755 8.22598 4.58859C10.2662 2.70963 12.9385 1.66662 15.7121 1.66663H16.2881C19.0617 1.66662 21.734 2.70963 23.7742 4.58859C25.8145 6.46755 27.0735 9.04503 27.3014 11.8093C27.555 14.8883 26.6038 17.9456 24.6481 20.3373L18.2574 28.152C17.9839 28.4864 17.6395 28.7559 17.2492 28.941C16.8588 29.126 16.4321 29.222 16.0001 29.222C15.5681 29.222 15.1414 29.126 14.751 28.941C14.3606 28.7559 14.0163 28.4864 13.7428 28.152L7.3521 20.3373C5.39625 17.9457 4.44501 14.8884 4.69876 11.8093ZM15.7121 3.66663C13.4407 3.66697 11.2525 4.52133 9.58186 6.06012C7.91117 7.59891 6.88014 9.70962 6.69343 11.9733C6.48223 14.5358 7.27381 17.0802 8.90143 19.0706L15.2921 26.8866C15.378 26.9918 15.4862 27.0765 15.6089 27.1347C15.7316 27.1929 15.8657 27.2231 16.0014 27.2231C16.1372 27.2231 16.2713 27.1929 16.394 27.1347C16.5166 27.0765 16.6249 26.9918 16.7108 26.8866L23.1014 19.0706C24.7281 17.0798 25.5187 14.5354 25.3068 11.9733C25.12 9.70939 24.0888 7.59849 22.4178 6.05967C20.7469 4.52085 18.5583 3.66663 16.2868 3.66663H15.7121Z" fill="#2F2F2F"/>
<path d="M22 29.4999C22 30.3284 19.3137 30.9999 16 30.9999C12.6863 30.9999 10 30.3284 10 29.4999C10 28.6715 12.6863 27.9999 16 27.9999C19.3137 27.9999 22 28.6715 22 29.4999Z" fill="black"/>
</svg>
