<svg width="17" height="14" viewBox="0 0 17 14" fill="none" xmlns="http://www.w3.org/2000/svg">
<path d="M14.2154 6.31239H1.4375C1.25516 6.31239 1.0803 6.38483 0.951364 6.51376C0.822433 6.64269 0.75 6.81755 0.75 6.99989C0.75 7.18223 0.822433 7.3571 0.951364 7.48603C1.0803 7.61496 1.25516 7.68739 1.4375 7.68739H14.2154L9.20075 12.7006C9.07166 12.8297 8.99913 13.0048 8.99913 13.1874C8.99913 13.37 9.07166 13.545 9.20075 13.6741C9.32984 13.8032 9.50493 13.8758 9.6875 13.8758C9.87007 13.8758 10.0452 13.8032 10.1742 13.6741L16.3617 7.48664C16.4258 7.42278 16.4766 7.34691 16.5112 7.26339C16.5459 7.17986 16.5637 7.09032 16.5637 6.99989C16.5637 6.90946 16.5459 6.81992 16.5112 6.7364C16.4766 6.65287 16.4258 6.577 16.3617 6.51314L10.1742 0.325642C10.0452 0.196548 9.87007 0.124023 9.6875 0.124023C9.50493 0.124023 9.32984 0.196548 9.20075 0.325642C9.07166 0.454736 8.99913 0.629825 8.99913 0.812392C8.99913 0.994959 9.07166 1.17005 9.20075 1.29914L14.2154 6.31239Z" fill="#040F0F"/>
</svg>
