<svg width="24" height="24" viewBox="0 0 24 24" fill="none" xmlns="http://www.w3.org/2000/svg">
<path fill-rule="evenodd" clip-rule="evenodd" d="M12.7069 15.707C12.5194 15.8944 12.2651 15.9998 11.9999 15.9998C11.7348 15.9998 11.4805 15.8944 11.2929 15.707L5.63594 10.05C5.54043 9.95773 5.46425 9.84738 5.41184 9.72538C5.35943 9.60338 5.33185 9.47216 5.33069 9.33938C5.32954 9.2066 5.35484 9.07492 5.40512 8.95202C5.4554 8.82913 5.52965 8.71747 5.62355 8.62358C5.71744 8.52969 5.82909 8.45544 5.95199 8.40515C6.07488 8.35487 6.20656 8.32957 6.33934 8.33073C6.47212 8.33188 6.60334 8.35947 6.72535 8.41187C6.84735 8.46428 6.95769 8.54047 7.04994 8.63598L11.9999 13.586L16.9499 8.63598C17.1385 8.45382 17.3911 8.35302 17.6533 8.3553C17.9155 8.35758 18.1664 8.46275 18.3518 8.64816C18.5372 8.83357 18.6423 9.08438 18.6446 9.34658C18.6469 9.60877 18.5461 9.86137 18.3639 10.05L12.7069 15.707Z" fill="black"/>
</svg>
