<svg width="20" height="20" viewBox="0 0 20 20" fill="none" xmlns="http://www.w3.org/2000/svg">
<path d="M19.0367 17.8384L15.4592 14.2609C16.8038 12.6091 17.4626 10.5041 17.2996 8.38057C17.1365 6.25704 16.1641 4.27723 14.5832 2.8501C13.0023 1.42297 10.9336 0.657551 8.80455 0.711941C6.67546 0.76633 4.64859 1.63638 3.14261 3.14236C1.63662 4.64835 0.766574 6.67522 0.712185 8.80431C0.657795 10.9334 1.42322 13.0021 2.85034 14.583C4.27747 16.1639 6.25728 17.1363 8.38082 17.2993C10.5044 17.4623 12.6094 16.8035 14.2611 15.459L17.8386 19.0365C17.9986 19.1933 18.2136 19.2812 18.4377 19.2812C18.6617 19.2812 18.8768 19.1933 19.0367 19.0365C19.1948 18.8772 19.2835 18.6618 19.2835 18.4374C19.2835 18.213 19.1948 17.9977 19.0367 17.8384ZM2.40642 9.02117C2.40642 7.71285 2.79438 6.43391 3.52125 5.34608C4.24811 4.25825 5.28123 3.41038 6.48997 2.90971C7.6987 2.40904 9.02876 2.27804 10.3119 2.53328C11.5951 2.78852 12.7738 3.41854 13.6989 4.34366C14.6241 5.26879 15.2541 6.44747 15.5093 7.73065C15.7646 9.01383 15.6336 10.3439 15.1329 11.5526C14.6322 12.7614 13.7843 13.7945 12.6965 14.5213C11.6087 15.2482 10.3297 15.6362 9.02142 15.6362C7.26788 15.6333 5.58698 14.9355 4.34704 13.6956C3.1071 12.4556 2.40925 10.7747 2.40642 9.02117Z" fill="#979797"/>
</svg>
