<svg width="19" height="19" viewBox="0 0 19 19" fill="none" xmlns="http://www.w3.org/2000/svg">
<path d="M18.7491 17.3386L15.1716 13.7611C16.5162 12.1094 17.175 10.0043 17.012 7.88081C16.8489 5.75728 15.8765 3.77747 14.2956 2.35034C12.7147 0.923217 10.646 0.157795 8.51696 0.212185C6.38787 0.266574 4.36099 1.13662 2.85501 2.64261C1.34902 4.14859 0.478977 6.17546 0.424587 8.30455C0.370198 10.4336 1.13562 12.5023 2.56275 14.0832C3.98987 15.6641 5.96968 16.6365 8.09322 16.7996C10.2168 16.9626 12.3218 16.3038 13.9735 14.9592L17.551 18.5367C17.711 18.6936 17.9261 18.7814 18.1501 18.7814C18.3741 18.7814 18.5892 18.6936 18.7491 18.5367C18.9072 18.3774 18.9959 18.1621 18.9959 17.9377C18.9959 17.7132 18.9072 17.4979 18.7491 17.3386ZM2.11882 8.52142C2.11882 7.21309 2.50678 5.93415 3.23365 4.84632C3.96051 3.75849 4.99364 2.91063 6.20237 2.40996C7.4111 1.90928 8.74116 1.77828 10.0243 2.03352C11.3075 2.28877 12.4862 2.91878 13.4113 3.84391C14.3365 4.76903 14.9665 5.94771 15.2217 7.2309C15.477 8.51408 15.346 9.84413 14.8453 11.0529C14.3446 12.2616 13.4967 13.2947 12.4089 14.0216C11.3211 14.7485 10.0421 15.1364 8.73382 15.1364C6.98028 15.1336 5.29938 14.4357 4.05944 13.1958C2.8195 11.9559 2.12165 10.275 2.11882 8.52142Z" fill="black"/>
</svg>
