<svg width="266" height="43" viewBox="0 0 266 43" fill="none" xmlns="http://www.w3.org/2000/svg">
<path d="M40.2075 29.2798H30.7171V9.6088C30.7171 9.4995 30.6292 9.41113 30.5205 9.41113H29.054C28.9453 9.41113 28.8574 9.4995 28.8574 9.6088V30.7495C28.8574 30.8588 28.9453 30.9472 29.054 30.9472H40.2098C40.3186 30.9472 40.4064 30.8588 40.4064 30.7495V29.4798C40.4064 29.3705 40.3186 29.2822 40.2098 29.2822" fill="#101820"/>
<path d="M54.2201 15.1456H50.8755V12.0132C50.8755 9.79706 51.5971 8.72037 53.0844 8.72037C53.6696 8.72037 54.271 8.86455 54.8238 9.13663C54.8747 9.16221 54.9325 9.16454 54.9857 9.14128C55.0366 9.12035 55.0783 9.07617 55.0968 9.02036L55.4784 7.86461C55.5108 7.76694 55.4645 7.66229 55.372 7.62043C54.611 7.27859 53.7691 7.08325 53.059 7.08325C50.4869 7.08325 49.0713 8.79944 49.0713 11.9132V15.1549L47.1492 15.2758C47.0451 15.2828 46.9641 15.3689 46.9641 15.4735V16.5758C46.9641 16.6851 47.052 16.7734 47.1607 16.7734H49.069V30.7424C49.069 30.8517 49.1569 30.9401 49.2656 30.9401H50.6765C50.7853 30.9401 50.8732 30.8517 50.8732 30.7424V16.7734H54.2178C54.3265 16.7734 54.4144 16.6851 54.4144 16.5758V15.3386C54.4144 15.2293 54.3265 15.141 54.2178 15.141" fill="#101820"/>
<path d="M61.483 14.7595C58.1476 14.7595 54.604 17.6733 54.604 23.073C54.604 27.9332 57.5971 31.3284 61.8832 31.3284C64.1684 31.3284 65.5748 30.5656 66.8192 29.7843C66.9071 29.7285 66.9371 29.6145 66.8886 29.5215L66.308 28.4448C66.2826 28.396 66.234 28.3588 66.1808 28.3472C66.1253 28.3355 66.0674 28.3472 66.0212 28.3774C64.7421 29.2843 63.4699 29.7075 62.0196 29.7075C58.7952 29.7075 56.577 27.1961 56.4521 23.4381H67.2679C67.3628 23.4381 67.446 23.3684 67.4622 23.273C67.5339 22.8544 67.5455 22.4382 67.5455 22.0847C67.5455 17.4966 65.2787 14.7595 61.483 14.7595ZM56.4614 21.8754C56.8199 18.6291 58.8669 16.3827 61.4969 16.3827C64.1268 16.3827 65.7691 18.3314 65.8223 21.8754H56.4614Z" fill="#101820"/>
<path d="M77.7483 15.1014C77.2603 14.8595 76.7953 14.7595 76.1407 14.7595C74.5355 14.7595 73.0366 15.7827 71.8801 17.657L71.7552 15.3316C71.7506 15.2269 71.6627 15.1455 71.5586 15.1455H70.3651C70.2564 15.1455 70.1685 15.2339 70.1685 15.3432V30.747C70.1685 30.8563 70.2564 30.9447 70.3651 30.9447H71.776C71.8847 30.9447 71.9726 30.8563 71.9726 30.747V20.3081C72.9511 17.8896 74.4013 16.5013 75.9557 16.5013C76.5016 16.5013 76.7629 16.5617 77.2741 16.7478C77.3273 16.7664 77.3852 16.7617 77.4337 16.7362C77.4823 16.7106 77.5193 16.6641 77.5332 16.6106L77.8524 15.3269C77.8755 15.2362 77.8316 15.1432 77.7483 15.1014Z" fill="#101820"/>
<path d="M44.1676 15.1455H42.7567C42.648 15.1455 42.5601 15.2339 42.5601 15.3432V30.747C42.5601 30.8563 42.648 30.9447 42.7567 30.9447H44.1676C44.2763 30.9447 44.3642 30.8563 44.3642 30.747V15.3432C44.3642 15.2339 44.2763 15.1455 44.1676 15.1455Z" fill="#101820"/>
<path d="M44.1767 9.34595H42.7472C42.5032 9.34595 42.3054 9.54481 42.3054 9.79011V11.2272C42.3054 11.4725 42.5032 11.6714 42.7472 11.6714H44.1767C44.4207 11.6714 44.6185 11.4725 44.6185 11.2272V9.79011C44.6185 9.54481 44.4207 9.34595 44.1767 9.34595Z" fill="#101820"/>
<path d="M90.3798 15.1455H89.1493C89.0452 15.1455 88.9596 15.2269 88.9527 15.3293L88.8717 16.4943C87.5463 15.4455 86.258 14.7595 84.4376 14.7595C80.3782 14.7595 77.4314 18.257 77.4314 23.073C77.4314 28.2425 79.874 31.3284 83.9657 31.3284C85.652 31.3284 87.3382 30.568 88.8648 29.1215L88.9897 30.761C88.9966 30.8633 89.0822 30.9447 89.1863 30.9447H90.3798C90.4885 30.9447 90.5764 30.8563 90.5764 30.747V15.3432C90.5764 15.2339 90.4885 15.1455 90.3798 15.1455ZM88.7722 18.2872V27.2519C87.123 28.9285 85.7005 29.675 84.1693 29.675C81.123 29.675 79.305 27.2054 79.305 23.066C79.305 19.3337 81.5879 16.4129 84.5001 16.4129C86.0012 16.4129 87.2826 16.9734 88.7699 18.2872" fill="#101820"/>
<path d="M105.657 15.2294C105.62 15.1782 105.56 15.1456 105.495 15.1456H104.052C103.969 15.1456 103.893 15.1991 103.865 15.2805L100.603 24.9614C100.43 25.473 100.25 26.0381 100.067 26.6171C99.8147 27.4031 99.5556 28.2147 99.2965 28.9588C98.9773 28.1542 98.6466 27.2799 98.3227 26.4311C98.1261 25.9125 97.9365 25.4102 97.7584 24.9521L94.0621 15.2712C94.0321 15.1945 93.9603 15.1433 93.8794 15.1433H92.3551C92.2903 15.1433 92.2279 15.1759 92.1909 15.2294C92.1539 15.2828 92.1469 15.3526 92.1724 15.4131L98.4384 31.0401L98.0406 32.3098C97.4415 34.1121 96.3081 36.2608 94.3027 36.2608C93.8863 36.2608 93.4052 36.1329 93.123 36.0236C93.0721 36.005 93.0143 36.0073 92.9634 36.0329C92.9149 36.0585 92.8778 36.105 92.8617 36.1585L92.5355 37.384C92.5101 37.477 92.5563 37.5747 92.6442 37.6142C93.1022 37.8258 93.7175 37.9537 94.2911 37.9537C96.6527 37.9537 98.5008 36.1515 99.6319 32.747L105.683 15.4038C105.704 15.3433 105.694 15.2759 105.657 15.2247" fill="#101820"/>
<path d="M111.232 12.5364C109.941 12.5364 108.894 13.5921 108.894 14.8874C108.894 16.1827 109.944 17.2384 111.232 17.2384C112.52 17.2384 113.571 16.1827 113.571 14.8874C113.571 13.5921 112.52 12.5364 111.232 12.5364ZM111.232 16.8734C110.143 16.8734 109.257 15.9827 109.257 14.8874C109.257 13.7921 110.143 12.9015 111.232 12.9015C112.321 12.9015 113.207 13.7921 113.207 14.8874C113.207 15.9827 112.321 16.8734 111.232 16.8734Z" fill="#101820"/>
<path d="M110.878 15.227H111.246L111.713 16.0782H112.217L111.697 15.1596C111.993 15.0573 112.187 14.8224 112.187 14.4457C112.187 13.8829 111.787 13.6992 111.267 13.6992H110.427V16.0782H110.88V15.227H110.878ZM110.878 14.062H111.22C111.558 14.062 111.741 14.162 111.741 14.4434C111.741 14.7247 111.558 14.8643 111.22 14.8643H110.878V14.062Z" fill="#101820"/>
<path d="M20.8636 9.33887H2.4865C1.60291 9.33887 0.888184 10.0574 0.888184 10.9458V29.4215C0.888184 30.3098 1.60291 31.0284 2.4865 31.0284H20.8636C21.7472 31.0284 22.4619 30.3098 22.4619 29.4215V10.9458C22.4619 10.0574 21.7472 9.33887 20.8636 9.33887ZM7.27912 23.3962C7.27912 23.6172 7.10102 23.7985 6.87897 23.7985H4.48265C4.26291 23.7985 4.0825 23.6195 4.0825 23.3962V20.9871C4.0825 20.7662 4.2606 20.5848 4.48265 20.5848H6.87897C7.09871 20.5848 7.27912 20.7638 7.27912 20.9871V23.3962ZM7.27912 19.3802C7.27912 19.6011 7.10102 19.7825 6.87897 19.7825H4.48265C4.26291 19.7825 4.0825 19.6034 4.0825 19.3802V16.971C4.0825 16.7501 4.2606 16.5687 4.48265 16.5687H6.87897C7.09871 16.5687 7.27912 16.7478 7.27912 16.971V19.3802ZM7.27912 15.3641C7.27912 15.585 7.10102 15.7664 6.87897 15.7664H4.48265C4.26291 15.7664 4.0825 15.5874 4.0825 15.3641V12.955C4.0825 12.734 4.2606 12.5526 4.48265 12.5526H6.87897C7.09871 12.5526 7.27912 12.7317 7.27912 12.955V15.3641ZM11.2737 27.4146C11.2737 27.6355 11.0956 27.8169 10.8736 27.8169H8.47728C8.25754 27.8169 8.07712 27.6379 8.07712 27.4146V25.0055C8.07712 24.7845 8.25523 24.6032 8.47728 24.6032H10.8736C11.0933 24.6032 11.2737 24.7822 11.2737 25.0055V27.4146ZM11.2737 19.3825C11.2737 19.6034 11.0956 19.7848 10.8736 19.7848H8.47728C8.25754 19.7848 8.07712 19.6058 8.07712 19.3825V16.9733C8.07712 16.7524 8.25523 16.571 8.47728 16.571H10.8736C11.0933 16.571 11.2737 16.7501 11.2737 16.9733V19.3825ZM11.2737 15.3664C11.2737 15.5874 11.0956 15.7688 10.8736 15.7688H8.47728C8.25754 15.7688 8.07712 15.5897 8.07712 15.3664V12.9573C8.07712 12.7364 8.25523 12.555 8.47728 12.555H10.8736C11.0933 12.555 11.2737 12.734 11.2737 12.9573V15.3664ZM15.2684 27.417C15.2684 27.6379 15.0903 27.8193 14.8682 27.8193H12.4719C12.2522 27.8193 12.0717 27.6402 12.0717 27.417V25.0078C12.0717 24.7869 12.2499 24.6055 12.4719 24.6055H14.8682C15.088 24.6055 15.2684 24.7845 15.2684 25.0078V27.417ZM15.2684 23.4009C15.2684 23.6218 15.0903 23.8032 14.8682 23.8032H12.4719C12.2522 23.8032 12.0717 23.6241 12.0717 23.4009V20.9917C12.0717 20.7708 12.2499 20.5894 12.4719 20.5894H14.8682C15.088 20.5894 15.2684 20.7685 15.2684 20.9917V23.4009ZM15.2684 15.3688C15.2684 15.5897 15.0903 15.7711 14.8682 15.7711H12.4719C12.2522 15.7711 12.0717 15.592 12.0717 15.3688V12.9596C12.0717 12.7387 12.2499 12.5573 12.4719 12.5573H14.8682C15.088 12.5573 15.2684 12.7364 15.2684 12.9596V15.3688ZM19.263 27.4193C19.263 27.6402 19.0849 27.8216 18.8628 27.8216H16.4665C16.2468 27.8216 16.0664 27.6425 16.0664 27.4193V25.0101C16.0664 24.7892 16.2445 24.6078 16.4665 24.6078H18.8628C19.0826 24.6078 19.263 24.7869 19.263 25.0101V27.4193ZM19.263 23.4032C19.263 23.6241 19.0849 23.8055 18.8628 23.8055H16.4665C16.2468 23.8055 16.0664 23.6265 16.0664 23.4032V20.9941C16.0664 20.7731 16.2445 20.5917 16.4665 20.5917H18.8628C19.0826 20.5917 19.263 20.7708 19.263 20.9941V23.4032ZM19.263 19.3872C19.263 19.6081 19.0849 19.7895 18.8628 19.7895H16.4665C16.2468 19.7895 16.0664 19.6104 16.0664 19.3872V16.978C16.0664 16.7571 16.2445 16.5757 16.4665 16.5757H18.8628C19.0826 16.5757 19.263 16.7547 19.263 16.978V19.3872Z" fill="#1D51A4"/>
<path d="M145.051 16.7897L145.858 15.8014C146.45 16.3711 147.269 16.7013 148.065 16.7013C148.972 16.7013 149.476 16.2827 149.476 15.6502C149.476 15.0177 148.946 14.7758 148.204 14.4596L147.082 13.9642C146.263 13.6224 145.416 12.9759 145.416 11.7713C145.416 10.4412 146.575 9.41333 148.19 9.41333C149.187 9.41333 150.107 9.81796 150.748 10.4389L149.941 11.4272C149.425 10.983 148.819 10.7295 148.187 10.7295C147.419 10.7295 146.927 11.0853 146.927 11.6806C146.927 12.3155 147.544 12.5434 148.224 12.8341L149.335 13.2899C150.318 13.7084 150.998 14.3293 150.998 15.5339C150.998 16.878 149.887 18.0059 148.023 18.0059C146.887 18.0059 145.83 17.5873 145.049 16.7897H145.051Z" fill="#101820"/>
<path d="M152.767 13.6712C152.767 10.997 154.254 9.41333 156.41 9.41333C158.566 9.41333 160.053 10.997 160.053 13.6712C160.053 16.3455 158.566 18.0059 156.41 18.0059C154.254 18.0059 152.767 16.3571 152.767 13.6712ZM158.515 13.6712C158.515 11.8341 157.682 10.7295 156.41 10.7295C155.138 10.7295 154.305 11.8318 154.305 13.6712C154.305 15.5107 155.124 16.7013 156.41 16.7013C157.696 16.7013 158.515 15.5223 158.515 13.6712Z" fill="#101820"/>
<path d="M162.399 9.56445H163.9V16.5873H167.305V17.8547H162.401V9.56445H162.399Z" fill="#101820"/>
<path d="M168.965 14.2037V9.56445H170.466V14.3177C170.466 16.106 171.121 16.7013 172.118 16.7013C173.115 16.7013 173.795 16.106 173.795 14.3177V9.56445H175.245V14.2037C175.245 16.9292 174.047 18.0059 172.118 18.0059C170.189 18.0059 168.965 16.9292 168.965 14.2037Z" fill="#101820"/>
<path d="M179.631 10.8318H177.26V9.56445H183.501V10.8318H181.13V17.8547H179.629V10.8318H179.631Z" fill="#101820"/>
<path d="M185.568 9.56445H187.07V17.8547H185.568V9.56445Z" fill="#101820"/>
<path d="M189.415 13.6712C189.415 10.997 190.902 9.41333 193.058 9.41333C195.214 9.41333 196.701 10.997 196.701 13.6712C196.701 16.3455 195.214 18.0059 193.058 18.0059C190.902 18.0059 189.415 16.3571 189.415 13.6712ZM195.163 13.6712C195.163 11.8341 194.33 10.7295 193.058 10.7295C191.786 10.7295 190.953 11.8318 190.953 13.6712C190.953 15.5107 191.772 16.7013 193.058 16.7013C194.344 16.7013 195.163 15.5223 195.163 13.6712Z" fill="#101820"/>
<path d="M199.047 9.56445H200.647L203.118 14.127C203.421 14.6851 203.698 15.3432 203.962 16.0036H204.013C203.925 15.1153 203.823 14.1014 203.823 13.1898V9.56445H205.222V17.8547H203.622L201.152 13.2922C200.849 12.734 200.571 12.0759 200.307 11.4155H200.256C200.344 12.2783 200.446 13.3038 200.446 14.2293V17.8547H199.047V9.56445Z" fill="#101820"/>
<path d="M211.223 9.56445H213.832C215.659 9.56445 217.033 10.2109 217.033 12.1364C217.033 14.0619 215.659 14.8246 213.88 14.8246H212.721V17.8547H211.22V9.56445H211.223ZM213.769 13.62C214.979 13.62 215.546 13.1387 215.546 12.1364C215.546 11.1341 214.916 10.7667 213.718 10.7667H212.721V13.6177H213.767L213.769 13.62Z" fill="#101820"/>
<path d="M220.239 9.56445H222.004L224.677 17.8547H223.088L222.459 15.6362H219.723L219.094 17.8547H217.567L220.241 9.56445H220.239ZM220.063 14.4572H222.131L221.853 13.4689C221.59 12.5945 221.349 11.6434 221.108 10.7435H221.058C220.842 11.655 220.604 12.5945 220.338 13.4689L220.061 14.4572H220.063Z" fill="#101820"/>
<path d="M226.389 9.56445H229.176C230.904 9.56445 232.227 10.1737 232.227 12.0364C232.227 13.2922 231.584 14.0642 230.601 14.4061L232.556 17.8547H230.879L229.114 14.6363H227.89V17.8547H226.389V9.56445ZM229.024 13.4294C230.146 13.4294 230.752 12.9596 230.752 12.0341C230.752 11.1086 230.146 10.7667 229.024 10.7667H227.888V13.4294H229.024Z" fill="#101820"/>
<path d="M236.021 10.8318H233.65V9.56445H239.89V10.8318H237.519V17.8547H236.018V10.8318H236.021Z" fill="#101820"/>
<path d="M241.958 9.56445H243.559L246.029 14.127C246.332 14.6851 246.61 15.3432 246.873 16.0036H246.924C246.836 15.1153 246.735 14.1014 246.735 13.1898V9.56445H248.134V17.8547H246.533L244.063 13.2922C243.76 12.734 243.483 12.0759 243.219 11.4155H243.168C243.256 12.2783 243.358 13.3038 243.358 14.2293V17.8547H241.958V9.56445Z" fill="#101820"/>
<path d="M250.921 9.56445H255.901V10.8318H252.422V12.9108H255.371V14.1782H252.422V16.5873H256.028V17.8547H250.921V9.56445Z" fill="#101820"/>
<path d="M258.411 9.56445H261.198C262.926 9.56445 264.249 10.1737 264.249 12.0364C264.249 13.2922 263.606 14.0642 262.623 14.4061L264.577 17.8547H262.901L261.136 14.6363H259.912V17.8547H258.411V9.56445ZM261.045 13.4294C262.167 13.4294 262.773 12.9596 262.773 12.0341C262.773 11.1086 262.167 10.7667 261.045 10.7667H259.91V13.4294H261.045Z" fill="#101820"/>
<path d="M145.051 29.4982L145.858 28.5099C146.45 29.0796 147.269 29.4098 148.065 29.4098C148.972 29.4098 149.476 28.9912 149.476 28.3587C149.476 27.7262 148.946 27.4843 148.204 27.1681L147.082 26.6727C146.263 26.3309 145.416 25.6844 145.416 24.4798C145.416 23.1497 146.575 22.1218 148.19 22.1218C149.187 22.1218 150.107 22.5265 150.748 23.1474L149.941 24.1357C149.425 23.6915 148.819 23.438 148.187 23.438C147.419 23.438 146.927 23.7938 146.927 24.3891C146.927 25.024 147.544 25.2519 148.224 25.5426L149.335 25.9984C150.318 26.4169 150.998 27.0378 150.998 28.2424C150.998 29.5865 149.887 30.7144 148.023 30.7144C146.887 30.7144 145.83 30.2958 145.049 29.4982H145.051Z" fill="#808184"/>
<path d="M153.195 22.2732H154.696V30.5634H153.195V22.2732Z" fill="#808184"/>
<path d="M157.47 22.2732H158.971V29.2961H162.376V30.5634H157.472V22.2732H157.47Z" fill="#808184"/>
<path d="M162.424 22.2732H164.013L165.11 26.4172C165.362 27.3543 165.551 28.1659 165.829 29.1031H165.88C166.157 28.1659 166.333 27.3543 166.599 26.4172L167.772 22.2732H169.31L166.712 30.5634H164.934L162.424 22.2732Z" fill="#808184"/>
<path d="M170.996 22.2732H175.976V23.5406H172.498V25.6195H175.447V26.8869H172.498V29.2961H176.104V30.5634H170.996V22.2732Z" fill="#808184"/>
<path d="M178.484 22.2732H181.271C182.999 22.2732 184.322 22.8825 184.322 24.7452C184.322 26.0009 183.679 26.773 182.696 27.1148L184.65 30.5634H182.973L181.208 27.345H179.985V30.5634H178.484V22.2732ZM181.118 26.1381C182.24 26.1381 182.846 25.6684 182.846 24.7428C182.846 23.8173 182.24 23.4755 181.118 23.4755H179.982V26.1381H181.118Z" fill="#808184"/>
<path d="M129.595 2.11859C129.595 1.7988 129.337 1.53955 129.019 1.53955C128.701 1.53955 128.443 1.7988 128.443 2.11859V40.6165C128.443 40.9363 128.701 41.1955 129.019 41.1955C129.337 41.1955 129.595 40.9363 129.595 40.6165V2.11859Z" fill="#101820"/>
</svg>
