<svg width="19" height="16" viewBox="0 0 19 16" fill="none" xmlns="http://www.w3.org/2000/svg">
<path d="M3.1327 8.77344L17.5078 8.77344C17.7129 8.77344 17.9097 8.69195 18.0547 8.5469C18.1998 8.40185 18.2813 8.20513 18.2813 8C18.2813 7.79487 18.1998 7.59814 18.0547 7.4531C17.9097 7.30805 17.7129 7.22656 17.5078 7.22656L3.1327 7.22656L8.77416 1.58665C8.91939 1.44142 9.00098 1.24445 9.00098 1.03906C9.00098 0.833673 8.91939 0.636698 8.77416 0.491467C8.62893 0.346235 8.43195 0.264647 8.22656 0.264647C8.02118 0.264647 7.8242 0.346235 7.67897 0.491467L0.718032 7.4524C0.646004 7.52425 0.588858 7.6096 0.549868 7.70357C0.510876 7.79753 0.490805 7.89826 0.490805 8C0.490805 8.10173 0.510876 8.20247 0.549868 8.29643C0.588858 8.3904 0.646004 8.47575 0.718032 8.54759L7.67897 15.5085C7.8242 15.6538 8.02118 15.7354 8.22656 15.7354C8.43195 15.7354 8.62893 15.6538 8.77416 15.5085C8.91939 15.3633 9.00098 15.1663 9.00098 14.9609C9.00098 14.7555 8.91939 14.5586 8.77416 14.4133L3.1327 8.77344Z" fill="black"/>
</svg>
