<svg width="19" height="16" viewBox="0 0 19 16" fill="none" xmlns="http://www.w3.org/2000/svg">
<path d="M15.8673 7.22656H1.49219C1.28706 7.22656 1.09033 7.30805 0.945285 7.4531C0.800237 7.59815 0.71875 7.79487 0.71875 8C0.71875 8.20513 0.800237 8.40186 0.945285 8.5469C1.09033 8.69195 1.28706 8.77344 1.49219 8.77344H15.8673L10.2258 14.4133C10.0806 14.5586 9.99902 14.7556 9.99902 14.9609C9.99902 15.1663 10.0806 15.3633 10.2258 15.5085C10.3711 15.6538 10.5681 15.7354 10.7734 15.7354C10.9788 15.7354 11.1758 15.6538 11.321 15.5085L18.282 8.5476C18.354 8.47575 18.4111 8.3904 18.4501 8.29643C18.4891 8.20247 18.5092 8.10173 18.5092 8C18.5092 7.89827 18.4891 7.79753 18.4501 7.70357C18.4111 7.6096 18.354 7.52425 18.282 7.45241L11.321 0.491469C11.1758 0.346238 10.9788 0.264648 10.7734 0.264648C10.5681 0.264648 10.3711 0.346238 10.2258 0.491469C10.0806 0.6367 9.99902 0.833675 9.99902 1.03906C9.99902 1.24445 10.0806 1.44143 10.2258 1.58666L15.8673 7.22656Z" fill="black"/>
</svg>
