<svg width="387" height="324" viewBox="0 0 387 324" fill="none" xmlns="http://www.w3.org/2000/svg">
<g clip-path="url(#clip0_4805_2424)">
<path d="M342.762 212.345H203.232C200.761 212.345 198.676 210.337 198.676 207.789V4.55577C198.676 2.08484 200.683 0 203.232 0H342.762C345.233 0 347.317 2.00763 347.317 4.55577V207.867C347.317 210.337 345.31 212.345 342.762 212.345ZM203.232 0.154433C200.838 0.154433 198.907 2.08484 198.907 4.47855V207.789C198.907 210.183 200.838 212.113 203.232 212.113H342.762C345.155 212.113 347.086 210.183 347.086 207.789V4.55577C347.086 2.16206 345.155 0.231649 342.762 0.231649H203.232V0.154433Z" fill="#E0E0E0"/>
<path d="M181.843 212.345H42.2355C39.7645 212.345 37.6797 210.337 37.6797 207.789V4.55577C37.6797 2.08484 39.6873 0 42.2355 0H181.765C184.236 0 186.321 2.00763 186.321 4.55577V207.867C186.398 210.337 184.314 212.345 181.843 212.345ZM42.2355 0.154433C39.8417 0.154433 37.9113 2.08484 37.9113 4.47855V207.789C37.9113 210.183 39.8417 212.113 42.2355 212.113H181.765C184.159 212.113 186.09 210.183 186.09 207.789V4.55577C186.09 2.16206 184.159 0.231649 181.765 0.231649H42.2355V0.154433Z" fill="#E0E0E0"/>
<path d="M386.082 259.523H0V259.678H386.082V259.523Z" fill="#E0E0E0"/>
<path d="M52.3537 270.489H39.9219V270.644H52.3537V270.489Z" fill="#E0E0E0"/>
<path d="M172.889 268.403H131.578V268.557H172.889V268.403Z" fill="#E0E0E0"/>
<path d="M80.9992 277.67H53.0469V277.824H80.9992V277.67Z" fill="#E0E0E0"/>
<path d="M325.545 268.327H292.188V268.481H325.545V268.327Z" fill="#E0E0E0"/>
<path d="M337.283 268.327H332.418V268.481H337.283V268.327Z" fill="#E0E0E0"/>
<path d="M285.776 273.114H244.156V273.269H285.776V273.114Z" fill="#E0E0E0"/>
<path d="M53.9737 249.255C54.3598 248.097 55.2864 247.556 56.2902 247.325C57.0624 247.093 57.7573 247.325 58.6067 247.556C58.9928 247.711 59.4561 247.943 59.9194 248.251C59.8421 247.711 59.7649 247.17 59.8421 246.707C59.9966 245.858 60.151 245.163 60.6915 244.545C61.3865 243.773 62.2359 243.232 63.4713 243.387C64.6296 243.541 65.4017 244.545 65.7878 245.626C66.1739 246.707 66.0967 248.02 65.9422 249.101C65.5562 251.34 65.0929 253.116 64.089 254.892C61.5409 254.969 60.2282 254.66 58.0662 253.965C57.0624 253.657 55.8269 253.039 55.0547 252.267C54.1281 251.572 53.5876 250.336 53.9737 249.255Z" fill="#EBEBEB"/>
<path d="M346.604 136.33L277.043 158.117L291.653 204.761L361.214 182.974L346.604 136.33Z" fill="#EBEBEB"/>
<path d="M277.668 158.449C277.668 158.449 319.674 177.135 320.986 176.672C322.299 176.286 346.159 136.828 346.159 136.828" stroke="#FAFAFA" stroke-width="0.772164" stroke-miterlimit="10" stroke-linecap="round" stroke-linejoin="round"/>
<path d="M291.645 204.778L307.088 171.266" stroke="#FAFAFA" stroke-width="0.772164" stroke-miterlimit="10"/>
<path d="M361.139 183.003L329.172 164.935" stroke="#FAFAFA" stroke-width="0.772164" stroke-miterlimit="10"/>
<path d="M84.4816 174.563L34.8477 150.037L18.3942 183.334L68.0281 207.86L84.4816 174.563Z" fill="#EBEBEB"/>
<path d="M35.0586 150.571C35.0586 150.571 48.3398 182.848 49.2664 183.311C50.193 183.774 84.0138 174.663 84.0138 174.663" stroke="#FAFAFA" stroke-width="0.772164" stroke-miterlimit="10" stroke-linecap="round" stroke-linejoin="round"/>
<path d="M18.3789 183.311L44.4781 172.964" stroke="#FAFAFA" stroke-width="0.772164" stroke-miterlimit="10"/>
<path d="M68.0296 207.79L59.9219 181.15" stroke="#FAFAFA" stroke-width="0.772164" stroke-miterlimit="10"/>
<path d="M276.472 37.6765L216.496 32.1433L212.786 72.3579L272.762 77.891L276.472 37.6765Z" fill="#EBEBEB"/>
<path d="M216.902 32.5862C216.902 32.5862 243.001 60.2296 244.16 60.3069C245.318 60.3841 276.05 37.9913 276.05 37.9913" stroke="#FAFAFA" stroke-width="0.772164" stroke-miterlimit="10" stroke-linecap="round" stroke-linejoin="round"/>
<path d="M212.812 72.3524L235.282 51.6584" stroke="#FAFAFA" stroke-width="0.772164" stroke-miterlimit="10"/>
<path d="M272.807 77.8347L254.121 53.9749" stroke="#FAFAFA" stroke-width="0.772164" stroke-miterlimit="10"/>
<path d="M352.341 319.29C352.341 321.916 280.143 324 191.036 324C101.928 324 29.7305 321.916 29.7305 319.29C29.7305 316.665 101.928 314.58 191.036 314.58C280.143 314.58 352.341 316.665 352.341 319.29Z" fill="#EBEBEB"/>
<path d="M290.255 277.824L123.854 262.458C121.769 262.303 120.225 260.45 120.457 258.365L130.958 144.316L216.205 91.346C219.371 89.4156 223.386 89.7244 226.166 92.1181L304.849 160.3L294.348 274.426C294.193 276.511 292.34 277.978 290.255 277.824Z" fill="#455A64"/>
<g opacity="0.2" filter="url(#filter0_d_4805_2424)">
<path d="M290.255 277.824L123.854 262.458C121.769 262.303 120.225 260.45 120.457 258.365L130.958 144.316L216.205 91.346C219.371 89.4156 223.386 89.7244 226.166 92.1181L304.849 160.3L294.348 274.426C294.193 276.511 292.34 277.978 290.255 277.824Z" fill="#DBDBDB"/>
</g>
<g filter="url(#filter1_d_4805_2424)">
<path d="M304.929 160.301L294.427 274.427C294.195 276.357 292.651 277.824 290.721 277.824H290.335L123.933 262.458H123.547C121.694 262.072 120.381 260.373 120.536 258.443L131.037 144.317L200.378 202.306L204.161 205.472L210.261 210.569L217.52 206.708L222.075 204.314L304.929 160.301Z" fill="#DBDBDB"/>
</g>
<path opacity="0.2" d="M294.503 272.959L294.426 274.117C294.271 276.125 292.727 277.747 290.719 277.901H290.333L123.932 262.535H123.546C121.615 261.994 120.303 260.141 120.611 258.134L120.689 256.975L200.453 202.306L204.237 205.472L210.337 210.568L217.595 206.707L222.151 204.314L294.503 272.959Z" fill="black"/>
<path d="M289.482 168.485L222.072 204.237L200.914 202.692L145.164 156.131L150.878 94.7437L295.118 108.025L289.482 168.485Z" fill="#E0E0E0"/>
<path d="M289.482 168.485L222.072 204.237L200.914 202.692L145.164 156.131L150.878 94.7437L295.118 108.025L289.482 168.485Z" fill="url(#paint0_linear_4805_2424)"/>
<path opacity="0.2" d="M145.627 150.879L202.304 199.062C202.304 199.062 207.632 196.128 212.342 197.209C217.053 198.29 221.608 200.838 221.608 200.838L289.945 164.161L289.559 168.408L222.149 204.159L200.992 202.614L145.164 156.13L145.627 150.879Z" fill="black"/>
<path d="M294.503 273.268L294.426 274.349C294.194 276.511 292.341 278.055 290.334 277.901L123.932 262.535C121.847 262.38 120.303 260.45 120.535 258.288L120.612 257.207L204.392 203.31L206.09 202.229C209.256 200.221 213.272 200.53 216.051 203.001L217.827 204.545L294.503 273.268Z" fill="#DBDBDB"/>
<path d="M150.57 161.536L156.053 102.002L287.552 114.125L282.224 172.114" stroke="#455A64" stroke-width="0.772164" stroke-miterlimit="10" stroke-linecap="round" stroke-linejoin="round"/>
<path d="M172.112 123.235L178.074 124.035L179.761 124.169C179.771 124.423 179.763 124.688 179.735 124.963C179.707 125.237 179.64 125.429 179.532 125.539C179.425 125.649 179.245 125.691 178.995 125.666C178.971 125.663 178.137 125.501 176.493 125.178C176.391 125.711 176.119 126.612 175.677 127.882C175.236 129.152 174.797 130.513 174.361 131.964C173.925 133.416 173.641 134.732 173.51 135.913C173.021 136.105 172.053 136.128 170.609 135.982L170.483 135.969C170.546 135.349 171.073 133.532 172.064 130.521C173.056 127.509 173.585 125.669 173.653 125C173.657 124.952 173.654 124.868 173.642 124.746L172.926 124.674C171.947 124.575 171.179 124.648 170.624 124.894C170.385 124.508 170.271 123.965 170.282 123.267C170.702 123.165 171.312 123.154 172.112 123.235ZM181.514 125.088C181.554 124.694 181.546 124.41 181.491 124.235C182.455 124.007 183.349 123.934 184.173 124.017C184.269 124.136 184.295 124.416 184.251 124.857C184.171 125.645 183.654 127.426 182.699 130.201C183.737 129.594 184.62 129.327 185.348 129.401C185.802 129.446 186.128 129.624 186.326 129.933C186.536 130.244 186.616 130.638 186.568 131.116C186.521 131.581 186.306 132.338 185.923 133.384C185.541 134.419 185.331 135.134 185.291 135.528C185.251 135.922 185.279 136.124 185.375 136.133C185.47 136.143 185.732 136.061 186.159 135.887L186.385 135.801L186.644 136.46C186.527 136.545 186.372 136.65 186.178 136.775C185.985 136.9 185.637 137.058 185.135 137.249C184.634 137.439 184.18 137.514 183.774 137.473C183.38 137.433 183.076 137.276 182.863 137.001C182.65 136.715 182.566 136.356 182.609 135.927C182.654 135.485 182.865 134.704 183.244 133.584C183.635 132.454 183.846 131.74 183.876 131.441C183.907 131.131 183.798 130.963 183.547 130.937C183.236 130.906 182.835 130.998 182.343 131.214C181.395 134.037 180.877 135.878 180.791 136.738C180.27 136.878 179.407 136.888 178.201 136.766C178.209 136.562 178.221 136.382 178.237 136.227C178.289 135.714 178.818 133.994 179.825 131.068C180.844 128.144 181.407 126.15 181.514 125.088ZM193.554 130.753C193.58 130.732 193.661 130.583 193.798 130.307C194.359 130.364 195.094 130.607 196.004 131.036C195.605 131.997 195.262 133.012 194.973 134.08C194.685 135.137 194.518 135.898 194.471 136.364C194.425 136.817 194.45 137.049 194.546 137.059C194.617 137.066 194.891 136.979 195.368 136.798L195.594 136.712L195.853 137.371C195.736 137.456 195.58 137.561 195.387 137.686C195.205 137.813 194.863 137.977 194.36 138.18C193.859 138.37 193.417 138.446 193.035 138.408C192.294 138.333 191.898 137.955 191.846 137.275C191.015 137.866 190.289 138.131 189.668 138.068C189.059 138.006 188.564 137.715 188.182 137.194C187.812 136.675 187.679 135.901 187.783 134.875C187.944 133.275 188.4 132.048 189.149 131.195C189.9 130.33 190.741 129.945 191.672 130.039C192.34 130.106 192.968 130.344 193.554 130.753ZM190.896 136.654C191.182 136.683 191.516 136.602 191.897 136.411C192.151 134.736 192.599 133.099 193.243 131.5C192.901 131.308 192.604 131.2 192.353 131.175C191.923 131.131 191.511 131.518 191.115 132.334C190.732 133.14 190.489 134.05 190.387 135.065C190.284 136.08 190.454 136.61 190.896 136.654ZM196.91 138.636L196.569 138.602C196.626 138.04 196.902 136.983 197.396 135.428C197.903 133.875 198.167 132.992 198.188 132.777C198.228 132.383 198.103 131.948 197.813 131.472L197.674 131.241L197.715 131.01C198.378 130.896 199.42 130.911 200.841 131.054C200.975 131.273 201.022 131.651 200.979 132.19C202.099 131.495 203.017 131.183 203.733 131.256C204.163 131.299 204.488 131.483 204.709 131.806C204.941 132.131 205.035 132.521 204.989 132.974C204.944 133.416 204.729 134.172 204.344 135.243C203.958 136.314 203.746 137.04 203.708 137.422C203.671 137.792 203.7 137.982 203.795 137.992C203.867 137.999 204.129 137.911 204.582 137.727L204.807 137.642L205.067 138.301C204.949 138.386 204.794 138.491 204.601 138.616C204.407 138.741 204.053 138.904 203.538 139.106C203.036 139.296 202.594 139.372 202.212 139.334C201.341 139.246 200.955 138.706 201.055 137.715C201.097 137.297 201.306 136.541 201.682 135.445C202.07 134.35 202.28 133.642 202.313 133.319C202.345 132.997 202.26 132.826 202.057 132.805C201.711 132.77 201.272 132.877 200.74 133.125C200.684 133.324 200.51 133.849 200.22 134.7C199.613 136.533 199.27 137.837 199.192 138.613C198.757 138.738 197.996 138.745 196.91 138.636ZM209.101 127.871C209.14 127.477 209.133 127.193 209.078 127.019C210.042 126.79 210.936 126.718 211.759 126.801C211.856 126.919 211.882 127.199 211.838 127.641C211.738 128.632 211.218 130.497 210.278 133.237C211.428 132.472 212.523 132.142 213.562 132.247C214.027 132.294 214.407 132.477 214.7 132.796C214.994 133.115 215.113 133.55 215.057 134.099C214.954 135.126 214.037 135.787 212.306 136.083C212.575 137.364 212.836 138.241 213.09 138.713C213.202 138.917 213.288 139.022 213.348 139.028C213.479 139.041 213.764 138.968 214.203 138.807L214.409 138.737L214.634 139.375C214.321 139.609 213.894 139.837 213.352 140.06C212.824 140.272 212.352 140.357 211.934 140.315C211.002 140.221 210.437 139.307 210.238 137.575C210.145 136.829 210.112 136.139 210.14 135.502C210.922 135.4 211.511 135.243 211.906 135.029C212.315 134.805 212.539 134.496 212.579 134.102C212.62 133.696 212.437 133.473 212.031 133.432C211.625 133.391 210.904 133.728 209.867 134.443C209.016 136.902 208.543 138.598 208.449 139.529C207.773 139.654 206.91 139.663 205.859 139.557C205.868 139.353 205.88 139.173 205.895 139.018C205.947 138.504 206.465 136.784 207.447 133.856C208.442 130.929 208.993 128.934 209.101 127.871ZM221.521 143.019C221.103 143.218 220.882 143.431 220.859 143.658C220.836 143.884 220.95 144.01 221.201 144.036C221.464 144.062 221.769 143.966 222.117 143.748C222.463 143.542 222.771 143.175 223.042 142.648C222.458 142.697 221.951 142.821 221.521 143.019ZM220.849 141.069C219.846 140.968 219.4 140.368 219.511 139.27C219.537 139.007 219.733 138.261 220.099 137.032C220.464 135.802 220.689 134.77 220.773 133.934C220.791 133.755 220.784 133.585 220.752 133.425C221.422 133.239 222.318 133.203 223.441 133.316C223.483 133.49 223.484 133.779 223.443 134.185C223.402 134.591 223.186 135.42 222.795 136.671C222.403 137.922 222.189 138.732 222.151 139.102C222.114 139.472 222.25 139.673 222.561 139.704C222.931 139.742 223.397 139.602 223.96 139.285C224.091 138.586 224.517 136.754 225.238 133.787C225.673 133.662 226.434 133.655 227.52 133.764L227.86 133.799C227.543 134.671 227.192 135.938 226.807 137.6C226.423 139.262 226.132 140.414 225.934 141.058C225.551 142.346 224.977 143.367 224.214 144.123C223.461 144.891 222.541 145.22 221.454 145.111C221.025 145.067 220.642 144.914 220.307 144.651C219.983 144.389 219.84 144.079 219.876 143.721C219.924 143.244 220.261 142.837 220.885 142.502C221.51 142.167 222.329 141.942 223.342 141.827C223.502 141.313 223.637 140.814 223.746 140.331C222.71 140.913 221.745 141.16 220.849 141.069ZM230.309 142.169C229.485 142.086 228.869 141.734 228.462 141.114C228.055 140.482 227.904 139.647 228.009 138.608C228.143 137.283 228.61 136.178 229.411 135.294C230.223 134.411 231.257 134.033 232.51 134.159L233.151 134.26C233.365 134.173 233.597 134.142 233.848 134.168C234.791 134.263 235.173 135.2 234.994 136.979C235.486 137.004 235.988 136.989 236.5 136.932L236.794 136.889L236.831 137.598C236.42 137.726 235.874 137.821 235.192 137.885L234.826 137.921C234.473 139.151 233.903 140.198 233.117 141.059C232.331 141.908 231.396 142.278 230.309 142.169ZM231.432 140.726C231.933 140.777 232.413 140.499 232.872 139.895C233.343 139.291 233.693 138.639 233.92 137.938C232.643 137.809 232.052 137.267 232.148 136.312C232.187 135.93 232.301 135.579 232.49 135.261L232.597 135.091C232.552 135.062 232.493 135.044 232.422 135.037C232.35 135.03 232.295 135.036 232.257 135.056C231.939 135.217 231.613 135.637 231.28 136.315C230.946 136.992 230.733 137.785 230.642 138.693C230.512 139.982 230.775 140.66 231.432 140.726ZM235.614 141.13C235.665 140.617 235.909 139.761 236.343 138.562C236.779 137.352 237.011 136.609 237.038 136.335C237.067 136.048 236.89 135.65 236.507 135.141L236.549 134.91C237.377 134.825 238.454 134.849 239.78 134.983C239.824 135.144 239.825 135.428 239.784 135.834C239.743 136.24 239.489 137.089 239.021 138.38C238.553 139.672 238.303 140.479 238.27 140.801C238.238 141.123 238.341 141.297 238.579 141.321C238.926 141.356 239.338 141.271 239.817 141.066C239.894 140.784 240.069 140.247 240.342 139.454C240.964 137.587 241.317 136.242 241.4 135.418C241.835 135.293 242.596 135.285 243.682 135.395L244.022 135.429C243.966 135.99 243.688 137.072 243.188 138.674C242.69 140.264 242.427 141.202 242.398 141.489C242.37 141.763 242.416 141.907 242.535 141.919C242.607 141.926 242.962 141.817 243.6 141.592L243.882 142.199C242.73 142.976 241.754 143.324 240.954 143.243C240.572 143.204 240.255 143.064 240.002 142.821C239.761 142.58 239.64 142.284 239.639 141.934C238.593 142.625 237.675 142.93 236.887 142.851C236.469 142.808 236.137 142.636 235.89 142.334C235.655 142.033 235.563 141.631 235.614 141.13ZM254.582 136.603C254.531 136.864 254.389 137.199 254.155 137.61C253.706 137.516 253.26 137.447 252.819 137.402L252.747 137.395C252.199 140.319 251.746 142.474 251.389 143.861C251.032 145.249 250.652 146.205 250.249 146.732C249.821 146.676 249.379 146.571 248.924 146.417C248.48 146.276 248.18 146.143 248.023 146.019C248.399 145.164 248.82 143.862 249.286 142.112C249.764 140.363 250.121 138.74 250.356 137.244C250.019 137.235 249.645 137.239 249.233 137.258C249.213 137.099 249.211 136.942 249.226 136.787C249.243 136.619 249.291 136.383 249.37 136.077L250.516 136.193C250.645 135.157 250.778 134.374 250.916 133.845C251.156 132.905 251.559 132.192 252.127 131.706C252.708 131.21 253.41 131.003 254.234 131.087C254.759 131.14 255.159 131.3 255.433 131.569C255.721 131.828 255.839 132.207 255.789 132.709C255.738 133.21 255.446 133.838 254.911 134.592C254.378 135.334 253.713 135.949 252.916 136.435L254.582 136.603ZM253.066 135.311C253.571 134.964 253.979 134.565 254.29 134.113C254.601 133.662 254.776 133.246 254.814 132.864C254.854 132.47 254.749 132.26 254.498 132.235C253.973 132.182 253.577 132.751 253.313 133.942C253.224 134.344 253.142 134.8 253.066 135.311ZM256.402 144.801C255.578 144.718 254.962 144.367 254.554 143.747C254.148 143.115 253.997 142.279 254.102 141.241C254.235 139.915 254.703 138.811 255.503 137.927C256.316 137.044 257.349 136.665 258.603 136.792L259.244 136.893C259.458 136.806 259.69 136.775 259.941 136.8C260.884 136.896 261.266 137.833 261.086 139.612C261.578 139.637 262.08 139.621 262.593 139.565L262.887 139.522L262.924 140.231C262.513 140.358 261.966 140.454 261.284 140.518L260.919 140.553C260.566 141.784 259.996 142.83 259.209 143.692C258.424 144.541 257.488 144.911 256.402 144.801ZM257.524 143.359C258.026 143.409 258.506 143.132 258.965 142.527C259.436 141.924 259.785 141.271 260.013 140.571C258.735 140.442 258.145 139.9 258.241 138.945C258.28 138.562 258.393 138.212 258.582 137.893L258.69 137.723C258.645 137.695 258.586 137.677 258.514 137.67C258.443 137.662 258.388 137.669 258.35 137.689C258.032 137.85 257.706 138.269 257.372 138.947C257.039 139.625 256.826 140.418 256.734 141.325C256.604 142.615 256.868 143.293 257.524 143.359ZM261.71 145.174L261.585 145.162C261.571 145.064 261.58 144.848 261.614 144.513C261.649 144.167 261.903 143.264 262.376 141.804C262.849 140.344 263.096 139.507 263.118 139.292C263.155 138.922 263.029 138.499 262.739 138.023L262.6 137.792L262.641 137.561C263.304 137.447 264.346 137.462 265.767 137.605C265.879 137.93 265.906 138.373 265.85 138.934C266.003 138.733 266.306 138.474 266.76 138.158C267.214 137.842 267.662 137.706 268.104 137.751C268.749 137.816 269.014 138.409 268.901 139.532C268.834 139.597 268.741 139.684 268.621 139.793C268.515 139.891 268.296 140.025 267.966 140.197C267.647 140.37 267.341 140.466 267.05 140.485C267.038 140.483 266.953 140.312 266.794 139.97C266.636 139.629 266.509 139.453 266.413 139.443C266.104 139.521 265.823 139.673 265.571 139.901C264.773 142.317 264.337 143.889 264.263 144.618C264.237 144.88 264.224 145.066 264.225 145.175C263.79 145.3 262.952 145.3 261.71 145.174ZM171.411 149C170.933 148.952 170.511 149.314 170.144 150.085C169.778 150.844 169.549 151.677 169.457 152.584C169.313 154.017 169.682 154.778 170.566 154.867C170.852 154.896 171.163 154.861 171.499 154.762C171.836 154.652 172.106 154.54 172.311 154.428L172.601 154.24L172.957 154.837C172.848 154.959 172.64 155.113 172.331 155.299C172.023 155.485 171.736 155.637 171.471 155.755C171.206 155.873 170.871 155.971 170.464 156.051C170.058 156.131 169.664 156.151 169.282 156.113C168.351 156.019 167.683 155.644 167.279 154.988C166.875 154.332 166.725 153.491 166.828 152.464C166.972 151.043 167.476 149.93 168.341 149.125C169.218 148.321 170.272 147.981 171.501 148.105C172.301 148.186 172.915 148.435 173.344 148.852C173.785 149.258 173.979 149.73 173.925 150.267C173.872 150.792 173.659 151.229 173.286 151.578C172.987 151.547 172.648 151.447 172.267 151.276C171.886 151.105 171.604 150.913 171.42 150.702L171.848 149.153C171.748 149.071 171.602 149.02 171.411 149ZM176.544 156.845C175.72 156.762 175.104 156.411 174.696 155.79C174.29 155.158 174.139 154.323 174.244 153.284C174.377 151.959 174.845 150.854 175.645 149.97C176.458 149.087 177.491 148.709 178.745 148.836L179.386 148.937C179.6 148.85 179.832 148.819 180.083 148.844C181.026 148.939 181.408 149.876 181.228 151.655C181.72 151.681 182.222 151.665 182.735 151.608L183.029 151.566L183.065 152.275C182.655 152.402 182.108 152.498 181.426 152.562L181.061 152.597C180.708 153.828 180.138 154.874 179.351 155.736C178.566 156.585 177.63 156.955 176.544 156.845ZM177.666 155.403C178.168 155.453 178.648 155.176 179.107 154.571C179.578 153.967 179.927 153.315 180.155 152.614C178.877 152.486 178.287 151.943 178.383 150.988C178.422 150.606 178.535 150.256 178.724 149.937L178.832 149.767C178.787 149.739 178.728 149.721 178.656 149.713C178.585 149.706 178.53 149.713 178.492 149.733C178.174 149.894 177.848 150.313 177.514 150.991C177.181 151.669 176.968 152.462 176.876 153.369C176.746 154.659 177.01 155.336 177.666 155.403ZM181.96 157.229L181.62 157.195C181.676 156.633 181.952 155.576 182.447 154.022C182.953 152.469 183.217 151.585 183.239 151.37C183.279 150.976 183.154 150.541 182.864 150.065L182.724 149.834L182.766 149.603C183.429 149.489 184.47 149.504 185.891 149.647C186.026 149.866 186.072 150.244 186.03 150.783C187.149 150.088 188.067 149.776 188.784 149.849C189.213 149.892 189.539 150.076 189.759 150.399C189.992 150.724 190.085 151.114 190.039 151.567C189.995 152.009 189.78 152.765 189.394 153.836C189.009 154.907 188.797 155.633 188.758 156.015C188.721 156.385 188.75 156.575 188.846 156.585C188.917 156.592 189.179 156.504 189.632 156.321L189.858 156.235L190.117 156.894C190 156.979 189.845 157.084 189.651 157.209C189.457 157.334 189.103 157.497 188.588 157.699C188.087 157.889 187.645 157.965 187.263 157.927C186.391 157.839 186.005 157.299 186.105 156.308C186.148 155.891 186.357 155.134 186.733 154.038C187.12 152.943 187.331 152.235 187.363 151.913C187.396 151.59 187.31 151.419 187.107 151.398C186.761 151.363 186.322 151.47 185.791 151.718C185.734 151.917 185.561 152.442 185.27 153.293C184.663 155.126 184.32 156.43 184.242 157.206C183.807 157.331 183.047 157.339 181.96 157.229ZM197.319 150.927C197.265 151.223 197.129 151.559 196.91 151.935C196.461 151.841 196.033 151.774 195.628 151.733L195.305 151.701C194.487 154.308 194.045 155.94 193.979 156.596C193.944 156.943 193.998 157.123 194.141 157.137C194.297 157.153 194.712 157.044 195.387 156.811L195.649 157.434C194.498 158.211 193.468 158.553 192.561 158.461C192.143 158.419 191.81 158.253 191.562 157.963C191.325 157.673 191.229 157.314 191.272 156.884C191.317 156.442 191.415 155.952 191.566 155.412C191.729 154.874 191.939 154.22 192.198 153.45C192.458 152.668 192.654 152.036 192.787 151.555C192.342 151.546 192.01 151.549 191.791 151.563C191.782 151.418 191.789 151.225 191.813 150.987C191.839 150.736 191.877 150.535 191.928 150.383L193.057 150.497C193.217 149.862 193.326 149.258 193.384 148.685L193.422 148.128L193.428 148.074C194.392 147.846 195.285 147.773 196.109 147.856C196.133 148.1 196.127 148.401 196.09 148.759C196.054 149.117 195.885 149.781 195.582 150.752L197.319 150.927ZM202.66 151.773C202.686 151.752 202.767 151.603 202.904 151.328C203.465 151.384 204.2 151.627 205.11 152.057C204.711 153.018 204.367 154.032 204.079 155.101C203.791 156.157 203.624 156.918 203.577 157.384C203.531 157.838 203.556 158.069 203.652 158.079C203.723 158.086 203.997 157.999 204.474 157.818L204.7 157.732L204.959 158.392C204.842 158.476 204.686 158.581 204.493 158.707C204.311 158.833 203.969 158.997 203.466 159.2C202.964 159.391 202.523 159.467 202.141 159.428C201.4 159.353 201.004 158.976 200.952 158.295C200.121 158.886 199.394 159.151 198.774 159.088C198.165 159.027 197.669 158.736 197.288 158.215C196.918 157.695 196.785 156.922 196.889 155.895C197.05 154.295 197.506 153.069 198.255 152.215C199.006 151.35 199.847 150.965 200.778 151.059C201.446 151.126 202.074 151.365 202.66 151.773ZM200.002 157.674C200.288 157.703 200.622 157.622 201.003 157.432C201.257 155.757 201.705 154.119 202.349 152.52C202.007 152.329 201.71 152.22 201.459 152.195C201.029 152.152 200.617 152.538 200.221 153.355C199.838 154.16 199.595 155.07 199.493 156.085C199.39 157.1 199.56 157.63 200.002 157.674ZM210.367 152.931C209.889 152.883 209.467 153.244 209.1 154.015C208.733 154.774 208.505 155.608 208.413 156.515C208.269 157.948 208.638 158.709 209.522 158.798C209.808 158.827 210.119 158.792 210.455 158.693C210.792 158.582 211.062 158.471 211.266 158.359L211.557 158.171L211.913 158.768C211.804 158.889 211.595 159.043 211.287 159.229C210.979 159.415 210.692 159.567 210.427 159.685C210.162 159.803 209.826 159.902 209.42 159.982C209.014 160.061 208.62 160.082 208.238 160.043C207.307 159.949 206.639 159.574 206.235 158.918C205.831 158.263 205.68 157.421 205.784 156.394C205.927 154.974 206.432 153.861 207.297 153.055C208.174 152.251 209.227 151.911 210.457 152.036C211.257 152.116 211.871 152.365 212.299 152.782C212.741 153.189 212.935 153.66 212.88 154.198C212.827 154.723 212.614 155.16 212.242 155.508C211.943 155.478 211.603 155.378 211.223 155.206C210.842 155.035 210.56 154.844 210.376 154.633L210.804 153.084C210.703 153.001 210.558 152.95 210.367 152.931ZM219.398 153.155C219.344 153.451 219.208 153.787 218.989 154.163C218.54 154.069 218.113 154.002 217.707 153.961L217.384 153.929C216.567 156.536 216.124 158.168 216.058 158.824C216.023 159.17 216.077 159.351 216.221 159.365C216.376 159.381 216.791 159.272 217.466 159.039L217.729 159.662C216.577 160.438 215.547 160.781 214.64 160.689C214.222 160.647 213.889 160.481 213.641 160.19C213.405 159.901 213.308 159.542 213.352 159.112C213.396 158.67 213.494 158.179 213.645 157.64C213.808 157.102 214.019 156.447 214.277 155.677C214.537 154.896 214.733 154.264 214.866 153.783C214.421 153.774 214.089 153.777 213.87 153.791C213.861 153.645 213.868 153.453 213.892 153.214C213.918 152.964 213.956 152.763 214.008 152.611L215.136 152.725C215.296 152.09 215.406 151.486 215.463 150.912L215.502 150.356L215.507 150.302C216.471 150.073 217.365 150.001 218.188 150.084C218.212 150.327 218.206 150.628 218.17 150.987C218.134 151.345 217.964 152.009 217.661 152.98L219.398 153.155ZM223.224 154.445C223.174 154.947 222.925 155.796 222.479 156.993C222.034 158.179 221.792 158.962 221.753 159.345C221.716 159.715 221.751 159.905 221.858 159.916C221.93 159.923 222.216 159.837 222.716 159.659L222.942 159.573L223.183 160.231C223.066 160.315 222.911 160.42 222.717 160.545C222.524 160.671 222.17 160.834 221.655 161.035C221.141 161.225 220.676 161.298 220.258 161.256C219.84 161.214 219.524 161.055 219.311 160.781C219.098 160.494 219.014 160.136 219.057 159.706C219.102 159.264 219.329 158.503 219.74 157.423C220.152 156.331 220.374 155.617 220.408 155.283C220.459 154.782 220.351 154.294 220.085 153.821L219.946 153.59L219.987 153.359C220.638 153.244 221.674 153.258 223.095 153.401C223.232 153.596 223.275 153.944 223.224 154.445ZM221.483 151.267C221.268 151.004 221.181 150.675 221.22 150.281C221.26 149.887 221.456 149.557 221.809 149.291C222.173 149.027 222.57 148.916 223 148.959C223.43 149.003 223.752 149.156 223.967 149.419C224.181 149.681 224.269 150.01 224.229 150.404C224.191 150.786 223.983 151.109 223.607 151.372C223.242 151.637 222.851 151.748 222.433 151.706C222.015 151.664 221.699 151.517 221.483 151.267ZM224.545 161.526L224.204 161.491C224.261 160.93 224.536 159.873 225.031 158.318C225.537 156.765 225.802 155.881 225.823 155.667C225.863 155.273 225.738 154.838 225.448 154.362L225.309 154.131L225.35 153.9C226.013 153.786 227.055 153.801 228.476 153.944C228.61 154.163 228.656 154.541 228.614 155.08C229.734 154.385 230.652 154.073 231.368 154.145C231.798 154.189 232.123 154.372 232.344 154.696C232.576 155.021 232.669 155.411 232.624 155.864C232.579 156.306 232.364 157.062 231.979 158.133C231.593 159.204 231.381 159.93 231.343 160.312C231.305 160.682 231.334 160.872 231.43 160.882C231.502 160.889 231.764 160.801 232.216 160.617L232.442 160.532L232.701 161.191C232.584 161.276 232.429 161.381 232.235 161.506C232.042 161.631 231.688 161.794 231.173 161.996C230.671 162.186 230.229 162.262 229.847 162.224C228.976 162.136 228.59 161.596 228.69 160.605C228.732 160.187 228.941 159.431 229.317 158.335C229.705 157.24 229.915 156.532 229.948 156.209C229.98 155.887 229.895 155.716 229.692 155.695C229.346 155.66 228.907 155.767 228.375 156.014C228.319 156.214 228.145 156.739 227.854 157.59C227.247 159.422 226.905 160.727 226.826 161.503C226.392 161.628 225.631 161.635 224.545 161.526ZM235.58 164.539C235.162 164.738 234.942 164.951 234.919 165.178C234.896 165.405 235.01 165.531 235.261 165.556C235.523 165.582 235.829 165.487 236.176 165.268C236.523 165.062 236.831 164.695 237.101 164.168C236.517 164.217 236.01 164.341 235.58 164.539ZM241.882 155.333C241.925 155.386 241.938 155.495 241.922 155.663C241.906 155.818 241.876 155.99 241.833 156.178C241.791 156.355 241.708 156.763 241.583 157.401C241.459 158.04 241.342 158.595 241.234 159.067C240.083 164.378 238.177 166.899 235.514 166.631C235.084 166.587 234.702 166.434 234.366 166.171C234.043 165.909 233.899 165.599 233.936 165.241C233.984 164.764 234.32 164.357 234.945 164.023C235.57 163.688 236.389 163.463 237.401 163.348C237.402 163.336 237.455 163.172 237.559 162.857C237.663 162.542 237.738 162.284 237.782 162.084C237.013 162.537 236.312 162.731 235.679 162.667C235.058 162.605 234.569 162.308 234.213 161.778C233.868 161.248 233.75 160.446 233.858 159.372C234.001 157.963 234.435 156.825 235.162 155.958C235.89 155.078 236.773 154.691 237.812 154.796C238.397 154.855 238.961 155.056 239.506 155.401C240.136 155.247 240.804 155.206 241.508 155.277L241.882 155.333ZM238.511 155.934C237.998 155.882 237.55 156.259 237.167 157.064C236.785 157.858 236.543 158.762 236.441 159.777C236.34 160.78 236.516 161.304 236.97 161.35C237.268 161.38 237.632 161.302 238.061 161.117C238.597 159.145 239.003 157.515 239.277 156.228C238.958 156.051 238.702 155.953 238.511 155.934ZM246.389 162.319C246.441 161.805 246.684 160.95 247.119 159.751C247.555 158.541 247.786 157.798 247.814 157.524C247.843 157.237 247.666 156.839 247.283 156.33L247.325 156.099C248.153 156.014 249.23 156.038 250.556 156.172C250.6 156.333 250.601 156.617 250.56 157.023C250.519 157.429 250.265 158.277 249.797 159.569C249.329 160.861 249.078 161.667 249.046 161.99C249.013 162.312 249.116 162.485 249.355 162.51C249.702 162.544 250.114 162.459 250.593 162.254C250.67 161.973 250.845 161.436 251.118 160.643C251.74 158.776 252.093 157.431 252.176 156.607C252.611 156.482 253.371 156.474 254.458 156.584L254.798 156.618C254.742 157.179 254.464 158.261 253.964 159.863C253.466 161.453 253.203 162.391 253.174 162.678C253.146 162.952 253.192 163.096 253.311 163.108C253.383 163.115 253.738 163.006 254.375 162.781L254.658 163.388C253.506 164.165 252.53 164.512 251.73 164.432C251.348 164.393 251.031 164.253 250.778 164.01C250.537 163.768 250.416 163.473 250.415 163.123C249.368 163.813 248.451 164.119 247.663 164.039C247.245 163.997 246.913 163.825 246.666 163.523C246.431 163.222 246.339 162.82 246.389 162.319ZM261.176 162.798C261.101 163.55 260.704 164.131 259.987 164.541C259.283 164.952 258.506 165.115 257.659 165.03C256.811 164.944 256.154 164.697 255.689 164.288C255.236 163.881 255.023 163.54 255.051 163.265C255.067 163.098 255.304 162.85 255.759 162.522C256.215 162.183 256.591 161.985 256.886 161.931C257.438 162.433 257.857 163.18 258.143 164.174C258.588 164.183 258.83 163.996 258.869 163.614C258.924 163.065 258.519 162.24 257.653 161.14C256.788 160.027 256.386 159.173 256.446 158.576C256.507 157.979 256.822 157.546 257.392 157.278C257.963 156.998 258.624 156.896 259.376 156.972C260.14 157.049 260.7 157.244 261.054 157.557C261.41 157.858 261.564 158.242 261.517 158.707C261.471 159.161 261.043 159.757 260.233 160.495C260.308 160.587 260.404 160.712 260.521 160.868C260.639 161.013 260.786 161.287 260.963 161.691C261.139 162.094 261.21 162.463 261.176 162.798ZM259.741 159.813C260.286 159.433 260.579 159.035 260.621 158.617C260.664 158.199 260.398 157.961 259.825 157.903C259.55 157.876 259.318 157.912 259.126 158.014C258.936 158.103 258.834 158.219 258.82 158.363C258.793 158.625 259.019 159.022 259.496 159.553L259.741 159.813ZM263.649 165.634C263.231 165.592 262.921 165.434 262.72 165.161C262.518 164.887 262.438 164.541 262.48 164.123C262.523 163.705 262.714 163.363 263.055 163.096C263.396 162.817 263.776 162.698 264.194 162.74C264.624 162.784 264.939 162.942 265.141 163.216C265.344 163.478 265.424 163.817 265.382 164.235C265.341 164.641 265.143 164.989 264.788 165.279C264.446 165.558 264.067 165.676 263.649 165.634Z" fill="white"/>
<path d="M125.9 48.5252C132.624 43.3435 142.247 44.5772 147.367 51.3011C152.549 58.025 151.315 67.6481 144.592 72.7681C139.41 76.7777 132.501 76.9011 127.258 73.6934L122.878 75.0505L123.31 70.1772C123.248 70.1156 123.186 70.0539 123.125 69.9922C117.943 63.33 119.177 53.7069 125.9 48.5252Z" fill="#455A64"/>
<path d="M147.122 51.488L147.123 51.4894C152.202 58.0793 150.991 67.5075 144.405 72.5227L144.403 72.5242C139.327 76.4519 132.558 76.5742 127.419 73.4303L127.3 73.3575L127.166 73.3988L123.226 74.6198L123.617 70.2045L123.63 70.061L123.528 69.9592L123.435 69.8666L123.356 69.7877C118.294 63.2618 119.505 53.8436 126.089 48.7695C132.679 43.691 142.107 44.9018 147.122 51.488Z" stroke="#EBEBEB" stroke-opacity="0.25" stroke-width="0.616868"/>
<path d="M146.937 47.7854C143.482 44.2076 138.115 42.542 133.242 43.5907" stroke="#EBEBEB" stroke-opacity="0.25" stroke-width="0.308434" stroke-miterlimit="10" stroke-linecap="round" stroke-linejoin="round"/>
<path d="M131.022 44.146C130.282 44.2694 129.542 44.5161 128.863 44.8862" stroke="#EBEBEB" stroke-opacity="0.25" stroke-width="0.308434" stroke-miterlimit="10" stroke-linecap="round" stroke-linejoin="round"/>
<g opacity="0.7">
<path d="M125.9 48.5252C132.624 43.3435 142.247 44.5772 147.367 51.3011C152.549 58.025 151.315 67.6481 144.592 72.7681C139.41 76.7777 132.501 76.9011 127.258 73.6934L122.878 75.0505L123.31 70.1772C123.248 70.1156 123.186 70.0539 123.125 69.9922C117.943 63.33 119.177 53.7069 125.9 48.5252Z" fill="white"/>
<path d="M147.122 51.488L147.123 51.4894C152.202 58.0793 150.991 67.5075 144.405 72.5227L144.403 72.5242C139.327 76.4519 132.558 76.5742 127.419 73.4303L127.3 73.3575L127.166 73.3988L123.226 74.6198L123.617 70.2045L123.63 70.061L123.528 69.9592L123.435 69.8666L123.356 69.7877C118.294 63.2618 119.505 53.8436 126.089 48.7695C132.679 43.691 142.107 44.9018 147.122 51.488Z" stroke="#EBEBEB" stroke-opacity="0.25" stroke-width="0.616868"/>
</g>
<path d="M89.8775 68.5684C88.6421 67.1785 86.7889 66.3291 84.9357 66.3291C83.0825 66.3291 81.2293 67.1785 79.9938 68.5684C79.1445 69.495 78.604 70.7304 78.0634 71.8115C76.6735 74.514 75.052 77.0622 73.1216 79.4559C72.0406 80.8458 70.8823 82.1585 69.338 82.9306C67.0215 84.1661 64.2417 84.0889 61.6936 84.1661C59.0682 84.2433 56.2112 84.6294 54.358 86.4826C53.9719 86.8687 53.6631 87.332 53.5086 87.7953C53.277 89.1079 54.5124 90.2662 55.8251 90.5751C57.1378 90.8839 58.4505 90.6523 59.7632 90.8839C58.7593 91.4244 57.7555 92.1966 57.1378 93.2004C56.5973 94.2042 56.5973 95.6713 57.3694 96.5207C57.91 97.1384 58.7593 97.3701 59.5315 97.5245C61.6163 97.9106 63.8556 97.7562 65.8632 96.984C64.705 98.2195 63.3923 99.7638 63.8556 101.463C64.3189 103.316 66.481 104.088 68.3342 104.165C72.6583 104.397 76.7508 102.621 80.3799 100.304C85.4762 97.1384 90.1092 92.5827 91.3447 86.7914C91.8852 84.0889 91.7307 81.3091 92.6573 78.6837L89.8775 68.5684Z" fill="#263238"/>
<path d="M91.5769 60.5372C91.0363 59.379 89.4148 59.2245 88.2566 59.6106C86.4034 60.3056 85.0135 62.236 84.9362 64.2436C84.859 66.2512 86.0945 68.2588 87.9477 69.1082L88.0249 70.0348C86.0945 68.1044 83.5463 66.869 80.8438 66.5601C79.3767 66.4057 77.7551 66.4829 76.4424 67.255C75.1298 68.0272 74.126 69.4943 74.3576 71.0386C74.5893 72.6602 76.2108 73.8956 77.8323 74.1273C79.4539 74.3589 81.1526 73.8956 82.697 73.2779C84.2413 72.6602 85.7856 71.888 87.4072 71.5792C87.9477 71.5019 88.5654 71.3475 88.7971 70.8842C88.9515 70.5753 88.8743 70.2665 88.8743 69.9576C88.8743 68.7994 89.5692 67.7956 90.1097 66.7917C90.8819 65.4018 91.4224 63.8575 91.6541 62.236C91.7313 61.6955 91.8085 61.0777 91.5769 60.5372Z" fill="url(#paint1_linear_4805_2424)"/>
<path d="M107.1 65.9426C111.655 69.1857 112.814 73.6643 112.659 76.8301C111.964 81.1543 109.184 84.0885 107.872 88.2582L98.2969 62.6223C100.922 63.24 102.158 62.7767 107.1 65.9426Z" fill="#263238"/>
<path d="M101.387 63.5486C96.9084 61.3093 92.4298 63.703 89.8045 65.3245C86.9475 67.641 85.1715 71.1158 84.9399 74.7449C84.8626 78.2197 84.7082 82.3894 86.793 84.2425C87.9513 85.3236 89.4956 85.8641 91.0399 85.7869L108.645 70.498C106.792 67.5638 104.321 65.1701 101.387 63.5486Z" fill="#263238"/>
<path d="M101.155 103.469C100.074 102.62 97.6027 99.2995 97.8344 97.5235L99.147 91.4234C99.147 91.3462 99.147 91.269 99.147 91.1917L95.0546 89.0297C94.0508 87.9486 92.352 87.9486 91.3482 88.9525C90.9621 89.3385 90.6532 89.1841 90.576 89.6474C90.576 89.7246 90.6532 90.4968 90.576 90.6512C90.4216 94.7437 89.7266 97.2918 87.4102 99.0678L96.5217 109.26C101.541 105.94 101.85 104.087 101.155 103.469Z" fill="#FFA666"/>
<path opacity="0.2" d="M97.9879 97.1383C97.9879 96.9839 98.0651 96.5978 98.1423 96.4434C98.4512 95.0535 98.7601 93.4319 99.2234 91.1927C99.2234 91.1154 99.2234 91.0382 99.2234 90.961L94.9765 88.6445C93.8954 87.5635 92.1195 87.5635 91.0384 88.6445C90.6523 89.0306 90.7296 89.4939 90.6523 90.0344C92.3511 93.2775 94.6676 95.9029 97.9879 97.6016C97.8335 97.5244 97.9107 97.37 97.9879 97.1383Z" fill="black"/>
<path d="M87.4881 75.827C87.4109 83.8575 87.2565 87.1778 90.8856 91.6563C96.4452 98.3742 106.02 96.907 108.491 89.1082C110.653 82.0815 110.421 70.1902 102.931 66.3294C95.5186 62.4685 87.5653 67.7965 87.4881 75.827Z" fill="#FFA666"/>
<path d="M83.7043 82.6209C84.4765 84.3969 85.8664 85.5551 87.2563 86.0956C89.3411 86.8678 90.8082 83.5475 90.3449 81.3854C89.8816 79.3778 87.9512 77.9107 85.8664 78.0651C83.7815 78.2195 82.8549 80.6132 83.7043 82.6209Z" fill="#FFA666"/>
<path opacity="0.2" d="M88.2603 82.698C88.2603 81.9258 88.0286 81.1536 87.4881 80.6131C86.9476 80.0726 86.2526 79.6865 85.4805 79.6865" stroke="black" stroke-width="0.386082" stroke-miterlimit="10" stroke-linecap="round" stroke-linejoin="round"/>
<path d="M97.2169 79.5331C97.1397 80.3825 97.5257 81.1547 98.0662 81.2319C98.6068 81.3091 99.0701 80.6914 99.1473 79.842C99.2245 78.9926 98.8384 78.2205 98.2979 78.1432C97.6802 78.066 97.2169 78.6838 97.2169 79.5331Z" fill="#263238"/>
<path d="M105.018 80.4596C104.94 81.309 105.327 82.004 105.867 82.0812C106.408 82.1584 106.871 81.5407 106.948 80.6913C107.025 79.8419 106.639 79.147 106.099 79.0697C105.481 78.9925 105.018 79.6103 105.018 80.4596Z" fill="#263238"/>
<path d="M96.4438 76.4437C96.521 76.4437 96.6755 76.4437 96.7527 76.3665C98.1426 75.3627 99.4553 75.9032 99.4553 75.9032C99.6869 75.9804 99.8413 75.9032 99.9186 75.6716C99.9958 75.4399 99.9186 75.2083 99.6869 75.1311C99.6097 75.1311 97.9109 74.4361 96.2122 75.6716C96.0577 75.826 95.9805 76.0577 96.135 76.2121C96.2894 76.3665 96.3666 76.4437 96.4438 76.4437Z" fill="#263238"/>
<path d="M108.8 76.753C108.877 76.753 108.954 76.6758 109.031 76.5986C109.109 76.4441 109.031 76.2125 108.877 76.0581C107.178 74.8226 105.711 75.4403 105.634 75.4403C105.48 75.5175 105.402 75.7492 105.48 75.9036C105.557 76.1353 105.788 76.2125 105.943 76.1353C106.02 76.1353 107.101 75.672 108.491 76.5986C108.645 76.753 108.723 76.753 108.8 76.753Z" fill="#263238"/>
<path d="M103.397 79.7639C103.397 79.7639 104.323 82.9298 105.482 84.9374C105.713 85.3235 105.482 85.7868 105.096 85.864C104.092 86.0957 102.934 85.6324 102.934 85.6324L103.397 79.7639Z" fill="#E57C35"/>
<path d="M97.8359 78.1425L99.6891 77.9109C99.6891 77.9109 98.5309 79.2236 97.8359 78.1425Z" fill="#263238"/>
<path d="M105.789 79.07L107.642 78.8384C107.719 78.8384 106.561 80.0738 105.789 79.07Z" fill="#263238"/>
<path d="M102.545 87.8721C101.85 88.567 100.924 90.1114 100.924 90.1114C100.769 90.0341 100.615 89.9569 100.46 89.9569C98.4529 89.1075 97.8351 88.0265 97.6807 87.0999C97.6035 86.6366 97.7579 86.1733 97.9123 85.7872C98.0668 85.4012 98.2984 85.0923 98.2984 85.0923C99.0706 86.1733 100.924 87.1771 101.85 87.6404C102.314 87.7949 102.545 87.8721 102.545 87.8721Z" fill="#263238"/>
<path d="M101.926 87.563L101.463 88.1808C99.6098 87.3314 98.3744 86.5592 97.9883 85.7098C98.1427 85.3238 98.3744 85.0149 98.3744 85.0149C99.1465 86.1731 100.923 87.0997 101.926 87.563Z" fill="white"/>
<path d="M100.538 89.8797C98.53 89.0303 97.9122 87.9493 97.7578 87.0227C98.4528 87.3316 99.2249 87.7949 99.7654 88.4126C100.229 88.9531 100.46 89.4164 100.538 89.8797Z" fill="#F54948"/>
<path d="M90.1918 77.9115C90.1918 77.9115 94.902 72.8152 95.2109 68.3366C95.2109 68.3366 111.658 65.1708 109.728 79.2241C109.728 79.2241 113.588 67.1012 100.307 64.7075C87.0259 62.3137 83.7056 79.6874 89.6513 85.942C89.6513 85.942 87.2576 81.0773 90.1918 77.9115Z" fill="#263238"/>
<path d="M106.327 66.715C108.026 68.491 109.184 70.653 109.493 73.1239C109.416 74.8999 107.022 76.0582 107.022 76.0582L104.242 72.1974L104.165 75.5177C99.4548 74.8227 96.7523 72.2746 95.2852 68.5682L98.0649 63.9352C98.0649 63.858 104.783 65.2479 106.327 66.715Z" fill="#263238"/>
<path d="M111.58 104.163C111.657 104.086 111.889 104.086 112.197 104.163C113.201 104.395 115.286 105.399 116.985 108.565C119.301 112.734 123.548 128.332 124.552 126.633C125.633 125.012 128.258 116.981 128.258 116.981L133.741 116.132C133.741 116.132 133.664 135.668 129.185 139.606C124.706 143.621 121.077 140.841 118.992 138.834C117.139 137.135 108.723 118.757 108.723 118.757" fill="#455A64"/>
<path d="M111.58 104.163C111.657 104.086 111.889 104.086 112.197 104.163C113.201 104.395 115.286 105.399 116.985 108.565C119.301 112.734 123.548 128.332 124.552 126.633C125.633 125.012 128.258 116.981 128.258 116.981L133.741 116.132C133.741 116.132 133.664 135.668 129.185 139.606C124.706 143.621 121.232 140.841 118.992 138.834C117.139 137.212 108.723 118.757 108.723 118.757" fill="url(#paint2_linear_4805_2424)"/>
<path d="M109.186 117.213C107.873 121.151 106.87 124.548 106.02 127.637C103.781 135.281 102.391 143.157 101.696 151.111L70.1918 147.713C69.3424 125.166 70.1918 112.734 70.8867 106.557C71.6589 99.9934 72.6627 99.7617 72.6627 99.7617C72.6627 99.7617 79.8438 99.2212 86.0983 99.3757C90.8857 99.6073 95.6732 100.225 100.461 101.152C104.939 102.001 109.34 103.159 113.665 104.626C112.892 106.711 112.197 108.642 111.58 110.495C110.653 112.811 109.881 115.128 109.186 117.213Z" fill="#455A64"/>
<path d="M109.186 117.213C107.873 121.151 106.87 124.548 106.02 127.637C103.781 135.281 102.391 143.157 101.696 151.111L70.1918 147.713C69.3424 125.166 70.1918 112.734 70.8867 106.557C71.6589 99.9934 72.6627 99.7617 72.6627 99.7617C72.6627 99.7617 79.8438 99.2212 86.0983 99.3757C90.8857 99.6073 95.6732 100.225 100.461 101.152C104.939 102.001 109.34 103.159 113.665 104.626C112.892 106.711 112.197 108.642 111.58 110.495C110.653 112.811 109.881 115.128 109.186 117.213Z" fill="url(#paint3_linear_4805_2424)"/>
<path opacity="0.2" d="M75.8285 143.158L88.1059 136.826L95.8275 135.437L103.549 138.062L104.707 132.888L91.7351 129.877L69.8828 138.062L70.5778 142.772L75.8285 143.158Z" fill="black"/>
<path d="M123.933 93.7393C122.929 94.0481 105.324 102.696 108.953 123.854L128.025 123.159C128.025 123.159 126.018 115.823 128.952 110.727C131.886 105.631 140.457 100.766 140.226 100.843C140.071 100.998 123.933 93.7393 123.933 93.7393Z" fill="#455A64"/>
<path opacity="0.7" d="M123.933 93.7393C122.929 94.0481 105.324 102.696 108.953 123.854L128.025 123.159C128.025 123.159 126.018 115.823 128.952 110.727C131.886 105.631 140.457 100.766 140.226 100.843C140.071 100.998 123.933 93.7393 123.933 93.7393Z" fill="white"/>
<path d="M111.502 126.325L106.251 118.912C106.251 118.912 92.8156 120.456 92.584 120.842L88.4915 130.417C88.3371 130.88 88.4915 131.344 88.9548 131.498C88.9548 131.498 88.9548 131.498 89.032 131.498L106.174 137.289C106.56 137.444 107.023 137.212 107.178 136.826L111.502 127.174C111.579 126.942 111.579 126.634 111.502 126.325Z" fill="#455A64"/>
<path opacity="0.1" d="M111.579 126.634C109.031 127.56 106.328 127.869 103.703 127.406C99.3017 126.402 92.7383 120.842 92.7383 120.842C92.8927 120.456 106.406 118.912 106.406 118.912L111.656 126.325C111.502 126.247 111.579 126.479 111.579 126.634Z" fill="black"/>
<path opacity="0.1" d="M93.5078 121.073C99.2218 123.853 105.245 125.706 111.499 126.633C111.576 126.633 101.384 123.236 93.5078 121.073Z" fill="black"/>
<path d="M72.662 99.6858C72.662 99.6858 68.1062 100.304 64.5542 106.558C60.1529 114.28 49.8059 129.877 56.8326 140.07C63.8593 150.263 86.7926 134.433 86.7926 134.433L84.3989 128.333C84.3989 128.333 66.9479 132.966 66.7935 131.267C66.4074 127.638 71.8126 118.141 71.8126 118.141L72.662 99.6858Z" fill="#455A64"/>
<path d="M85.3282 128.485C85.3282 128.485 85.7915 126.169 87.413 125.088C89.0346 124.007 90.1156 122.694 91.3511 121.999C92.6638 121.304 91.9688 123.157 91.4283 124.084C90.8878 125.01 90.27 126.014 90.965 126.323C91.7372 126.632 98.6866 125.705 99.6905 126.246C100.694 126.786 99.6132 127.327 99.6132 127.327C99.6132 127.327 101.312 127.172 101.544 127.79C101.621 127.945 101.466 128.485 100.694 128.64C98.9955 129.103 95.3663 129.875 95.3663 129.875C95.598 129.798 100.154 129.18 100.849 129.18C101.775 129.18 102.161 129.643 102.161 130.184C102.161 130.956 96.5246 131.883 96.2929 132.114C96.2929 132.114 99.536 131.419 100.154 132.191C100.771 132.964 98.7638 133.427 96.9107 133.581C95.2119 133.736 91.8916 134.354 90.1928 134.354C88.0308 134.276 86.6409 133.813 85.8687 131.96C85.0193 130.107 85.3282 128.485 85.3282 128.485Z" fill="#FFA666"/>
<path d="M72.662 99.6858C72.662 99.6858 68.1062 100.304 64.5542 106.558C60.1529 114.28 49.8059 129.877 56.8326 140.07C63.8593 150.263 86.7926 134.433 86.7926 134.433L84.3989 128.333C84.3989 128.333 66.9479 132.966 66.7935 131.267C66.4074 127.638 71.8126 118.141 71.8126 118.141L72.662 99.6858Z" fill="url(#paint4_linear_4805_2424)"/>
<g opacity="0.2">
<path d="M124.166 131.345C125.093 132.503 124.243 128.256 124.398 126.712C124.012 126.635 123.703 125.94 123.394 125.322C123.394 125.322 121.927 128.488 124.166 131.345Z" fill="black"/>
</g>
<path opacity="0.2" d="M124.937 106.171C124.86 106.326 121.694 110.418 122.543 112.348C123.392 114.279 127.485 116.209 127.485 116.209L128.025 113.198L124.937 106.171Z" fill="black"/>
<path d="M133.122 116.21L132.504 112.426C132.504 112.426 133.353 110.187 132.967 109.26C132.195 107.407 127.33 105.168 126.558 104.704C125.786 104.318 122.389 109.801 122.852 110.882C123.315 111.963 128.952 114.511 128.952 114.511V116.75L133.122 116.21Z" fill="#FFA666"/>
<path opacity="0.2" d="M69.9591 121.846L70.0363 121.691L73.0478 116.209C72.8933 121.382 72.1212 126.17 69.8047 129.799" fill="black"/>
<path d="M78.9895 302.147C78.9123 302.533 82.3871 313.189 82.3871 313.189H90.3404L89.491 301.452L78.9895 302.147Z" fill="#FFA666"/>
<path d="M119.759 300.449C119.682 300.835 123.157 311.491 123.157 311.491H131.11L128.253 295.352L119.759 300.449Z" fill="#FFA666"/>
<path d="M77.5234 99.378C80.921 104.86 86.635 108.567 93.1211 109.416C103.777 110.652 107.483 102.621 107.483 102.621C107.483 102.621 93.0439 97.4475 77.5234 99.378Z" fill="#FFA666"/>
<path d="M83.3164 178.601C85.4012 180.454 97.9875 267.245 118.373 300.757C118.373 300.757 130.65 297.514 131.886 297.669C130.418 294.812 112.118 207.634 109.338 171.343L83.3164 178.601Z" fill="#263238"/>
<path d="M70.1126 142.463C70.1126 142.463 59.7657 152.501 59.4568 172.809C59.2251 193.194 70.0354 290.641 78.5292 303.614C78.5292 303.614 93.432 303.459 92.0421 303.614C90.6522 303.768 83.3167 219.293 89.0307 187.558L109.339 171.342C108.335 160.995 106.173 152.27 102.157 146.247L70.1126 142.463Z" fill="#263238"/>
<path opacity="0.2" d="M87.7953 198.522L87.332 179.449L91.8106 175.357C91.1156 175.666 92.1195 216.05 91.3473 215.741L87.7953 198.522Z" fill="black"/>
<path d="M91.3435 310.487L88.5637 310.41C87.9459 310.41 87.3282 310.719 86.9421 311.182C85.1661 313.267 84.0079 312.418 82.3864 310.41C81.3053 310.256 80.9192 311.491 80.7648 311.8L78.2167 318.981C77.985 319.599 78.2939 320.217 78.9888 320.448C79.0661 320.448 79.2205 320.525 79.2977 320.525C82.6952 320.603 84.3168 320.68 88.5637 320.757L101.536 321.143C105.088 321.22 106.015 317.9 104.547 317.514C98.0613 315.97 93.5827 313.962 91.6523 312.109C91.3435 311.723 91.7295 311.491 91.3435 310.487Z" fill="#263238"/>
<path d="M97.2892 312.726C97.5981 312.495 97.8297 312.186 97.8297 311.877C97.8297 311.723 97.7525 311.491 97.5981 311.414C96.7487 310.796 93.1968 312.263 92.7335 312.418C92.6562 312.418 92.6562 312.495 92.6562 312.495C92.6562 312.572 92.6562 312.649 92.7335 312.649C93.5828 312.881 94.4322 313.035 95.3588 313.035C96.0538 313.19 96.7487 313.035 97.2892 312.726ZM97.3664 311.645C97.4437 311.723 97.4437 311.8 97.4437 311.877C97.4437 312.109 97.2892 312.34 97.0576 312.495C96.2082 313.035 94.355 312.726 93.274 312.495C94.8183 311.954 96.9032 311.336 97.3664 311.645Z" fill="#455A64"/>
<path d="M92.8879 312.727C93.9689 312.341 96.2854 310.719 96.2082 309.87C96.2082 309.715 96.0538 309.484 95.5905 309.406C93.6601 309.175 92.6562 312.418 92.6562 312.572C92.6562 312.649 92.6562 312.727 92.6562 312.727H92.7335H92.8879ZM95.5133 309.638C95.8993 309.715 95.8221 309.792 95.8221 309.87C95.8993 310.41 94.2006 311.723 93.0423 312.263C93.3512 311.491 94.1234 309.638 95.3588 309.638H95.5133Z" fill="#455A64"/>
<path d="M93.1975 312.572C92.1937 312.649 91.2671 313.19 90.7266 313.962" stroke="#455A64" stroke-width="0.386082" stroke-miterlimit="10" stroke-linecap="round" stroke-linejoin="round"/>
<path d="M94.8186 313.885C93.8148 313.962 92.8882 314.503 92.3477 315.275" stroke="#455A64" stroke-width="0.386082" stroke-miterlimit="10" stroke-linecap="round" stroke-linejoin="round"/>
<path d="M96.9006 315.044C95.8968 315.121 94.9702 315.661 94.4297 316.434" stroke="#455A64" stroke-width="0.386082" stroke-miterlimit="10" stroke-linecap="round" stroke-linejoin="round"/>
<path d="M131.731 305.932L129.029 306.627C128.411 306.781 127.948 307.244 127.639 307.785C126.558 310.256 125.168 309.792 123.083 308.325C122.002 308.48 121.925 309.792 121.925 310.101L121.539 317.746C121.461 318.363 122.002 318.904 122.62 318.904C122.774 318.904 122.851 318.904 122.929 318.827C126.249 317.977 127.793 317.514 131.886 316.433L144.395 313.113C147.792 312.186 147.715 308.711 146.248 308.789C139.607 309.097 134.743 308.557 132.349 307.322C132.04 307.09 132.349 306.781 131.731 305.932Z" fill="#263238"/>
<path d="M138.061 306.318C138.292 306.01 138.369 305.701 138.292 305.315C138.292 305.16 138.138 305.006 137.983 304.929C136.98 304.542 133.968 307.013 133.659 307.245C133.582 307.245 133.582 307.322 133.582 307.322C133.582 307.399 133.659 307.477 133.736 307.477C134.586 307.477 135.512 307.322 136.362 307.091C136.98 307.091 137.597 306.782 138.061 306.318ZM137.906 305.237C137.983 305.237 138.061 305.315 138.061 305.392C138.138 305.624 138.061 305.932 137.906 306.087C137.288 306.859 135.358 307.091 134.354 307.168C135.512 306.318 137.366 305.083 137.906 305.237Z" fill="#455A64"/>
<path d="M133.892 307.631C134.818 306.936 136.594 304.774 136.286 303.924C136.208 303.77 136.054 303.538 135.591 303.615C133.66 303.924 133.66 307.322 133.66 307.476C133.66 307.553 133.66 307.553 133.737 307.631H133.815H133.892ZM135.513 303.924C135.899 303.847 135.899 304.002 135.899 304.002C136.131 304.465 134.896 306.241 133.892 307.09C133.969 306.318 134.201 304.233 135.359 303.924H135.513Z" fill="#455A64"/>
<path d="M134.122 307.399C133.195 307.785 132.5 308.557 132.191 309.407" stroke="#455A64" stroke-width="0.386082" stroke-miterlimit="10" stroke-linecap="round" stroke-linejoin="round"/>
<path d="M136.055 308.171C135.129 308.557 134.434 309.329 134.125 310.178" stroke="#455A64" stroke-width="0.386082" stroke-miterlimit="10" stroke-linecap="round" stroke-linejoin="round"/>
<path d="M138.372 308.634C137.445 309.02 136.75 309.792 136.441 310.642" stroke="#455A64" stroke-width="0.386082" stroke-miterlimit="10" stroke-linecap="round" stroke-linejoin="round"/>
</g>
<defs>
<filter id="filter0_d_4805_2424" x="117.345" y="90.0852" width="190.591" height="193.927" filterUnits="userSpaceOnUse" color-interpolation-filters="sRGB">
<feFlood flood-opacity="0" result="BackgroundImageFix"/>
<feColorMatrix in="SourceAlpha" type="matrix" values="0 0 0 0 0 0 0 0 0 0 0 0 0 0 0 0 0 0 127 0" result="hardAlpha"/>
<feOffset dy="3.08866"/>
<feGaussianBlur stdDeviation="1.54433"/>
<feComposite in2="hardAlpha" operator="out"/>
<feColorMatrix type="matrix" values="0 0 0 0 0 0 0 0 0 0 0 0 0 0 0 0 0 0 0.25 0"/>
<feBlend mode="normal" in2="BackgroundImageFix" result="effect1_dropShadow_4805_2424"/>
<feBlend mode="normal" in="SourceGraphic" in2="effect1_dropShadow_4805_2424" result="shape"/>
</filter>
<filter id="filter1_d_4805_2424" x="117.435" y="144.317" width="190.584" height="139.684" filterUnits="userSpaceOnUse" color-interpolation-filters="sRGB">
<feFlood flood-opacity="0" result="BackgroundImageFix"/>
<feColorMatrix in="SourceAlpha" type="matrix" values="0 0 0 0 0 0 0 0 0 0 0 0 0 0 0 0 0 0 127 0" result="hardAlpha"/>
<feOffset dy="3.08866"/>
<feGaussianBlur stdDeviation="1.54433"/>
<feComposite in2="hardAlpha" operator="out"/>
<feColorMatrix type="matrix" values="0 0 0 0 0 0 0 0 0 0 0 0 0 0 0 0 0 0 0.25 0"/>
<feBlend mode="normal" in2="BackgroundImageFix" result="effect1_dropShadow_4805_2424"/>
<feBlend mode="normal" in="SourceGraphic" in2="effect1_dropShadow_4805_2424" result="shape"/>
</filter>
<linearGradient id="paint0_linear_4805_2424" x1="220.141" y1="94.7437" x2="220.141" y2="204.237" gradientUnits="userSpaceOnUse">
<stop stop-color="#B197FD"/>
<stop offset="1" stop-color="#FF96B1"/>
</linearGradient>
<linearGradient id="paint1_linear_4805_2424" x1="83.0278" y1="59.4211" x2="83.0278" y2="74.188" gradientUnits="userSpaceOnUse">
<stop stop-color="#B197FD"/>
<stop offset="1" stop-color="#FF96B1"/>
</linearGradient>
<linearGradient id="paint2_linear_4805_2424" x1="121.232" y1="104.105" x2="121.232" y2="141.655" gradientUnits="userSpaceOnUse">
<stop stop-color="#B197FD"/>
<stop offset="1" stop-color="#FF96B1"/>
</linearGradient>
<linearGradient id="paint3_linear_4805_2424" x1="91.7503" y1="99.3479" x2="91.7503" y2="151.111" gradientUnits="userSpaceOnUse">
<stop stop-color="#B197FD"/>
<stop offset="1" stop-color="#FF96B1"/>
</linearGradient>
<linearGradient id="paint4_linear_4805_2424" x1="70.6228" y1="99.6858" x2="70.6228" y2="143.491" gradientUnits="userSpaceOnUse">
<stop stop-color="#B197FD"/>
<stop offset="1" stop-color="#FF96B1"/>
</linearGradient>
<clipPath id="clip0_4805_2424">
<rect width="386.082" height="324" fill="white"/>
</clipPath>
</defs>
</svg>
