<svg width="16" height="19" viewBox="0 0 16 19" fill="none" xmlns="http://www.w3.org/2000/svg">
<path d="M7.22656 3.1327L7.22656 17.5078C7.22656 17.7129 7.30805 17.9097 7.4531 18.0547C7.59815 18.1998 7.79487 18.2812 8 18.2812C8.20513 18.2812 8.40186 18.1998 8.5469 18.0547C8.69195 17.9097 8.77344 17.7129 8.77344 17.5078L8.77344 3.1327L14.4133 8.77416C14.5586 8.91939 14.7556 9.00098 14.9609 9.00098C15.1663 9.00098 15.3633 8.91939 15.5085 8.77416C15.6538 8.62892 15.7354 8.43195 15.7354 8.22656C15.7354 8.02117 15.6538 7.8242 15.5085 7.67897L8.54759 0.718031C8.47575 0.646003 8.3904 0.588857 8.29643 0.549867C8.20247 0.510875 8.10173 0.490804 8 0.490804C7.89827 0.490804 7.79753 0.510875 7.70357 0.549867C7.6096 0.588857 7.52425 0.646003 7.45241 0.718031L0.491469 7.67897C0.346238 7.8242 0.264648 8.02118 0.264648 8.22656C0.264648 8.43195 0.346238 8.62893 0.491469 8.77416C0.6367 8.91939 0.833675 9.00098 1.03906 9.00098C1.24445 9.00098 1.44143 8.91939 1.58666 8.77416L7.22656 3.1327Z" fill="black"/>
</svg>
